<svg width="70" height="24" viewBox="0 0 70 24" fill="none" xmlns="http://www.w3.org/2000/svg">
<rect width="70" height="24" rx="4" fill="#E63946"/>
<path d="M10.158 10.602L10.256 10.56H11.46C11.5533 10.56 11.6 10.5133 11.6 10.42V6.5C11.6 6.40667 11.6467 6.36 11.74 6.36C12.0013 6.36 12.258 6.38333 12.51 6.43C12.7713 6.46733 13.0327 6.50467 13.294 6.542C13.3593 6.542 13.392 6.56533 13.392 6.612C13.392 6.65867 13.3733 6.70067 13.336 6.738C13.2987 6.77533 13.28 6.81733 13.28 6.864V10.42C13.28 10.5133 13.3267 10.56 13.42 10.56C13.4573 10.56 13.5273 10.5647 13.63 10.574C13.742 10.5833 13.854 10.588 13.966 10.588C14.078 10.588 14.176 10.5787 14.26 10.56C14.3533 10.532 14.4 10.4853 14.4 10.42V5.394C14.4 5.30067 14.4513 5.254 14.554 5.254C14.61 5.254 14.7267 5.254 14.904 5.254C15.0907 5.254 15.282 5.26333 15.478 5.282C15.674 5.30067 15.8467 5.32867 15.996 5.366C16.1453 5.40333 16.22 5.45933 16.22 5.534C16.22 5.59933 16.1967 5.65067 16.15 5.688C16.1127 5.716 16.094 5.76733 16.094 5.842V10.434L16.136 10.518L16.234 10.56C16.346 10.56 16.4533 10.56 16.556 10.56C16.6587 10.56 16.7567 10.5507 16.85 10.532C16.9433 10.5133 17.0273 10.4807 17.102 10.434C17.186 10.378 17.2653 10.294 17.34 10.182C17.3773 10.126 17.424 10.0467 17.48 9.944C17.536 9.84133 17.5967 9.73867 17.662 9.636C17.7367 9.524 17.8067 9.43067 17.872 9.356C17.9467 9.28133 18.0213 9.244 18.096 9.244C18.1613 9.244 18.2687 9.30467 18.418 9.426C18.5767 9.538 18.7353 9.67333 18.894 9.832C19.062 9.98133 19.2067 10.1307 19.328 10.28C19.4493 10.4293 19.51 10.5367 19.51 10.602C19.51 10.6207 19.496 10.6347 19.468 10.644C19.44 10.6533 19.4167 10.658 19.398 10.658C19.2673 10.6767 19.1367 10.6813 19.006 10.672C18.8847 10.6627 18.7587 10.6627 18.628 10.672C18.3107 10.6907 17.9933 10.7093 17.676 10.728C17.368 10.7373 17.0553 10.742 16.738 10.742C15.6367 10.742 14.54 10.728 13.448 10.7C12.3653 10.672 11.2733 10.658 10.172 10.658L10.13 10.63L10.158 10.602ZM9.36 7.676C9.14533 7.676 8.968 7.62 8.828 7.508C8.688 7.38667 8.562 7.242 8.45 7.074C8.34733 6.906 8.25867 6.72867 8.184 6.542C8.10933 6.35533 8.03 6.18733 7.946 6.038C7.93667 6.02867 7.90867 5.996 7.862 5.94C7.82467 5.87467 7.78733 5.80933 7.75 5.744C7.722 5.67867 7.69867 5.62267 7.68 5.576C7.67067 5.52 7.68933 5.492 7.736 5.492C7.94133 5.492 8.184 5.51067 8.464 5.548C8.75333 5.58533 9.02867 5.65533 9.29 5.758C9.55133 5.85133 9.77067 5.982 9.948 6.15C10.1347 6.318 10.228 6.53733 10.228 6.808C10.228 7.06 10.144 7.27 9.976 7.438C9.81733 7.59667 9.612 7.676 9.36 7.676ZM16.29 7.872C16.3273 7.86267 16.3787 7.85333 16.444 7.844C16.5187 7.82533 16.5933 7.81133 16.668 7.802C16.752 7.78333 16.822 7.76467 16.878 7.746C16.9433 7.718 16.99 7.69 17.018 7.662C17.0553 7.62467 17.1067 7.54533 17.172 7.424C17.2467 7.30267 17.3213 7.17667 17.396 7.046C17.48 6.91533 17.5593 6.80333 17.634 6.71C17.7087 6.60733 17.7693 6.556 17.816 6.556C17.844 6.556 17.9233 6.61667 18.054 6.738C18.1847 6.85 18.3247 6.98067 18.474 7.13C18.6233 7.27933 18.7633 7.424 18.894 7.564C19.0247 7.69467 19.0993 7.77867 19.118 7.816C19.1367 7.85333 19.132 7.886 19.104 7.914C19.076 7.92333 18.9873 7.93267 18.838 7.942C18.698 7.942 18.53 7.94667 18.334 7.956C18.138 7.956 17.9233 7.956 17.69 7.956C17.466 7.956 17.256 7.956 17.06 7.956C16.864 7.94667 16.696 7.942 16.556 7.942C16.416 7.93267 16.3367 7.92333 16.318 7.914L16.29 7.872ZM6.896 14.186C7.288 14.13 7.59133 13.9387 7.806 13.612C7.92733 13.4253 8.02533 13.2293 8.1 13.024C8.17467 12.8187 8.254 12.618 8.338 12.422C8.55267 11.9273 8.772 11.442 8.996 10.966C9.22 10.4807 9.444 9.99533 9.668 9.51C9.79867 9.23933 9.92 8.97333 10.032 8.712C10.144 8.44133 10.2653 8.17067 10.396 7.9C10.4147 7.85333 10.4333 7.816 10.452 7.788C10.4707 7.76 10.4987 7.73667 10.536 7.718C10.564 7.72733 10.578 7.76 10.578 7.816C10.578 8.38533 10.4893 8.94067 10.312 9.482C10.1347 10.014 9.93867 10.546 9.724 11.078C9.51867 11.6007 9.32733 12.1327 9.15 12.674C8.97267 13.2153 8.884 13.7707 8.884 14.34C8.884 14.564 8.912 14.7787 8.968 14.984C9.03333 15.1893 9.09867 15.3947 9.164 15.6C9.23867 15.8053 9.304 16.0107 9.36 16.216C9.42533 16.4213 9.458 16.636 9.458 16.86C9.458 17.168 9.40667 17.42 9.304 17.616C9.21067 17.812 9.08933 17.9567 8.94 18.05C8.8 18.1527 8.646 18.2133 8.478 18.232C8.31 18.2507 8.15133 18.2413 8.002 18.204C7.862 18.176 7.74067 18.1247 7.638 18.05C7.54467 17.9847 7.498 17.9147 7.498 17.84V15.04C7.498 14.9467 7.46067 14.8673 7.386 14.802C7.32067 14.7273 7.246 14.662 7.162 14.606C7.078 14.5407 6.99867 14.48 6.924 14.424C6.85867 14.368 6.826 14.3073 6.826 14.242L6.896 14.186ZM6.462 8.53C6.462 8.43667 6.504 8.39 6.588 8.39C6.784 8.39 7.00333 8.41333 7.246 8.46C7.48867 8.50667 7.71733 8.586 7.932 8.698C8.156 8.80067 8.34267 8.936 8.492 9.104C8.64133 9.272 8.716 9.47733 8.716 9.72C8.716 9.95333 8.64133 10.154 8.492 10.322C8.352 10.4807 8.16067 10.56 7.918 10.56C7.778 10.56 7.624 10.4807 7.456 10.322C7.288 10.154 7.12933 9.958 6.98 9.734C6.83067 9.51 6.70467 9.286 6.602 9.062C6.50867 8.838 6.462 8.66067 6.462 8.53ZM15.268 14.158C15.4547 13.85 15.646 13.542 15.842 13.234C16.038 12.9167 16.2153 12.5947 16.374 12.268C16.3927 12.2307 16.4253 12.156 16.472 12.044C16.528 11.932 16.5793 11.8153 16.626 11.694C16.682 11.5727 16.7287 11.4653 16.766 11.372C16.8127 11.2787 16.8407 11.2227 16.85 11.204C16.8967 11.2227 17.018 11.2927 17.214 11.414C17.4193 11.526 17.634 11.6567 17.858 11.806C18.0913 11.946 18.3013 12.0813 18.488 12.212C18.684 12.3333 18.8007 12.4127 18.838 12.45C18.838 12.4687 18.8287 12.4873 18.81 12.506C18.782 12.534 18.6793 12.5947 18.502 12.688C18.334 12.7813 18.124 12.8887 17.872 13.01C17.62 13.1313 17.3493 13.262 17.06 13.402C16.78 13.542 16.514 13.6727 16.262 13.794C16.01 13.906 15.7907 14.004 15.604 14.088C15.4267 14.1627 15.324 14.2 15.296 14.2L15.268 14.158ZM11.082 11.582C11.3527 11.582 11.6467 11.624 11.964 11.708C12.2907 11.7827 12.594 11.8993 12.874 12.058C13.154 12.2073 13.3873 12.4033 13.574 12.646C13.7607 12.8887 13.854 13.1687 13.854 13.486C13.854 13.738 13.784 13.9527 13.644 14.13C13.5133 14.3073 13.3127 14.396 13.042 14.396C12.846 14.396 12.6593 14.3213 12.482 14.172C12.314 14.0133 12.16 13.8267 12.02 13.612C11.8893 13.388 11.768 13.164 11.656 12.94C11.5533 12.7067 11.4693 12.5153 11.404 12.366C11.3853 12.3287 11.3573 12.2773 11.32 12.212C11.2827 12.1373 11.2407 12.0627 11.194 11.988C11.1567 11.9133 11.124 11.8433 11.096 11.778C11.068 11.7127 11.0493 11.6613 11.04 11.624L11.082 11.582ZM15.422 15.082L15.478 15.026C15.6927 15.026 15.94 15.0447 16.22 15.082C16.5093 15.11 16.7987 15.1613 17.088 15.236C17.3867 15.3107 17.676 15.4087 17.956 15.53C18.236 15.642 18.4833 15.782 18.698 15.95C18.922 16.118 19.0993 16.314 19.23 16.538C19.37 16.762 19.44 17.014 19.44 17.294C19.44 17.5833 19.356 17.8073 19.188 17.966C19.02 18.134 18.7913 18.218 18.502 18.218C18.2967 18.218 18.11 18.148 17.942 18.008C17.774 17.8773 17.62 17.7187 17.48 17.532C17.34 17.3453 17.2093 17.154 17.088 16.958C16.9667 16.7527 16.85 16.58 16.738 16.44C16.542 16.216 16.3367 15.9967 16.122 15.782C15.9167 15.558 15.6973 15.3527 15.464 15.166L15.422 15.082ZM13.966 15.194C13.9567 15.2407 13.8867 15.348 13.756 15.516C13.6253 15.684 13.4573 15.88 13.252 16.104C13.056 16.3187 12.8413 16.5473 12.608 16.79C12.384 17.0327 12.1693 17.252 11.964 17.448C11.7587 17.6533 11.5813 17.8213 11.432 17.952C11.2827 18.0827 11.1893 18.148 11.152 18.148C11.124 18.148 11.0867 18.1247 11.04 18.078C11.0213 18.0593 10.9607 17.966 10.858 17.798C10.7553 17.63 10.648 17.448 10.536 17.252C10.424 17.0653 10.3213 16.8927 10.228 16.734C10.144 16.5753 10.102 16.4913 10.102 16.482C10.102 16.4073 10.1347 16.356 10.2 16.328C10.2933 16.2813 10.3913 16.2487 10.494 16.23C10.606 16.2113 10.7133 16.188 10.816 16.16C11.0027 16.1133 11.1893 16.062 11.376 16.006C11.572 15.95 11.7633 15.8847 11.95 15.81C12.0153 15.7913 12.1367 15.7447 12.314 15.67C12.5007 15.5953 12.692 15.5207 12.888 15.446C13.0933 15.362 13.28 15.292 13.448 15.236C13.616 15.1707 13.714 15.138 13.742 15.138C13.7887 15.138 13.8307 15.138 13.868 15.138C13.9053 15.138 13.938 15.1567 13.966 15.194Z" fill="#FDFDFD"/>
<path d="M23.696 5.24C23.7707 5.27733 23.836 5.31467 23.892 5.352C23.948 5.38933 24.0133 5.43133 24.088 5.478C24.144 5.506 24.2513 5.55733 24.41 5.632C24.578 5.70667 24.7507 5.786 24.928 5.87C25.1147 5.954 25.278 6.038 25.418 6.122C25.558 6.206 25.628 6.26667 25.628 6.304C25.628 6.34133 25.614 6.374 25.586 6.402C25.4647 6.542 25.2967 6.724 25.082 6.948C24.8673 7.172 24.62 7.41467 24.34 7.676C24.0693 7.93733 23.78 8.19867 23.472 8.46C23.1733 8.72133 22.8747 8.95933 22.576 9.174C22.2867 9.38867 22.0113 9.566 21.75 9.706C21.498 9.83667 21.288 9.902 21.12 9.902H21.078L21.05 9.86C21.2833 9.54267 21.5213 9.23 21.764 8.922C22.0067 8.614 22.226 8.28733 22.422 7.942C22.6647 7.522 22.87 7.088 23.038 6.64C23.206 6.18267 23.3973 5.73 23.612 5.282L23.696 5.24ZM28.218 5.562L28.274 5.506C28.526 5.51533 28.8013 5.548 29.1 5.604C29.408 5.66 29.7207 5.744 30.038 5.856C30.3553 5.95867 30.6587 6.08933 30.948 6.248C31.2467 6.39733 31.5127 6.57467 31.746 6.78C31.9793 6.98533 32.166 7.21867 32.306 7.48C32.446 7.732 32.516 8.012 32.516 8.32C32.516 8.59067 32.4367 8.81467 32.278 8.992C32.1287 9.16933 31.914 9.258 31.634 9.258C31.5127 9.258 31.3587 9.18333 31.172 9.034C30.9947 8.88467 30.794 8.698 30.57 8.474C30.3553 8.24067 30.1313 7.984 29.898 7.704C29.674 7.41467 29.4547 7.13933 29.24 6.878C29.0253 6.60733 28.8293 6.36467 28.652 6.15C28.484 5.926 28.3533 5.76267 28.26 5.66L28.218 5.562ZM28.61 16.902C28.5447 16.9673 28.4653 17 28.372 17H25.138C25.082 17 25.0447 17.0327 25.026 17.098C25.0167 17.1633 25.0073 17.238 24.998 17.322C24.9887 17.4153 24.9747 17.5087 24.956 17.602C24.9467 17.6953 24.914 17.7747 24.858 17.84C24.802 17.896 24.6947 17.952 24.536 18.008C24.3867 18.0733 24.2233 18.1247 24.046 18.162C23.878 18.2087 23.71 18.232 23.542 18.232C23.3833 18.2413 23.2713 18.218 23.206 18.162C23.1873 18.1247 23.1733 17.98 23.164 17.728C23.164 17.4853 23.164 17.182 23.164 16.818C23.1733 16.454 23.1827 16.062 23.192 15.642C23.2013 15.2127 23.2107 14.8067 23.22 14.424C23.2293 14.0413 23.2387 13.7007 23.248 13.402C23.2573 13.1033 23.262 12.9027 23.262 12.8L23.206 12.716C23.0567 12.6693 22.8887 12.6973 22.702 12.8C22.5247 12.8933 22.338 13.01 22.142 13.15C21.9553 13.2807 21.764 13.4067 21.568 13.528C21.3813 13.6493 21.2133 13.71 21.064 13.71C20.9987 13.71 20.966 13.6867 20.966 13.64C20.966 13.6027 21.0267 13.5187 21.148 13.388C21.2693 13.248 21.4047 13.0987 21.554 12.94C21.7127 12.7813 21.862 12.632 22.002 12.492C22.1513 12.352 22.2493 12.2587 22.296 12.212C22.5853 11.9507 22.8513 11.7033 23.094 11.47C23.346 11.2273 23.5793 10.98 23.794 10.728C24.018 10.476 24.228 10.2147 24.424 9.944C24.6293 9.664 24.83 9.35133 25.026 9.006C25.138 8.80067 25.2453 8.59533 25.348 8.39C25.46 8.17533 25.5673 7.96067 25.67 7.746C25.6887 7.69 25.7307 7.662 25.796 7.662C25.8987 7.662 26.076 7.69 26.328 7.746C26.58 7.79267 26.8413 7.85333 27.112 7.928C27.3827 8.00267 27.63 8.08667 27.854 8.18C28.0873 8.264 28.2273 8.34333 28.274 8.418C28.2647 8.43667 28.2273 8.46 28.162 8.488C28.0967 8.50667 28.0267 8.53 27.952 8.558C27.8773 8.57667 27.8027 8.6 27.728 8.628C27.6533 8.64667 27.5973 8.67 27.56 8.698C27.476 8.754 27.3967 8.838 27.322 8.95C27.2473 9.062 27.168 9.18333 27.084 9.314C27.0093 9.43533 26.9347 9.56133 26.86 9.692C26.7853 9.81333 26.706 9.916 26.622 10C26.5007 10.1307 26.3 10.3033 26.02 10.518C25.74 10.7233 25.4507 10.938 25.152 11.162C24.8627 11.386 24.5967 11.596 24.354 11.792C24.1113 11.9787 23.9713 12.1187 23.934 12.212C23.9247 12.24 23.92 12.282 23.92 12.338C23.9573 12.366 24.032 12.408 24.144 12.464C24.2653 12.5107 24.3867 12.5573 24.508 12.604C24.6387 12.6507 24.76 12.6927 24.872 12.73C24.9933 12.7673 25.082 12.7907 25.138 12.8C25.2127 12.8093 25.2827 12.814 25.348 12.814C25.4133 12.814 25.4833 12.814 25.558 12.814C26.09 12.814 26.6173 12.814 27.14 12.814C27.6627 12.8047 28.19 12.8 28.722 12.8L28.82 12.758L29.576 12.002L29.618 11.904V11.834C29.5993 11.75 29.534 11.652 29.422 11.54C29.31 11.4187 29.2213 11.3253 29.156 11.26C29.044 11.148 28.918 11.008 28.778 10.84C28.638 10.6627 28.5027 10.4807 28.372 10.294C28.2507 10.098 28.1433 9.90667 28.05 9.72C27.966 9.524 27.924 9.342 27.924 9.174C27.924 9.15533 27.924 9.132 27.924 9.104C27.9333 9.076 27.9473 9.062 27.966 9.062C28.0593 9.062 28.218 9.132 28.442 9.272C28.6753 9.40267 28.9227 9.55667 29.184 9.734C29.4453 9.902 29.702 10.07 29.954 10.238C30.206 10.3967 30.402 10.504 30.542 10.56C30.8593 10.6907 31.1813 10.8027 31.508 10.896C31.8347 10.9893 32.1613 11.078 32.488 11.162C32.6467 11.2087 32.8053 11.2413 32.964 11.26C33.1227 11.2787 33.2767 11.316 33.426 11.372C33.4447 11.3813 33.4633 11.3907 33.482 11.4C33.51 11.4093 33.524 11.4233 33.524 11.442C33.524 11.5167 33.4773 11.6007 33.384 11.694C33.3 11.7873 33.1973 11.8853 33.076 11.988C32.964 12.0813 32.852 12.1793 32.74 12.282C32.628 12.3753 32.5487 12.4547 32.502 12.52C32.4273 12.6413 32.362 12.772 32.306 12.912C32.25 13.052 32.1987 13.1873 32.152 13.318L32.096 13.36C32.0213 13.3413 31.9467 13.3087 31.872 13.262C31.7973 13.206 31.7227 13.178 31.648 13.178C31.62 13.178 31.564 13.1967 31.48 13.234C31.396 13.262 31.3073 13.2993 31.214 13.346C31.13 13.3833 31.0507 13.4253 30.976 13.472C30.9107 13.5187 30.878 13.5607 30.878 13.598V17.742C30.878 17.8167 30.8173 17.8773 30.696 17.924C30.5747 17.9707 30.4347 18.008 30.276 18.036C30.1267 18.064 29.9773 18.0827 29.828 18.092C29.6787 18.1107 29.576 18.12 29.52 18.12C29.4173 18.12 29.3287 18.12 29.254 18.12C29.1793 18.1293 29.1047 18.0967 29.03 18.022C29.002 18.0033 28.9833 17.882 28.974 17.658C28.9647 17.434 28.96 17.1633 28.96 16.846C28.96 16.5193 28.96 16.1647 28.96 15.782C28.9693 15.3993 28.974 15.0353 28.974 14.69C28.9833 14.3447 28.988 14.0367 28.988 13.766C28.9973 13.4953 29.002 13.3133 29.002 13.22C29.002 13.1267 28.9553 13.08 28.862 13.08H25.18C25.0867 13.08 25.04 13.1267 25.04 13.22V16.678C25.04 16.7713 25.0867 16.818 25.18 16.818C25.264 16.818 25.3993 16.818 25.586 16.818C25.782 16.8087 26.0013 16.804 26.244 16.804C26.4867 16.7947 26.7387 16.79 27 16.79C27.2613 16.79 27.504 16.7947 27.728 16.804C27.9613 16.804 28.1573 16.8133 28.316 16.832C28.4747 16.8507 28.5727 16.874 28.61 16.902Z" fill="#FDFDFD"/>
<rect width="16" height="16" transform="translate(34 4)" fill="#FDFDFD"/>
<path d="M45.4496 17.4006C45.5176 17.4006 45.5941 17.3539 45.6791 17.2604C45.7641 17.1753 45.8491 17.0733 45.9341 16.9543C46.0192 16.8353 46.0999 16.7205 46.1764 16.61C46.253 16.4995 46.321 16.423 46.3805 16.3804C46.3805 16.3719 46.3932 16.3677 46.4187 16.3677C46.5293 16.3677 46.6483 16.406 46.7758 16.4825C46.9033 16.559 47.0266 16.6525 47.1456 16.763C47.2646 16.8735 47.3752 16.9841 47.4772 17.0946C47.5877 17.2136 47.677 17.3156 47.745 17.4006H47.694C47.626 17.4006 47.5622 17.3879 47.5027 17.3624C47.4517 17.3454 47.3879 17.3369 47.3114 17.3369V17.9872H43.83C43.779 17.9872 43.7322 17.9362 43.6897 17.8342C43.6557 17.7407 43.6175 17.6812 43.5749 17.6557L43.2306 17.9872H39.5835C39.5409 17.9872 39.5112 17.966 39.4942 17.9235C39.4772 17.8895 39.4602 17.847 39.4432 17.796C39.4347 17.7535 39.4219 17.7067 39.4049 17.6557C39.3879 17.6132 39.3624 17.5834 39.3284 17.5664L39.2391 17.9107C39.2306 17.9192 39.2136 17.932 39.1881 17.949C39.1711 17.9745 39.1584 17.9872 39.1499 17.9872H37.288C37.2285 17.9872 37.1818 17.9362 37.1477 17.8342C37.1137 17.7407 37.0755 17.6812 37.033 17.6557C36.982 17.6727 36.9522 17.6939 36.9437 17.7194C36.9437 17.7535 36.9437 17.7875 36.9437 17.8215C36.9437 17.8555 36.9395 17.8852 36.931 17.9107C36.931 17.9447 36.9054 17.9702 36.8544 17.9872L36.5229 18C36.2933 18 36.1318 17.966 36.0383 17.898C35.9448 17.8385 35.898 17.6854 35.898 17.4389H37.7088L37.8364 17.3114V13.9702C38.2019 13.9702 38.5633 13.9787 38.9203 13.9957C39.2774 14.0128 39.6387 14.0425 40.0043 14.085C40.0808 14.0765 40.1276 14.0893 40.1446 14.1233C40.1701 14.1573 40.1828 14.1998 40.1828 14.2508C40.1828 14.2848 40.1786 14.3146 40.1701 14.3401C40.1531 14.2806 40.1063 14.238 40.0298 14.2125C39.9618 14.187 39.881 14.17 39.7875 14.1615C39.7025 14.153 39.6132 14.153 39.5197 14.1615C39.4347 14.1615 39.3709 14.1615 39.3284 14.1615H38.9841C38.9076 14.2125 38.8566 14.2763 38.8311 14.3528C38.8141 14.4293 38.8056 14.5101 38.8056 14.5951C38.8056 14.7141 38.8311 14.8204 38.8821 14.9139C38.9416 14.9989 39.0011 15.084 39.0606 15.169C39.1201 15.254 39.1711 15.3433 39.2136 15.4368C39.2561 15.5303 39.2646 15.6451 39.2391 15.7811C39.3071 15.6961 39.3922 15.6153 39.4942 15.5388C39.6047 15.4623 39.7025 15.4028 39.7875 15.3603V17.4006H40.9352V13.3581H36.2678C36.2253 13.3581 36.1998 13.3114 36.1913 13.2179C36.1828 13.1158 36.1786 13.0478 36.1786 13.0138C36.1786 12.9968 36.1786 12.9501 36.1786 12.8735C36.1871 12.797 36.2168 12.7588 36.2678 12.7588H45.271C45.2795 12.7588 45.3263 12.7205 45.4113 12.644C45.4963 12.559 45.5856 12.4612 45.6791 12.3507C45.7726 12.2402 45.8576 12.1339 45.9341 12.0319C46.0107 11.9214 46.0489 11.8406 46.0489 11.7896C46.0489 11.6961 45.9852 11.5685 45.8576 11.407C45.7386 11.2455 45.5813 11.0712 45.3858 10.8842C45.1903 10.6886 44.9735 10.4931 44.7354 10.2976C44.4974 10.0935 44.2636 9.91073 44.034 9.7492C43.8045 9.58767 43.592 9.4559 43.3964 9.35388C43.2009 9.25186 43.0479 9.20085 42.9373 9.20085V11.7896C42.9373 11.8831 42.8566 11.9639 42.695 12.0319C42.5335 12.0999 42.3465 12.1552 42.1339 12.1977C41.9299 12.2317 41.7344 12.2572 41.5473 12.2742C41.3603 12.2912 41.2413 12.2997 41.1903 12.2997C41.1392 12.2997 41.0967 12.2954 41.0627 12.2869C41.0287 12.2784 40.9862 12.2529 40.9352 12.2104C40.9352 12.1339 40.931 11.9936 40.9225 11.7896C40.914 11.5855 40.9054 11.373 40.8969 11.152C40.8884 10.9224 40.8799 10.7099 40.8714 10.5143C40.8629 10.3103 40.8587 10.1658 40.8587 10.0808V10.0425C40.8587 9.95749 40.8629 9.86823 40.8714 9.77471C40.8799 9.67269 40.8969 9.58342 40.9225 9.50691C40.9565 9.42189 41.0032 9.35388 41.0627 9.30287C41.1307 9.25186 41.2158 9.22636 41.3178 9.22636C41.4963 9.22636 41.6663 9.27311 41.8279 9.36663C41.9979 9.45165 42.1722 9.49415 42.3507 9.49415C42.4187 9.49415 42.4697 9.48565 42.5037 9.46865C42.5463 9.44315 42.5675 9.39214 42.5675 9.31562C42.5675 9.25611 42.4995 9.20085 42.3635 9.14984C42.2359 9.09883 42.0829 9.05207 41.9044 9.00956C41.7344 8.95855 41.5643 8.9118 41.3943 8.86929C41.2243 8.81828 41.101 8.77152 41.0245 8.72901C40.9565 8.6865 40.9097 8.661 40.8842 8.6525C40.8672 8.644 40.8289 8.63974 40.7694 8.63974H40.6802C40.7227 8.69075 40.7482 8.73326 40.7567 8.76727C40.7652 8.79277 40.7694 8.83103 40.7694 8.88204C40.7694 8.97556 40.7567 9.07758 40.7312 9.1881C40.7057 9.29862 40.6759 9.41339 40.6419 9.53241C40.6164 9.64293 40.5951 9.75345 40.5781 9.86397C40.5696 9.9745 40.5781 10.0765 40.6036 10.17C40.2381 10.3656 39.8683 10.5569 39.4942 10.7439C39.1286 10.9224 38.7545 11.0882 38.372 11.2412C37.9979 11.3858 37.6111 11.509 37.2115 11.6111C36.8204 11.7046 36.4209 11.7641 36.0128 11.7896C36.0043 11.7811 36 11.7641 36 11.7386C36 11.6961 36.1148 11.6026 36.3443 11.458C36.5739 11.305 36.8587 11.1222 37.1988 10.9097C37.5388 10.6886 37.9086 10.4421 38.3082 10.17C38.7163 9.89798 39.0904 9.61743 39.4304 9.32837C39.7705 9.03932 40.0553 8.74601 40.2848 8.44846C40.5144 8.1424 40.6291 7.85335 40.6291 7.5813H36.4209C36.4209 7.47078 36.4549 7.36876 36.5229 7.27524H36.4336L36.3061 7.36451V6.98193H45.1052C45.1988 6.98193 45.2795 6.93092 45.3475 6.82891C45.424 6.72689 45.4963 6.61637 45.5643 6.49734C45.6323 6.36982 45.7046 6.25505 45.7811 6.15303C45.8661 6.05101 45.9681 6 46.0872 6C46.2147 6 46.3592 6.05526 46.5208 6.16578C46.6823 6.2678 46.8396 6.39107 46.9926 6.5356C47.1541 6.67163 47.2986 6.8119 47.4262 6.95643C47.5622 7.09245 47.6685 7.19872 47.745 7.27524C47.609 7.24123 47.5112 7.25399 47.4517 7.3135C47.3922 7.36451 47.3454 7.45377 47.3114 7.5813H43.83L43.1541 8.3847C43.1456 8.4017 43.1414 8.43146 43.1414 8.47396C43.1414 8.58448 43.2561 8.6695 43.4857 8.72901C43.7237 8.78852 44.0128 8.84378 44.3528 8.89479C44.7014 8.9458 45.0797 9.00956 45.4878 9.08608C45.8959 9.15409 46.27 9.25611 46.61 9.39214C46.9586 9.52816 47.2476 9.7152 47.4772 9.95324C47.7152 10.1828 47.8342 10.4803 47.8342 10.8459L47.8215 11.0244C47.762 10.9139 47.7152 10.8034 47.6812 10.6929C47.6472 10.5739 47.609 10.4676 47.5664 10.3741C47.5239 10.2721 47.4644 10.1913 47.3879 10.1318C47.3114 10.0638 47.2051 10.0298 47.0691 10.0298C47.0691 10.1063 47.0819 10.1743 47.1074 10.2338C47.1329 10.2933 47.1626 10.3528 47.1966 10.4123C47.2306 10.4718 47.2604 10.5313 47.2859 10.5909C47.3114 10.6504 47.3242 10.7184 47.3242 10.7949C47.3242 10.9139 47.2986 11.0117 47.2476 11.0882C47.2051 11.1562 47.1159 11.1902 46.9798 11.1902C46.9118 11.1902 46.8566 11.1775 46.8141 11.152C46.7715 11.118 46.729 11.0882 46.6865 11.0627C46.6525 11.0287 46.6143 10.9989 46.5718 10.9734C46.5378 10.9394 46.491 10.9224 46.4315 10.9224C46.3635 10.9224 46.3082 10.9352 46.2657 10.9607C46.2232 10.9777 46.2019 11.0244 46.2019 11.101C46.2019 11.2285 46.2487 11.322 46.3422 11.3815C46.4357 11.441 46.5463 11.4835 46.6738 11.509C46.8013 11.5345 46.9331 11.5473 47.0691 11.5473C47.2051 11.5388 47.3157 11.5345 47.4007 11.5345C47.4432 11.5345 47.4772 11.5345 47.5027 11.5345C47.5282 11.526 47.5579 11.5133 47.592 11.4963C47.5409 11.5388 47.4687 11.5898 47.3752 11.6493C47.2901 11.7088 47.2051 11.7683 47.1201 11.8278C47.0351 11.8874 46.9586 11.9426 46.8906 11.9936C46.8311 12.0446 46.8013 12.0744 46.8013 12.0829V12.1211C46.8438 12.1892 46.9203 12.2614 47.0308 12.3379C47.1499 12.4145 47.2646 12.4952 47.3752 12.5802C47.4942 12.6567 47.5962 12.7375 47.6812 12.8225C47.7747 12.899 47.8215 12.9798 47.8215 13.0648V13.1796C47.7705 13.1796 47.7237 13.1626 47.6812 13.1286C47.6387 13.0946 47.5962 13.0563 47.5537 13.0138C47.5197 12.9713 47.4814 12.9331 47.4389 12.899C47.4049 12.8565 47.3624 12.8268 47.3114 12.8098C47.3114 12.8013 47.2986 12.797 47.2731 12.797C47.2136 12.797 47.1626 12.8225 47.1201 12.8735C47.0861 12.916 47.0564 12.9713 47.0308 13.0393C47.0138 13.0988 47.0011 13.1626 46.9926 13.2306C46.9841 13.2901 46.9798 13.3326 46.9798 13.3581H43.0649V15.0159H44.085C44.1786 15.0159 44.2593 14.9692 44.3273 14.8757C44.4039 14.7736 44.4719 14.6631 44.5314 14.5441C44.5994 14.4251 44.6717 14.3188 44.7482 14.2253C44.8247 14.1233 44.914 14.0723 45.016 14.0723C45.1435 14.0723 45.2838 14.1275 45.4368 14.238C45.5983 14.3401 45.7556 14.4633 45.9086 14.6079C46.0702 14.7439 46.2147 14.8842 46.3422 15.0287C46.4697 15.1732 46.5675 15.2837 46.6355 15.3603C46.542 15.5048 46.4017 15.5898 46.2147 15.6153H44.8502C44.7227 15.6153 44.5611 15.6196 44.3656 15.6281C44.1786 15.6366 43.9958 15.6451 43.8172 15.6536C43.6387 15.6621 43.4814 15.6706 43.3454 15.6791C43.2179 15.6876 43.1541 15.6918 43.1541 15.6918L43.0649 15.7811V17.4006H45.4496ZM41.9554 7.32625C41.9554 7.41977 41.9894 7.49203 42.0574 7.54304C42.1339 7.59405 42.2189 7.61955 42.3125 7.61955C42.3805 7.61955 42.44 7.5983 42.491 7.55579C42.542 7.50478 42.5675 7.44102 42.5675 7.36451C42.5675 7.24548 42.508 7.18597 42.389 7.18597L42.2997 7.19872C42.2742 7.19872 42.2147 7.21148 42.1212 7.23698C42.0362 7.25399 41.9809 7.26674 41.9554 7.27524V7.32625ZM38.8821 10.3741C39.0946 10.3741 39.2136 10.3358 39.2391 10.2593C39.2646 10.1743 39.2774 10.0255 39.2774 9.81297C39.1499 9.81297 39.0521 9.88098 38.9841 10.017C38.9161 10.1445 38.8821 10.2635 38.8821 10.3741ZM38.3847 10.5909H38.3082L38.3847 10.6801V10.5909ZM47.745 11.2795C47.7195 11.2795 47.7067 11.2625 47.7067 11.2285C47.7067 11.1945 47.7195 11.1817 47.745 11.1902C47.7705 11.1987 47.7832 11.2157 47.7832 11.2412C47.7832 11.2582 47.7705 11.271 47.745 11.2795ZM47.6175 11.4708L47.592 11.4963L47.6175 11.4708ZM42.0064 13.7407C42.0064 13.6217 41.9554 13.5069 41.8534 13.3964C41.7514 13.2774 41.6451 13.2179 41.5346 13.2179C41.5006 13.2179 41.4708 13.2221 41.4453 13.2306L41.7896 13.7407H42.0064ZM39.5835 14.4166L39.66 14.5058H39.4942L39.5835 14.4166ZM39.7492 14.6716C39.7577 14.6376 39.7875 14.6121 39.8385 14.5951L39.7492 14.7609V14.6716ZM42.389 15.271C42.389 15.1605 42.3295 15.0925 42.2104 15.0669C42.0999 15.0329 42.0022 15.0159 41.9171 15.0159C41.8746 15.0159 41.8109 15.0202 41.7259 15.0287C41.6493 15.0372 41.6111 15.0755 41.6111 15.1435C41.6111 15.1605 41.6153 15.1732 41.6238 15.1817C41.7344 15.1987 41.8619 15.22 42.0064 15.2455C42.1509 15.271 42.2785 15.3092 42.389 15.3603V15.271ZM38.3847 17.0181C38.3847 17.1456 38.4315 17.2221 38.525 17.2476C38.6185 17.2731 38.7248 17.2859 38.8438 17.2859C38.8438 17.1838 38.8183 17.0903 38.7673 17.0053C38.7248 16.9203 38.6398 16.8778 38.5123 16.8778C38.4867 16.8778 38.474 16.882 38.474 16.8905C38.44 16.899 38.4102 16.9245 38.3847 16.9671V17.0181ZM47.9108 17.4772C47.9703 17.5197 48.017 17.5622 48.051 17.6047C48.085 17.6472 48.102 17.7024 48.102 17.7705C48.0255 17.7705 47.966 17.7365 47.9235 17.6684C47.881 17.6004 47.847 17.5367 47.8215 17.4772H47.9108ZM36.3443 17.7322C36.3358 17.6897 36.3146 17.6642 36.2806 17.6557C36.2466 17.6472 36.2126 17.6429 36.1786 17.6429C36.1446 17.6429 36.1148 17.6472 36.0893 17.6557V17.7322H36.3443Z" fill="#E63946"/>
<path d="M50.518 8.222C50.4153 8.20333 50.3733 8.16133 50.392 8.096C50.42 8.03067 50.4713 7.998 50.546 7.998H53.836C53.8733 7.998 53.9247 7.95133 53.99 7.858C54.0553 7.75533 54.1253 7.648 54.2 7.536C54.284 7.41467 54.3633 7.30733 54.438 7.214C54.522 7.11133 54.5967 7.06 54.662 7.06C54.6807 7.06 54.7367 7.09733 54.83 7.172C54.9233 7.23733 55.026 7.31667 55.138 7.41C55.25 7.50333 55.3527 7.592 55.446 7.676C55.5487 7.75067 55.6187 7.802 55.656 7.83C55.6747 7.83 55.6887 7.83467 55.698 7.844C55.7167 7.844 55.7353 7.844 55.754 7.844C55.7913 7.844 55.81 7.81133 55.81 7.746C55.8193 7.67133 55.824 7.59667 55.824 7.522C55.824 7.438 55.824 7.36333 55.824 7.298C55.8333 7.22333 55.8567 7.186 55.894 7.186C55.978 7.186 56.0853 7.21867 56.216 7.284C56.356 7.34 56.5053 7.40533 56.664 7.48C56.8227 7.54533 56.986 7.61067 57.154 7.676C57.322 7.732 57.476 7.76 57.616 7.76C57.6347 7.76 57.6627 7.75067 57.7 7.732C57.7467 7.71333 57.7793 7.69933 57.798 7.69L57.84 7.606C57.8493 7.44733 57.868 7.29333 57.896 7.144C57.924 6.98533 57.938 6.82667 57.938 6.668C57.938 6.63067 57.9333 6.58867 57.924 6.542C57.924 6.486 57.896 6.458 57.84 6.458H51.274L51.176 6.416C51.1387 6.36933 51.134 6.32733 51.162 6.29C51.1993 6.24333 51.2413 6.22 51.288 6.22H53.304C53.3413 6.22 53.3927 6.18267 53.458 6.108C53.5233 6.024 53.5887 5.93067 53.654 5.828C53.7287 5.716 53.7987 5.61333 53.864 5.52C53.9293 5.41733 53.9853 5.34267 54.032 5.296L54.102 5.268C54.1487 5.27733 54.2327 5.33333 54.354 5.436C54.4753 5.53867 54.606 5.65067 54.746 5.772C54.886 5.89333 55.0167 6.00533 55.138 6.108C55.2593 6.21067 55.3433 6.262 55.39 6.262H61.102C61.1767 6.262 61.256 6.21533 61.34 6.122C61.4333 6.01933 61.522 5.912 61.606 5.8C61.6993 5.67867 61.7833 5.562 61.858 5.45C61.942 5.338 62.0213 5.268 62.096 5.24C62.1613 5.268 62.25 5.324 62.362 5.408C62.4833 5.492 62.6047 5.58533 62.726 5.688C62.8567 5.79067 62.9827 5.89333 63.104 5.996C63.2253 6.09867 63.3233 6.178 63.398 6.234L63.44 6.304L63.412 6.388L63.384 6.416L63.286 6.458H61.158C61.0647 6.458 61.018 6.50467 61.018 6.598C61.018 6.63533 61.0133 6.70533 61.004 6.808C61.004 6.91067 61.004 7.018 61.004 7.13C61.004 7.242 61.004 7.34467 61.004 7.438C61.0133 7.53133 61.0273 7.58733 61.046 7.606C61.0647 7.62467 61.0833 7.648 61.102 7.676C61.13 7.704 61.1533 7.72733 61.172 7.746L61.228 7.76C61.3213 7.75067 61.4193 7.70867 61.522 7.634C61.634 7.55933 61.7367 7.48 61.83 7.396C61.9233 7.312 62.0073 7.23733 62.082 7.172C62.1567 7.09733 62.208 7.06 62.236 7.06C62.2733 7.06 62.3527 7.10667 62.474 7.2C62.6047 7.284 62.7353 7.382 62.866 7.494C63.006 7.606 63.1273 7.71333 63.23 7.816C63.3327 7.91867 63.384 7.98867 63.384 8.026C63.384 8.10067 63.3373 8.16133 63.244 8.208C63.16 8.24533 63.118 8.306 63.118 8.39V10.098C63.118 10.1447 63.0667 10.1913 62.964 10.238C62.8613 10.2753 62.7447 10.3173 62.614 10.364C62.4927 10.4013 62.3807 10.4433 62.278 10.49C62.1753 10.5273 62.124 10.5647 62.124 10.602C62.124 10.658 62.1707 10.728 62.264 10.812C62.3573 10.8867 62.4553 10.9613 62.558 11.036C62.67 11.1107 62.7727 11.1807 62.866 11.246C62.9593 11.3113 63.006 11.3627 63.006 11.4C63.006 11.4653 62.9593 11.5213 62.866 11.568C62.782 11.6053 62.74 11.666 62.74 11.75V14.382C62.74 14.4193 62.7213 14.4567 62.684 14.494C62.656 14.5313 62.6187 14.5687 62.572 14.606C62.5347 14.634 62.4973 14.662 62.46 14.69C62.432 14.718 62.418 14.746 62.418 14.774C62.418 14.83 62.46 14.9047 62.544 14.998C62.6373 15.0913 62.74 15.1893 62.852 15.292C62.964 15.3947 63.0713 15.4927 63.174 15.586C63.286 15.6793 63.3653 15.7493 63.412 15.796C63.4213 15.8053 63.4353 15.8193 63.454 15.838C63.4727 15.8567 63.4773 15.8753 63.468 15.894C63.44 15.9407 63.412 15.9687 63.384 15.978C63.3653 15.978 63.3327 15.978 63.286 15.978H60.752C60.7053 15.978 60.682 15.964 60.682 15.936C60.794 15.8987 60.92 15.8567 61.06 15.81C61.2093 15.7633 61.3493 15.7073 61.48 15.642C61.62 15.5673 61.732 15.4787 61.816 15.376C61.9093 15.2733 61.956 15.1427 61.956 14.984C61.956 14.9093 61.9327 14.858 61.886 14.83C61.8393 14.802 61.7787 14.788 61.704 14.788C61.6387 14.7787 61.5687 14.7787 61.494 14.788C61.4287 14.7973 61.3727 14.802 61.326 14.802C61.2607 14.802 61.2187 14.774 61.2 14.718C61.1813 14.662 61.158 14.606 61.13 14.55C61.1113 14.4847 61.074 14.424 61.018 14.368C60.962 14.312 60.8593 14.284 60.71 14.284C60.6353 14.284 60.556 14.2933 60.472 14.312C60.3973 14.3213 60.36 14.3773 60.36 14.48V17.84C60.36 17.9427 60.29 18.022 60.15 18.078C60.0193 18.1433 59.8653 18.19 59.688 18.218C59.52 18.2553 59.3473 18.2787 59.17 18.288C59.002 18.2973 58.8807 18.302 58.806 18.302H58.792C58.7453 18.2833 58.7173 18.2647 58.708 18.246C58.6987 18.2273 58.6893 18.1947 58.68 18.148C58.6613 18.0547 58.652 17.9613 58.652 17.868C58.652 17.7747 58.6473 17.6813 58.638 17.588C58.6193 17.3173 58.6053 17.0513 58.596 16.79C58.5867 16.5193 58.582 16.2487 58.582 15.978V14.48C58.582 14.4333 58.54 14.3913 58.456 14.354C58.3813 14.3167 58.3207 14.298 58.274 14.298C58.1807 14.298 58.078 14.3447 57.966 14.438C57.854 14.522 57.728 14.6153 57.588 14.718C57.4573 14.8207 57.308 14.9187 57.14 15.012C56.9813 15.096 56.7993 15.138 56.594 15.138C56.5567 15.138 56.496 15.138 56.412 15.138C56.3373 15.1287 56.3 15.096 56.3 15.04C56.3 14.5827 56.3 14.13 56.3 13.682C56.3093 13.2247 56.314 12.7673 56.314 12.31C56.314 12.0953 56.314 11.876 56.314 11.652C56.3233 11.428 56.3187 11.2087 56.3 10.994C56.3 10.966 56.2953 10.938 56.286 10.91C56.286 10.8727 56.286 10.84 56.286 10.812C56.258 10.784 56.2207 10.7653 56.174 10.756C56.1367 10.7373 56.0947 10.7187 56.048 10.7C56.0013 10.6813 55.9593 10.6627 55.922 10.644C55.894 10.616 55.88 10.5787 55.88 10.532V8.362C55.88 8.26867 55.8333 8.222 55.74 8.222H50.518ZM59.156 6.612C59.156 6.62133 59.1513 6.63067 59.142 6.64C59.142 6.64933 59.142 6.65867 59.142 6.668V7.578C59.142 7.64333 59.17 7.69467 59.226 7.732C59.282 7.76 59.3427 7.77867 59.408 7.788C59.4827 7.788 59.548 7.77867 59.604 7.76C59.6693 7.74133 59.702 7.70867 59.702 7.662V6.654C59.702 6.56067 59.66 6.514 59.576 6.514C59.5107 6.514 59.436 6.51867 59.352 6.528C59.268 6.53733 59.2027 6.56533 59.156 6.612ZM57.84 8.138C57.84 8.07267 57.8073 8.03067 57.742 8.012C57.686 7.99333 57.6207 7.98867 57.546 7.998C57.4807 8.00733 57.42 8.026 57.364 8.054C57.308 8.082 57.28 8.11 57.28 8.138V9.538C57.28 9.61267 57.308 9.66867 57.364 9.706C57.42 9.734 57.4807 9.748 57.546 9.748C57.6207 9.748 57.686 9.73867 57.742 9.72C57.8073 9.692 57.84 9.65933 57.84 9.622V8.138ZM59.702 8.138C59.702 8.07267 59.6693 8.03067 59.604 8.012C59.548 7.99333 59.4827 7.98867 59.408 7.998C59.3427 8.00733 59.282 8.026 59.226 8.054C59.17 8.082 59.142 8.11 59.142 8.138V9.622C59.142 9.65933 59.17 9.692 59.226 9.72C59.282 9.73867 59.3427 9.748 59.408 9.748C59.4827 9.748 59.548 9.73867 59.604 9.72C59.6693 9.70133 59.702 9.66867 59.702 9.622V8.138ZM61.578 8.18C61.578 8.07733 61.522 8.03067 61.41 8.04C61.3073 8.04 61.2233 8.04 61.158 8.04C61.0647 8.04 61.018 8.08667 61.018 8.18V9.622C61.018 9.65933 61.046 9.692 61.102 9.72C61.158 9.73867 61.2187 9.748 61.284 9.748C61.3587 9.748 61.424 9.73867 61.48 9.72C61.5453 9.70133 61.578 9.66867 61.578 9.622V8.18ZM51.19 10C51.1433 10 51.12 9.97667 51.12 9.93C51.12 9.88333 51.1433 9.86 51.19 9.86H53.304C53.3413 9.86 53.3927 9.81333 53.458 9.72C53.5327 9.62667 53.6073 9.524 53.682 9.412C53.7567 9.3 53.836 9.19267 53.92 9.09C54.004 8.978 54.0833 8.908 54.158 8.88C54.2233 8.89867 54.3073 8.95 54.41 9.034C54.5127 9.10867 54.62 9.202 54.732 9.314C54.844 9.41667 54.9467 9.51933 55.04 9.622C55.1427 9.71533 55.222 9.79 55.278 9.846L55.292 9.902L55.264 9.958L55.166 10H51.19ZM57.42 10.042C57.3453 10.1167 57.2613 10.21 57.168 10.322C57.0747 10.4247 57.0233 10.5273 57.014 10.63C57.042 10.686 57.098 10.742 57.182 10.798C57.266 10.854 57.3593 10.9053 57.462 10.952C57.574 10.9987 57.6813 11.0407 57.784 11.078C57.8867 11.106 57.966 11.12 58.022 11.12H60.92C61.004 11.12 61.0833 11.0873 61.158 11.022C61.242 10.9473 61.312 10.8587 61.368 10.756C61.4333 10.6533 61.4847 10.546 61.522 10.434C61.5593 10.322 61.578 10.2287 61.578 10.154C61.578 10.126 61.5733 10.0933 61.564 10.056C61.5547 10.0187 61.5267 10 61.48 10H57.518L57.42 10.042ZM54.242 10.77C54.2793 10.8073 54.354 10.8773 54.466 10.98C54.578 11.0733 54.6947 11.176 54.816 11.288C54.9373 11.3907 55.0447 11.4887 55.138 11.582C55.2407 11.6753 55.292 11.736 55.292 11.764C55.292 11.792 55.2827 11.8153 55.264 11.834C55.2453 11.8433 55.1427 11.8527 54.956 11.862C54.7693 11.8713 54.536 11.876 54.256 11.876C53.9853 11.876 53.6867 11.876 53.36 11.876C53.0333 11.876 52.7207 11.876 52.422 11.876C52.1327 11.8667 51.8713 11.862 51.638 11.862C51.414 11.862 51.2647 11.862 51.19 11.862C51.1153 11.862 51.0687 11.8247 51.05 11.75C51.0687 11.7313 51.0873 11.722 51.106 11.722H53.262C53.374 11.722 53.4627 11.6753 53.528 11.582C53.5933 11.4887 53.654 11.3813 53.71 11.26C53.766 11.1387 53.8267 11.0267 53.892 10.924C53.9573 10.8213 54.046 10.7607 54.158 10.742L54.242 10.77ZM57.84 13.962C57.84 14.0553 57.8867 14.102 57.98 14.102H60.962C61.0553 14.102 61.102 14.0553 61.102 13.962V11.442C61.102 11.3487 61.0553 11.302 60.962 11.302H58.078C58.0313 11.302 57.98 11.3347 57.924 11.4C57.868 11.456 57.84 11.5073 57.84 11.554V13.962ZM58.176 12.758L58.148 12.716C58.1573 12.7067 58.1713 12.702 58.19 12.702C58.246 12.702 58.344 12.702 58.484 12.702C58.6333 12.702 58.8013 12.702 58.988 12.702C59.1747 12.6927 59.3707 12.688 59.576 12.688C59.7813 12.688 59.9727 12.6927 60.15 12.702C60.3273 12.702 60.472 12.702 60.584 12.702C60.7053 12.702 60.7753 12.7067 60.794 12.716C60.7753 12.772 60.7333 12.8 60.668 12.8H58.274L58.176 12.758ZM53.598 13.878L53.5 13.78L53.402 13.738H52.562C52.4687 13.738 52.422 13.7847 52.422 13.878V16.72C52.422 16.7947 52.464 16.8413 52.548 16.86C52.6413 16.8787 52.7393 16.888 52.842 16.888C52.954 16.8787 53.0567 16.874 53.15 16.874C53.2527 16.8647 53.3133 16.8693 53.332 16.888C53.332 16.9627 53.2807 17 53.178 17C53.0847 17 52.9773 17 52.856 17C52.7347 16.9907 52.6227 16.9907 52.52 17C52.4267 17.0093 52.38 17.056 52.38 17.14V17.84C52.38 17.9147 52.3193 17.9753 52.198 18.022C52.086 18.0687 51.9553 18.106 51.806 18.134C51.6567 18.162 51.5073 18.1807 51.358 18.19C51.218 18.2087 51.12 18.218 51.064 18.218C50.98 18.218 50.9333 18.1807 50.924 18.106C50.924 18.0407 50.924 17.98 50.924 17.924C50.924 17.1027 50.91 16.286 50.882 15.474C50.854 14.6527 50.84 13.8313 50.84 13.01C50.84 12.926 50.8867 12.884 50.98 12.884C51.1387 12.884 51.2973 12.9213 51.456 12.996C51.6147 13.0707 51.778 13.15 51.946 13.234C52.114 13.318 52.282 13.3973 52.45 13.472C52.6273 13.5467 52.8093 13.584 52.996 13.584C53.0613 13.584 53.122 13.584 53.178 13.584C53.2433 13.5747 53.304 13.5607 53.36 13.542C53.4067 13.5233 53.4673 13.4767 53.542 13.402C53.6167 13.318 53.6913 13.2293 53.766 13.136C53.85 13.0427 53.9247 12.9633 53.99 12.898C54.0647 12.8233 54.116 12.786 54.144 12.786C54.2093 12.786 54.3167 12.8327 54.466 12.926C54.6247 13.01 54.7787 13.1127 54.928 13.234C55.0867 13.3553 55.222 13.4767 55.334 13.598C55.4553 13.7193 55.516 13.8127 55.516 13.878C55.516 13.906 55.4973 13.9293 55.46 13.948C55.4227 13.9667 55.3807 13.9853 55.334 14.004C55.2967 14.0227 55.2593 14.046 55.222 14.074C55.194 14.0927 55.18 14.1207 55.18 14.158V17.462C55.18 17.546 55.1193 17.616 54.998 17.672C54.8767 17.7373 54.7367 17.7887 54.578 17.826C54.4193 17.8727 54.2607 17.9053 54.102 17.924C53.9527 17.952 53.8453 17.966 53.78 17.966C53.6867 17.966 53.64 17.9193 53.64 17.826V13.976L53.598 13.878ZM58.274 15.964C58.2647 15.964 58.1993 15.9687 58.078 15.978C57.9567 15.9873 57.8027 15.9967 57.616 16.006C57.4387 16.006 57.2427 16.0107 57.028 16.02C56.8227 16.0293 56.6267 16.0387 56.44 16.048C56.2627 16.0573 56.1087 16.062 55.978 16.062C55.8567 16.062 55.7913 16.062 55.782 16.062C55.726 16.0433 55.6933 16.0107 55.684 15.964C55.6747 15.908 55.7073 15.88 55.782 15.88H58.148C58.2133 15.88 58.2553 15.908 58.274 15.964Z" fill="#FDFDFD"/>
</svg>
