<svg width="120" height="120" viewBox="0 0 120 120" fill="none" xmlns="http://www.w3.org/2000/svg">
<rect x="1" y="1" width="118" height="118" rx="7" stroke="#FDFDFD" stroke-width="2"/>
<path d="M18.9688 30.25C18.8333 31.875 17.9531 32.7552 16.3281 32.8906C14.8385 33.026 13.9583 32.349 13.6875 30.8594C13.1458 28.2865 12.5365 26.5938 11.8594 25.7812C9.69271 24.1562 9.69271 23.4115 11.8594 23.5469C14.1615 23.9531 15.9896 24.8333 17.3438 26.1875C18.5625 27.2708 19.1042 28.625 18.9688 30.25ZM52.6875 25.9844L57.3594 30.4531C58.1719 31.401 58.0365 32.0104 56.9531 32.2812H23.2344L19.7812 43.8594C19.5104 44.6719 19.375 45.2812 19.375 45.6875C19.5104 46.3646 19.7812 47.9219 20.1875 50.3594C20.5938 52.526 20.6615 54.0833 20.3906 55.0312C19.7135 57.1979 18.4948 58.0104 16.7344 57.4688C15.2448 57.0625 14.5 56.25 14.5 55.0312C14.5 54.8958 14.6354 53.4062 14.9062 50.5625C15.1771 48.5312 15.0417 47.0417 14.5 46.0938C13.9583 45.4167 12.9427 44.875 11.4531 44.4688C10.6406 44.3333 10.5052 43.9948 11.0469 43.4531C11.3177 43.1823 12.6719 43.1146 15.1094 43.25L25.875 19.2812C26.6875 18.3333 27.026 18.4688 26.8906 19.6875L23.4375 30.8594H28.9219V15.625L34.8125 16.6406C35.7604 17.0469 35.8281 17.7917 35.0156 18.875L34.2031 19.4844V30.8594H38.4688V11.1562L44.9688 11.9688C46.0521 12.375 46.1198 13.1198 45.1719 14.2031L44.1562 14.8125V21.1094H47.4062L50.6562 16.6406L54.9219 20.7031C55.7344 21.651 55.599 22.2604 54.5156 22.5312H44.1562V30.8594H49.2344L52.6875 25.9844ZM17.1406 18.875C16.4635 15.8958 15.5833 14 14.5 13.1875L13.8906 12.7812C12.8073 12.1042 13.2812 11.901 15.3125 12.1719C18.9688 12.7135 21.2708 14.1354 22.2188 16.4375C23.0312 18.875 22.4896 20.5 20.5938 21.3125C18.6979 21.8542 17.5469 21.0417 17.1406 18.875ZM22.4219 51.5781C26.349 49.6823 29.125 48.1927 30.75 47.1094C33.8646 45.2135 36.0312 43.7917 37.25 42.8438C39.0104 41.8958 39.2135 42.3698 37.8594 44.2656C37.3177 44.9427 36.8438 45.4844 36.4375 45.8906C34 48.7344 31.4948 51.375 28.9219 53.8125L28.5156 56.0469C28.2448 57.1302 27.5677 57.1979 26.4844 56.25L22.4219 51.5781ZM35.0156 39.1875C35.6927 41.8958 34.9479 43.3854 32.7812 43.6562C31.0208 44.0625 30.0052 43.3177 29.7344 41.4219C29.1927 38.4427 28.2448 36.3438 26.8906 35.125C25.5365 34.0417 25.6042 33.5677 27.0938 33.7031C31.6979 34.7865 34.3385 36.6146 35.0156 39.1875ZM46.1875 49.1406C44.9688 48.0573 43.5469 47.0417 41.9219 46.0938C39.7552 44.875 39.4167 44.3333 40.9062 44.4688C47.4062 45.0104 52.0781 46.974 54.9219 50.3594C56.0052 51.5781 56.4115 52.9323 56.1406 54.4219C55.3281 56.5885 53.8385 57.1302 51.6719 56.0469C51.2656 55.6406 50.724 54.8958 50.0469 53.8125C49.2344 52.3229 47.9479 50.7656 46.1875 49.1406ZM51.4688 39.3906C46.1875 42.099 43.1406 43.5885 42.3281 43.8594C41.5156 44.1302 41.5833 43.5885 42.5312 42.2344C44.8333 39.7969 47.2031 36.6146 49.6406 32.6875L53.9062 36.75C55.2604 38.1042 55.0573 38.9167 53.2969 39.1875L51.4688 39.3906Z" fill="#FDFDFD"/>
<path d="M71.5781 39.7969C69.9531 40.7448 68.3958 41.5573 66.9062 42.2344C64.7396 43.1823 63.3177 43.724 62.6406 43.8594C61.9635 43.8594 61.8958 43.5885 62.4375 43.0469C67.1771 40.3385 71.375 36.6146 75.0312 31.875C78.0104 28.0833 80.7188 23.2083 83.1562 17.25L89.4531 20.0938C90.5365 21.0417 90.4688 21.8542 89.25 22.5312L88.4375 22.7344C90.1979 25.3073 92.7031 27.6771 95.9531 29.8438C99.2031 31.875 104.146 33.7708 110.781 35.5312C109.562 36.4792 108.547 37.4271 107.734 38.375C107.057 39.1875 106.448 40.2031 105.906 41.4219C102.385 39.6615 99.5417 37.901 97.375 36.1406C95.6146 34.651 93.651 32.6875 91.4844 30.25C90.2656 28.7604 88.776 26.526 87.0156 23.5469C85.526 26.1198 83.6979 28.6927 81.5312 31.2656C79.9062 33.2969 77.9427 35.2604 75.6406 37.1562L77.2656 38.1719H93.1094L95.1406 34.9219L100.219 39.7969C100.76 40.3385 100.693 40.9479 100.016 41.625L99.2031 42.2344V55.0312C99.2031 55.7083 99 56.1146 98.5938 56.25C97.1042 56.6562 95.6823 56.7917 94.3281 56.6562C93.7865 56.5208 93.5156 56.25 93.5156 55.8438V53.8125H77.2656V56.0469C77.2656 56.5885 77.0625 56.9271 76.6562 57.0625C75.0312 57.4688 73.6771 57.6719 72.5938 57.6719C71.9167 57.6719 71.5781 57.401 71.5781 56.8594V39.7969ZM77.2656 39.5938V52.3906H93.5156V39.5938H77.2656ZM77.4688 18.2656C74.3542 21.7865 71.1719 24.6302 67.9219 26.7969C64.6719 28.9635 62.8438 29.9792 62.4375 29.8438C62.0312 29.7083 62.2344 29.2344 63.0469 28.4219C64.6719 26.9323 66.2969 25.0365 67.9219 22.7344C69.8177 20.1615 71.9167 16.4375 74.2188 11.5625L79.9062 15.4219C81.3958 16.5052 81.1927 17.3177 79.2969 17.8594L77.4688 18.2656ZM89.8594 13.5938C88.9115 13.1875 89.1146 12.849 90.4688 12.5781C92.3646 12.7135 94.9375 13.3906 98.1875 14.6094C104.417 16.9115 107.531 20.026 107.531 23.9531C107.531 24.901 107.193 25.7135 106.516 26.3906C105.839 27.0677 104.958 27.2708 103.875 27C103.333 26.8646 102.656 26.2552 101.844 25.1719C101.438 24.6302 101.031 24.0208 100.625 23.3438C97.375 18.7396 93.7865 15.4896 89.8594 13.5938Z" fill="#FDFDFD"/>
<rect width="52" height="52" transform="translate(8 60)" fill="#FDFDFD"/>
<path d="M46.984 106.328C47.24 106.328 47.528 106.152 47.848 105.8C48.168 105.48 48.488 105.096 48.808 104.648C49.128 104.2 49.432 103.768 49.72 103.352C50.008 102.936 50.264 102.648 50.488 102.488C50.488 102.456 50.536 102.44 50.632 102.44C51.048 102.44 51.496 102.584 51.976 102.872C52.456 103.16 52.92 103.512 53.368 103.928C53.816 104.344 54.232 104.76 54.616 105.176C55.032 105.624 55.368 106.008 55.624 106.328H55.432C55.176 106.328 54.936 106.28 54.712 106.184C54.52 106.12 54.28 106.088 53.992 106.088V108.536H40.888C40.696 108.536 40.52 108.344 40.36 107.96C40.232 107.608 40.088 107.384 39.928 107.288L38.632 108.536H24.904C24.744 108.536 24.632 108.456 24.568 108.296C24.504 108.168 24.44 108.008 24.376 107.816C24.344 107.656 24.296 107.48 24.232 107.288C24.168 107.128 24.072 107.016 23.944 106.952L23.608 108.248C23.576 108.28 23.512 108.328 23.416 108.392C23.352 108.488 23.304 108.536 23.272 108.536H16.264C16.04 108.536 15.864 108.344 15.736 107.96C15.608 107.608 15.464 107.384 15.304 107.288C15.112 107.352 15 107.432 14.968 107.528C14.968 107.656 14.968 107.784 14.968 107.912C14.968 108.04 14.952 108.152 14.92 108.248C14.92 108.376 14.824 108.472 14.632 108.536L13.384 108.584C12.52 108.584 11.912 108.456 11.56 108.2C11.208 107.976 11.032 107.4 11.032 106.472H17.848L18.328 105.992V93.416C19.704 93.416 21.064 93.448 22.408 93.512C23.752 93.576 25.112 93.688 26.488 93.848C26.776 93.816 26.952 93.864 27.016 93.992C27.112 94.12 27.16 94.28 27.16 94.472C27.16 94.6 27.144 94.712 27.112 94.808C27.048 94.584 26.872 94.424 26.584 94.328C26.328 94.232 26.024 94.168 25.672 94.136C25.352 94.104 25.016 94.104 24.664 94.136C24.344 94.136 24.104 94.136 23.944 94.136H22.648C22.36 94.328 22.168 94.568 22.072 94.856C22.008 95.144 21.976 95.448 21.976 95.768C21.976 96.216 22.072 96.616 22.264 96.968C22.488 97.288 22.712 97.608 22.936 97.928C23.16 98.248 23.352 98.584 23.512 98.936C23.672 99.288 23.704 99.72 23.608 100.232C23.864 99.912 24.184 99.608 24.568 99.32C24.984 99.032 25.352 98.808 25.672 98.648V106.328H29.992V91.112H12.424C12.264 91.112 12.168 90.936 12.136 90.584C12.104 90.2 12.088 89.944 12.088 89.816C12.088 89.752 12.088 89.576 12.088 89.288C12.12 89 12.232 88.856 12.424 88.856H46.312C46.344 88.856 46.52 88.712 46.84 88.424C47.16 88.104 47.496 87.736 47.848 87.32C48.2 86.904 48.52 86.504 48.808 86.12C49.096 85.704 49.24 85.4 49.24 85.208C49.24 84.856 49 84.376 48.52 83.768C48.072 83.16 47.48 82.504 46.744 81.8C46.008 81.064 45.192 80.328 44.296 79.592C43.4 78.824 42.52 78.136 41.656 77.528C40.792 76.92 39.992 76.424 39.256 76.04C38.52 75.656 37.944 75.464 37.528 75.464V85.208C37.528 85.56 37.224 85.864 36.616 86.12C36.008 86.376 35.304 86.584 34.504 86.744C33.736 86.872 33 86.968 32.296 87.032C31.592 87.096 31.144 87.128 30.952 87.128C30.76 87.128 30.6 87.112 30.472 87.08C30.344 87.048 30.184 86.952 29.992 86.792C29.992 86.504 29.976 85.976 29.944 85.208C29.912 84.44 29.88 83.64 29.848 82.808C29.816 81.944 29.784 81.144 29.752 80.408C29.72 79.64 29.704 79.096 29.704 78.776V78.632C29.704 78.312 29.72 77.976 29.752 77.624C29.784 77.24 29.848 76.904 29.944 76.616C30.072 76.296 30.248 76.04 30.472 75.848C30.728 75.656 31.048 75.56 31.432 75.56C32.104 75.56 32.744 75.736 33.352 76.088C33.992 76.408 34.648 76.568 35.32 76.568C35.576 76.568 35.768 76.536 35.896 76.472C36.056 76.376 36.136 76.184 36.136 75.896C36.136 75.672 35.88 75.464 35.368 75.272C34.888 75.08 34.312 74.904 33.64 74.744C33 74.552 32.36 74.376 31.72 74.216C31.08 74.024 30.616 73.848 30.328 73.688C30.072 73.528 29.896 73.432 29.8 73.4C29.736 73.368 29.592 73.352 29.368 73.352H29.032C29.192 73.544 29.288 73.704 29.32 73.832C29.352 73.928 29.368 74.072 29.368 74.264C29.368 74.616 29.32 75 29.224 75.416C29.128 75.832 29.016 76.264 28.888 76.712C28.792 77.128 28.712 77.544 28.648 77.96C28.616 78.376 28.648 78.76 28.744 79.112C27.368 79.848 25.976 80.568 24.568 81.272C23.192 81.944 21.784 82.568 20.344 83.144C18.936 83.688 17.48 84.152 15.976 84.536C14.504 84.888 13 85.112 11.464 85.208C11.432 85.176 11.416 85.112 11.416 85.016C11.416 84.856 11.848 84.504 12.712 83.96C13.576 83.384 14.648 82.696 15.928 81.896C17.208 81.064 18.6 80.136 20.104 79.112C21.64 78.088 23.048 77.032 24.328 75.944C25.608 74.856 26.68 73.752 27.544 72.632C28.408 71.48 28.84 70.392 28.84 69.368H13C13 68.952 13.128 68.568 13.384 68.216H13.048L12.568 68.552V67.112H45.688C46.04 67.112 46.344 66.92 46.6 66.536C46.888 66.152 47.16 65.736 47.416 65.288C47.672 64.808 47.944 64.376 48.232 63.992C48.552 63.608 48.936 63.416 49.384 63.416C49.864 63.416 50.408 63.624 51.016 64.04C51.624 64.424 52.216 64.888 52.792 65.432C53.4 65.944 53.944 66.472 54.424 67.016C54.936 67.528 55.336 67.928 55.624 68.216C55.112 68.088 54.744 68.136 54.52 68.36C54.296 68.552 54.12 68.888 53.992 69.368H40.888L38.344 72.392C38.312 72.456 38.296 72.568 38.296 72.728C38.296 73.144 38.728 73.464 39.592 73.688C40.488 73.912 41.576 74.12 42.856 74.312C44.168 74.504 45.592 74.744 47.128 75.032C48.664 75.288 50.072 75.672 51.352 76.184C52.664 76.696 53.752 77.4 54.616 78.296C55.512 79.16 55.96 80.28 55.96 81.656L55.912 82.328C55.688 81.912 55.512 81.496 55.384 81.08C55.256 80.632 55.112 80.232 54.952 79.88C54.792 79.496 54.568 79.192 54.28 78.968C53.992 78.712 53.592 78.584 53.08 78.584C53.08 78.872 53.128 79.128 53.224 79.352C53.32 79.576 53.432 79.8 53.56 80.024C53.688 80.248 53.8 80.472 53.896 80.696C53.992 80.92 54.04 81.176 54.04 81.464C54.04 81.912 53.944 82.28 53.752 82.568C53.592 82.824 53.256 82.952 52.744 82.952C52.488 82.952 52.28 82.904 52.12 82.808C51.96 82.68 51.8 82.568 51.64 82.472C51.512 82.344 51.368 82.232 51.208 82.136C51.08 82.008 50.904 81.944 50.68 81.944C50.424 81.944 50.216 81.992 50.056 82.088C49.896 82.152 49.816 82.328 49.816 82.616C49.816 83.096 49.992 83.448 50.344 83.672C50.696 83.896 51.112 84.056 51.592 84.152C52.072 84.248 52.568 84.296 53.08 84.296C53.592 84.264 54.008 84.248 54.328 84.248C54.488 84.248 54.616 84.248 54.712 84.248C54.808 84.216 54.92 84.168 55.048 84.104C54.856 84.264 54.584 84.456 54.232 84.68C53.912 84.904 53.592 85.128 53.272 85.352C52.952 85.576 52.664 85.784 52.408 85.976C52.184 86.168 52.072 86.28 52.072 86.312V86.456C52.232 86.712 52.52 86.984 52.936 87.272C53.384 87.56 53.816 87.864 54.232 88.184C54.68 88.472 55.064 88.776 55.384 89.096C55.736 89.384 55.912 89.688 55.912 90.008V90.44C55.72 90.44 55.544 90.376 55.384 90.248C55.224 90.12 55.064 89.976 54.904 89.816C54.776 89.656 54.632 89.512 54.472 89.384C54.344 89.224 54.184 89.112 53.992 89.048C53.992 89.016 53.944 89 53.848 89C53.624 89 53.432 89.096 53.272 89.288C53.144 89.448 53.032 89.656 52.936 89.912C52.872 90.136 52.824 90.376 52.792 90.632C52.76 90.856 52.744 91.016 52.744 91.112H38.008V97.352H41.848C42.2 97.352 42.504 97.176 42.76 96.824C43.048 96.44 43.304 96.024 43.528 95.576C43.784 95.128 44.056 94.728 44.344 94.376C44.632 93.992 44.968 93.8 45.352 93.8C45.832 93.8 46.36 94.008 46.936 94.424C47.544 94.808 48.136 95.272 48.712 95.816C49.32 96.328 49.864 96.856 50.344 97.4C50.824 97.944 51.192 98.36 51.448 98.648C51.096 99.192 50.568 99.512 49.864 99.608H44.728C44.248 99.608 43.64 99.624 42.904 99.656C42.2 99.688 41.512 99.72 40.84 99.752C40.168 99.784 39.576 99.816 39.064 99.848C38.584 99.88 38.344 99.896 38.344 99.896L38.008 100.232V106.328H46.984ZM33.832 68.408C33.832 68.76 33.96 69.032 34.216 69.224C34.504 69.416 34.824 69.512 35.176 69.512C35.432 69.512 35.656 69.432 35.848 69.272C36.04 69.08 36.136 68.84 36.136 68.552C36.136 68.104 35.912 67.88 35.464 67.88L35.128 67.928C35.032 67.928 34.808 67.976 34.456 68.072C34.136 68.136 33.928 68.184 33.832 68.216V68.408ZM22.264 79.88C23.064 79.88 23.512 79.736 23.608 79.448C23.704 79.128 23.752 78.568 23.752 77.768C23.272 77.768 22.904 78.024 22.648 78.536C22.392 79.016 22.264 79.464 22.264 79.88ZM20.392 80.696H20.104L20.392 81.032V80.696ZM55.624 83.288C55.528 83.288 55.48 83.224 55.48 83.096C55.48 82.968 55.528 82.92 55.624 82.952C55.72 82.984 55.768 83.048 55.768 83.144C55.768 83.208 55.72 83.256 55.624 83.288ZM55.144 84.008L55.048 84.104L55.144 84.008ZM34.024 92.552C34.024 92.104 33.832 91.672 33.448 91.256C33.064 90.808 32.664 90.584 32.248 90.584C32.12 90.584 32.008 90.6 31.912 90.632L33.208 92.552H34.024ZM24.904 95.096L25.192 95.432H24.568L24.904 95.096ZM25.528 96.056C25.56 95.928 25.672 95.832 25.864 95.768L25.528 96.392V96.056ZM35.464 98.312C35.464 97.896 35.24 97.64 34.792 97.544C34.376 97.416 34.008 97.352 33.688 97.352C33.528 97.352 33.288 97.368 32.968 97.4C32.68 97.432 32.536 97.576 32.536 97.832C32.536 97.896 32.552 97.944 32.584 97.976C33 98.04 33.48 98.12 34.024 98.216C34.568 98.312 35.048 98.456 35.464 98.648V98.312ZM20.392 104.888C20.392 105.368 20.568 105.656 20.92 105.752C21.272 105.848 21.672 105.896 22.12 105.896C22.12 105.512 22.024 105.16 21.832 104.84C21.672 104.52 21.352 104.36 20.872 104.36C20.776 104.36 20.728 104.376 20.728 104.408C20.6 104.44 20.488 104.536 20.392 104.696V104.888ZM56.248 106.616C56.472 106.776 56.648 106.936 56.776 107.096C56.904 107.256 56.968 107.464 56.968 107.72C56.68 107.72 56.456 107.592 56.296 107.336C56.136 107.08 56.008 106.84 55.912 106.616H56.248ZM12.712 107.576C12.68 107.416 12.6 107.32 12.472 107.288C12.344 107.256 12.216 107.24 12.088 107.24C11.96 107.24 11.848 107.256 11.752 107.288V107.576H12.712Z" fill="#E63946"/>
<path d="M75.8438 69.4531L80.3125 72.9062C81.125 73.7188 80.9896 74.2604 79.9062 74.5312H62.2344L61.625 73.1094H73.4062L75.8438 69.4531ZM68.3281 105.812V108.047C68.4635 108.995 67.5156 109.604 65.4844 109.875C64.1302 110.146 63.4531 109.807 63.4531 108.859V90.9844L68.7344 92.8125H73L74.8281 89.7656L78.8906 94.2344C79.5677 95.0469 79.5 95.6562 78.6875 96.0625L78.0781 96.2656V106.016C78.0781 106.693 77.7396 107.167 77.0625 107.438L75.6406 107.844C74.0156 108.385 73.2031 108.115 73.2031 107.031V105.812H68.3281ZM73.2031 94.2344H68.3281V104.391H73.2031V94.2344ZM63.4531 86.3125H73L75.4375 82.8594L79.2969 86.3125C79.974 86.9896 79.8385 87.4635 78.8906 87.7344H63.4531V86.3125ZM63.4531 81.0312V79.6094H72.3906L74.8281 76.3594L78.2812 79.6094C78.9583 80.2865 78.8229 80.7604 77.875 81.0312H63.4531ZM63.4531 67.8281V66.4062H71.9844L74.625 63.1562L78.8906 66.4062C79.5677 67.0833 79.3646 67.5573 78.2812 67.8281H63.4531ZM91.8906 100.531H79.5L79.0938 99.1094H91.8906V95.4531H87.625V96.0625C87.625 96.6042 87.4219 96.9427 87.0156 97.0781C86.3385 97.4844 85.1875 97.6875 83.5625 97.6875C83.0208 97.5521 82.75 97.2135 82.75 96.6719V83.875C81.8021 83.875 81.3281 83.4688 81.3281 82.6562V71.2812L86.4062 73.1094H89.4531V67.8281H80.3125L79.5 66.4062H103.266L105.906 62.5469L110.375 66.4062C111.188 67.2188 111.052 67.7604 109.969 68.0312L100.422 67.8281V73.1094H103.266L105.094 70.2656L109.359 74.3281C110.036 75.0052 109.969 75.5469 109.156 75.9531L108.547 76.1562V81.2344C108.547 82.0469 107.734 82.5208 106.109 82.6562C105.568 82.7917 104.958 82.8594 104.281 82.8594C103.875 82.8594 103.672 82.5208 103.672 81.8438V81.0312H86.2031V81.8438C86.2031 82.6562 85.7292 83.1979 84.7812 83.4688L88.4375 84.8906H100.828L102.656 82.0469L107.125 86.3125C107.802 86.9896 107.734 87.5312 106.922 87.9375L106.516 88.1406V95.4531L110.578 98.9062C111.255 99.7188 111.12 100.26 110.172 100.531H96.7656V108.047C96.7656 108.589 96.4948 108.995 95.9531 109.266C95.1406 109.536 94.0573 109.807 92.7031 110.078C92.1615 109.943 91.8906 109.604 91.8906 109.062V100.531ZM86.2031 79.6094H89.4531V74.5312H86.2031V79.6094ZM87.625 90.7812V94.0312H101.641V90.7812H87.625ZM87.625 89.3594H101.641V86.3125H87.625V89.3594ZM93.5156 79.6094H96.3594V74.5312H93.5156V79.6094ZM93.5156 67.8281V73.1094H96.3594V67.8281H93.5156ZM96.7656 99.1094H103.266L105.5 96.0625C104.552 96.3333 103.672 96.5365 102.859 96.6719C102.047 96.8073 101.641 96.5365 101.641 95.8594V95.4531H96.7656V99.1094ZM100.422 79.6094H103.672V74.5312H100.422V79.6094Z" fill="#FDFDFD"/>
</svg>
