<svg width="120" height="120" viewBox="0 0 120 120" fill="none" xmlns="http://www.w3.org/2000/svg">
<rect x="1" y="1" width="118" height="118" rx="7" stroke="#FDFDFD" stroke-width="2"/>
<path d="M23.444 30.236L23.808 30.08H28.28C28.6267 30.08 28.8 29.9067 28.8 29.56V15C28.8 14.6533 28.9733 14.48 29.32 14.48C30.2907 14.48 31.244 14.5667 32.18 14.74C33.1507 14.8787 34.1213 15.0173 35.092 15.156C35.3347 15.156 35.456 15.2427 35.456 15.416C35.456 15.5893 35.3867 15.7453 35.248 15.884C35.1093 16.0227 35.04 16.1787 35.04 16.352V29.56C35.04 29.9067 35.2133 30.08 35.56 30.08C35.6987 30.08 35.9587 30.0973 36.34 30.132C36.756 30.1667 37.172 30.184 37.588 30.184C38.004 30.184 38.368 30.1493 38.68 30.08C39.0267 29.976 39.2 29.8027 39.2 29.56V10.892C39.2 10.5453 39.3907 10.372 39.772 10.372C39.98 10.372 40.4133 10.372 41.072 10.372C41.7653 10.372 42.476 10.4067 43.204 10.476C43.932 10.5453 44.5733 10.6493 45.128 10.788C45.6827 10.9267 45.96 11.1347 45.96 11.412C45.96 11.6547 45.8733 11.8453 45.7 11.984C45.5613 12.088 45.492 12.2787 45.492 12.556V29.612L45.648 29.924L46.012 30.08C46.428 30.08 46.8267 30.08 47.208 30.08C47.5893 30.08 47.9533 30.0453 48.3 29.976C48.6467 29.9067 48.9587 29.7853 49.236 29.612C49.548 29.404 49.8427 29.092 50.12 28.676C50.2587 28.468 50.432 28.1733 50.64 27.792C50.848 27.4107 51.0733 27.0293 51.316 26.648C51.5933 26.232 51.8533 25.8853 52.096 25.608C52.3733 25.3307 52.6507 25.192 52.928 25.192C53.1707 25.192 53.5693 25.4173 54.124 25.868C54.7133 26.284 55.3027 26.7867 55.892 27.376C56.516 27.9307 57.0533 28.4853 57.504 29.04C57.9547 29.5947 58.18 29.9933 58.18 30.236C58.18 30.3053 58.128 30.3573 58.024 30.392C57.92 30.4267 57.8333 30.444 57.764 30.444C57.2787 30.5133 56.7933 30.5307 56.308 30.496C55.8573 30.4613 55.3893 30.4613 54.904 30.496C53.7253 30.5653 52.5467 30.6347 51.368 30.704C50.224 30.7387 49.0627 30.756 47.884 30.756C43.7933 30.756 39.72 30.704 35.664 30.6C31.6427 30.496 27.5867 30.444 23.496 30.444L23.34 30.34L23.444 30.236ZM20.48 19.368C19.6827 19.368 19.024 19.16 18.504 18.744C17.984 18.2933 17.516 17.756 17.1 17.132C16.7187 16.508 16.3893 15.8493 16.112 15.156C15.8347 14.4627 15.54 13.8387 15.228 13.284C15.1933 13.2493 15.0893 13.128 14.916 12.92C14.7773 12.6773 14.6387 12.4347 14.5 12.192C14.396 11.9493 14.3093 11.7413 14.24 11.568C14.2053 11.36 14.2747 11.256 14.448 11.256C15.2107 11.256 16.112 11.3253 17.152 11.464C18.2267 11.6027 19.2493 11.8627 20.22 12.244C21.1907 12.5907 22.0053 13.076 22.664 13.7C23.3573 14.324 23.704 15.1387 23.704 16.144C23.704 17.08 23.392 17.86 22.768 18.484C22.1787 19.0733 21.416 19.368 20.48 19.368ZM46.22 20.096C46.3587 20.0613 46.5493 20.0267 46.792 19.992C47.0693 19.9227 47.3467 19.8707 47.624 19.836C47.936 19.7667 48.196 19.6973 48.404 19.628C48.6467 19.524 48.82 19.42 48.924 19.316C49.0627 19.1773 49.2533 18.8827 49.496 18.432C49.7733 17.9813 50.0507 17.5133 50.328 17.028C50.64 16.5427 50.9347 16.1267 51.212 15.78C51.4893 15.3987 51.7147 15.208 51.888 15.208C51.992 15.208 52.2867 15.4333 52.772 15.884C53.2573 16.3 53.7773 16.7853 54.332 17.34C54.8867 17.8947 55.4067 18.432 55.892 18.952C56.3773 19.4373 56.6547 19.7493 56.724 19.888C56.7933 20.0267 56.776 20.148 56.672 20.252C56.568 20.2867 56.2387 20.3213 55.684 20.356C55.164 20.356 54.54 20.3733 53.812 20.408C53.084 20.408 52.2867 20.408 51.42 20.408C50.588 20.408 49.808 20.408 49.08 20.408C48.352 20.3733 47.728 20.356 47.208 20.356C46.688 20.3213 46.3933 20.2867 46.324 20.252L46.22 20.096ZM11.328 43.548C12.784 43.34 13.9107 42.6293 14.708 41.416C15.1587 40.7227 15.5227 39.9947 15.8 39.232C16.0773 38.4693 16.372 37.724 16.684 36.996C17.4813 35.1587 18.296 33.356 19.128 31.588C19.96 29.7853 20.792 27.9827 21.624 26.18C22.1093 25.1747 22.56 24.1867 22.976 23.216C23.392 22.2107 23.8427 21.2053 24.328 20.2C24.3973 20.0267 24.4667 19.888 24.536 19.784C24.6053 19.68 24.7093 19.5933 24.848 19.524C24.952 19.5587 25.004 19.68 25.004 19.888C25.004 22.0027 24.6747 24.0653 24.016 26.076C23.3573 28.052 22.6293 30.028 21.832 32.004C21.0693 33.9453 20.3587 35.9213 19.7 37.932C19.0413 39.9427 18.712 42.0053 18.712 44.12C18.712 44.952 18.816 45.7493 19.024 46.512C19.2667 47.2747 19.5093 48.0373 19.752 48.8C20.0293 49.5627 20.272 50.3253 20.48 51.088C20.7227 51.8507 20.844 52.648 20.844 53.48C20.844 54.624 20.6533 55.56 20.272 56.288C19.9253 57.016 19.4747 57.5533 18.92 57.9C18.4 58.2813 17.828 58.5067 17.204 58.576C16.58 58.6453 15.9907 58.6107 15.436 58.472C14.916 58.368 14.4653 58.1773 14.084 57.9C13.7373 57.6573 13.564 57.3973 13.564 57.12V46.72C13.564 46.3733 13.4253 46.0787 13.148 45.836C12.9053 45.5587 12.628 45.316 12.316 45.108C12.004 44.8653 11.7093 44.64 11.432 44.432C11.1893 44.224 11.068 43.9987 11.068 43.756L11.328 43.548ZM9.716 22.54C9.716 22.1933 9.872 22.02 10.184 22.02C10.912 22.02 11.7267 22.1067 12.628 22.28C13.5293 22.4533 14.3787 22.748 15.176 23.164C16.008 23.5453 16.7013 24.048 17.256 24.672C17.8107 25.296 18.088 26.0587 18.088 26.96C18.088 27.8267 17.8107 28.572 17.256 29.196C16.736 29.7853 16.0253 30.08 15.124 30.08C14.604 30.08 14.032 29.7853 13.408 29.196C12.784 28.572 12.1947 27.844 11.64 27.012C11.0853 26.18 10.6173 25.348 10.236 24.516C9.88933 23.684 9.716 23.0253 9.716 22.54ZM42.424 43.444C43.1173 42.3 43.828 41.156 44.556 40.012C45.284 38.8333 45.9427 37.6373 46.532 36.424C46.6013 36.2853 46.7227 36.008 46.896 35.592C47.104 35.176 47.2947 34.7427 47.468 34.292C47.676 33.8413 47.8493 33.4427 47.988 33.096C48.1613 32.7493 48.2653 32.5413 48.3 32.472C48.4733 32.5413 48.924 32.8013 49.652 33.252C50.4147 33.668 51.212 34.1533 52.044 34.708C52.9107 35.228 53.6907 35.7307 54.384 36.216C55.112 36.6667 55.5453 36.9613 55.684 37.1C55.684 37.1693 55.6493 37.2387 55.58 37.308C55.476 37.412 55.0947 37.6373 54.436 37.984C53.812 38.3307 53.032 38.7293 52.096 39.18C51.16 39.6307 50.1547 40.116 49.08 40.636C48.04 41.156 47.052 41.6413 46.116 42.092C45.18 42.508 44.3653 42.872 43.672 43.184C43.0133 43.4613 42.632 43.6 42.528 43.6L42.424 43.444ZM26.876 33.876C27.8813 33.876 28.9733 34.032 30.152 34.344C31.3653 34.6213 32.492 35.0547 33.532 35.644C34.572 36.1987 35.4387 36.9267 36.132 37.828C36.8253 38.7293 37.172 39.7693 37.172 40.948C37.172 41.884 36.912 42.6813 36.392 43.34C35.9067 43.9987 35.1613 44.328 34.156 44.328C33.428 44.328 32.7347 44.0507 32.076 43.496C31.452 42.9067 30.88 42.2133 30.36 41.416C29.8747 40.584 29.424 39.752 29.008 38.92C28.6267 38.0533 28.3147 37.3427 28.072 36.788C28.0027 36.6493 27.8987 36.4587 27.76 36.216C27.6213 35.9387 27.4653 35.6613 27.292 35.384C27.1533 35.1067 27.032 34.8467 26.928 34.604C26.824 34.3613 26.7547 34.1707 26.72 34.032L26.876 33.876ZM42.996 46.876L43.204 46.668C44.0013 46.668 44.92 46.7373 45.96 46.876C47.0347 46.98 48.1093 47.1707 49.184 47.448C50.2933 47.7253 51.368 48.0893 52.408 48.54C53.448 48.956 54.3667 49.476 55.164 50.1C55.996 50.724 56.6547 51.452 57.14 52.284C57.66 53.116 57.92 54.052 57.92 55.092C57.92 56.1667 57.608 56.9987 56.984 57.588C56.36 58.212 55.5107 58.524 54.436 58.524C53.6733 58.524 52.98 58.264 52.356 57.744C51.732 57.2587 51.16 56.6693 50.64 55.976C50.12 55.2827 49.6347 54.572 49.184 53.844C48.7333 53.0813 48.3 52.44 47.884 51.92C47.156 51.088 46.3933 50.2733 45.596 49.476C44.8333 48.644 44.0187 47.8813 43.152 47.188L42.996 46.876ZM37.588 47.292C37.5533 47.4653 37.2933 47.864 36.808 48.488C36.3227 49.112 35.6987 49.84 34.936 50.672C34.208 51.4693 33.4107 52.3187 32.544 53.22C31.712 54.1213 30.9147 54.936 30.152 55.664C29.3893 56.4267 28.7307 57.0507 28.176 57.536C27.6213 58.0213 27.2747 58.264 27.136 58.264C27.032 58.264 26.8933 58.1773 26.72 58.004C26.6507 57.9347 26.4253 57.588 26.044 56.964C25.6627 56.34 25.264 55.664 24.848 54.936C24.432 54.2427 24.0507 53.6013 23.704 53.012C23.392 52.4227 23.236 52.1107 23.236 52.076C23.236 51.7987 23.3573 51.608 23.6 51.504C23.9467 51.3307 24.3107 51.2093 24.692 51.14C25.108 51.0707 25.5067 50.984 25.888 50.88C26.5813 50.7067 27.2747 50.516 27.968 50.308C28.696 50.1 29.4067 49.8573 30.1 49.58C30.3427 49.5107 30.7933 49.3373 31.452 49.06C32.1453 48.7827 32.856 48.5053 33.584 48.228C34.3467 47.916 35.04 47.656 35.664 47.448C36.288 47.2053 36.652 47.084 36.756 47.084C36.9293 47.084 37.0853 47.084 37.224 47.084C37.3627 47.084 37.484 47.1533 37.588 47.292Z" fill="#FDFDFD"/>
<path d="M73.728 10.32C74.0053 10.4587 74.248 10.5973 74.456 10.736C74.664 10.8747 74.9067 11.0307 75.184 11.204C75.392 11.308 75.7907 11.4987 76.38 11.776C77.004 12.0533 77.6453 12.348 78.304 12.66C78.9973 12.972 79.604 13.284 80.124 13.596C80.644 13.908 80.904 14.1333 80.904 14.272C80.904 14.4107 80.852 14.532 80.748 14.636C80.2973 15.156 79.6733 15.832 78.876 16.664C78.0787 17.496 77.16 18.3973 76.12 19.368C75.1147 20.3387 74.04 21.3093 72.896 22.28C71.7867 23.2507 70.6773 24.1347 69.568 24.932C68.4933 25.7293 67.4707 26.388 66.5 26.908C65.564 27.3933 64.784 27.636 64.16 27.636H64.004L63.9 27.48C64.7667 26.3013 65.6507 25.14 66.552 23.996C67.4533 22.852 68.268 21.6387 68.996 20.356C69.8973 18.796 70.66 17.184 71.284 15.52C71.908 13.8213 72.6187 12.14 73.416 10.476L73.728 10.32ZM90.524 11.516L90.732 11.308C91.668 11.3427 92.6907 11.464 93.8 11.672C94.944 11.88 96.1053 12.192 97.284 12.608C98.4627 12.9893 99.5893 13.4747 100.664 14.064C101.773 14.6187 102.761 15.2773 103.628 16.04C104.495 16.8027 105.188 17.6693 105.708 18.64C106.228 19.576 106.488 20.616 106.488 21.76C106.488 22.7653 106.193 23.5973 105.604 24.256C105.049 24.9147 104.252 25.244 103.212 25.244C102.761 25.244 102.189 24.9667 101.496 24.412C100.837 23.8573 100.092 23.164 99.26 22.332C98.4627 21.4653 97.6307 20.512 96.764 19.472C95.932 18.3973 95.1173 17.3747 94.32 16.404C93.5227 15.3987 92.7947 14.4973 92.136 13.7C91.512 12.868 91.0267 12.2613 90.68 11.88L90.524 11.516ZM91.98 53.636C91.7373 53.8787 91.4427 54 91.096 54H79.084C78.876 54 78.7373 54.1213 78.668 54.364C78.6333 54.6067 78.5987 54.884 78.564 55.196C78.5293 55.5427 78.4773 55.8893 78.408 56.236C78.3733 56.5827 78.252 56.8773 78.044 57.12C77.836 57.328 77.4373 57.536 76.848 57.744C76.2933 57.9867 75.6867 58.1773 75.028 58.316C74.404 58.4893 73.78 58.576 73.156 58.576C72.5667 58.6107 72.1507 58.524 71.908 58.316C71.8387 58.1773 71.7867 57.64 71.752 56.704C71.752 55.8027 71.752 54.676 71.752 53.324C71.7867 51.972 71.8213 50.516 71.856 48.956C71.8907 47.3613 71.9253 45.8533 71.96 44.432C71.9947 43.0107 72.0293 41.7453 72.064 40.636C72.0987 39.5267 72.116 38.7813 72.116 38.4L71.908 38.088C71.3533 37.9147 70.7293 38.0187 70.036 38.4C69.3773 38.7467 68.684 39.18 67.956 39.7C67.2627 40.1853 66.552 40.6533 65.824 41.104C65.1307 41.5547 64.5067 41.78 63.952 41.78C63.7093 41.78 63.588 41.6933 63.588 41.52C63.588 41.3813 63.8133 41.0693 64.264 40.584C64.7147 40.064 65.2173 39.5093 65.772 38.92C66.3613 38.3307 66.916 37.776 67.436 37.256C67.9907 36.736 68.3547 36.3893 68.528 36.216C69.6027 35.2453 70.5907 34.3267 71.492 33.46C72.428 32.5587 73.2947 31.64 74.092 30.704C74.924 29.768 75.704 28.7973 76.432 27.792C77.1947 26.752 77.94 25.5907 78.668 24.308C79.084 23.5453 79.4827 22.7827 79.864 22.02C80.28 21.2227 80.6787 20.4253 81.06 19.628C81.1293 19.42 81.2853 19.316 81.528 19.316C81.9093 19.316 82.568 19.42 83.504 19.628C84.44 19.8013 85.4107 20.0267 86.416 20.304C87.4213 20.5813 88.34 20.8933 89.172 21.24C90.0387 21.552 90.5587 21.8467 90.732 22.124C90.6973 22.1933 90.5587 22.28 90.316 22.384C90.0733 22.4533 89.8133 22.54 89.536 22.644C89.2587 22.7133 88.9813 22.8 88.704 22.904C88.4267 22.9733 88.2187 23.06 88.08 23.164C87.768 23.372 87.4733 23.684 87.196 24.1C86.9187 24.516 86.624 24.9667 86.312 25.452C86.0347 25.9027 85.7573 26.3707 85.48 26.856C85.2027 27.3067 84.908 27.688 84.596 28C84.1453 28.4853 83.4 29.1267 82.36 29.924C81.32 30.6867 80.2453 31.484 79.136 32.316C78.0613 33.148 77.0733 33.928 76.172 34.656C75.2707 35.3493 74.7507 35.8693 74.612 36.216C74.5773 36.32 74.56 36.476 74.56 36.684C74.6987 36.788 74.976 36.944 75.392 37.152C75.8427 37.3253 76.2933 37.4987 76.744 37.672C77.2293 37.8453 77.68 38.0013 78.096 38.14C78.5467 38.2787 78.876 38.3653 79.084 38.4C79.3613 38.4347 79.6213 38.452 79.864 38.452C80.1067 38.452 80.3667 38.452 80.644 38.452C82.62 38.452 84.5787 38.452 86.52 38.452C88.4613 38.4173 90.42 38.4 92.396 38.4L92.76 38.244L95.568 35.436L95.724 35.072V34.812C95.6547 34.5 95.412 34.136 94.996 33.72C94.58 33.2693 94.2507 32.9227 94.008 32.68C93.592 32.264 93.124 31.744 92.604 31.12C92.084 30.4613 91.5813 29.7853 91.096 29.092C90.6453 28.364 90.2467 27.6533 89.9 26.96C89.588 26.232 89.432 25.556 89.432 24.932C89.432 24.8627 89.432 24.776 89.432 24.672C89.4667 24.568 89.5187 24.516 89.588 24.516C89.9347 24.516 90.524 24.776 91.356 25.296C92.2227 25.7813 93.1413 26.3533 94.112 27.012C95.0827 27.636 96.036 28.26 96.972 28.884C97.908 29.4733 98.636 29.872 99.156 30.08C100.335 30.5653 101.531 30.9813 102.744 31.328C103.957 31.6747 105.171 32.004 106.384 32.316C106.973 32.4893 107.563 32.6107 108.152 32.68C108.741 32.7493 109.313 32.888 109.868 33.096C109.937 33.1307 110.007 33.1653 110.076 33.2C110.18 33.2347 110.232 33.2867 110.232 33.356C110.232 33.6333 110.059 33.9453 109.712 34.292C109.4 34.6387 109.019 35.0027 108.568 35.384C108.152 35.7307 107.736 36.0947 107.32 36.476C106.904 36.8227 106.609 37.1173 106.436 37.36C106.159 37.8107 105.916 38.296 105.708 38.816C105.5 39.336 105.309 39.8387 105.136 40.324L104.928 40.48C104.651 40.4107 104.373 40.2893 104.096 40.116C103.819 39.908 103.541 39.804 103.264 39.804C103.16 39.804 102.952 39.8733 102.64 40.012C102.328 40.116 101.999 40.2547 101.652 40.428C101.34 40.5667 101.045 40.7227 100.768 40.896C100.525 41.0693 100.404 41.2253 100.404 41.364V56.756C100.404 57.0333 100.179 57.2587 99.728 57.432C99.2773 57.6053 98.7573 57.744 98.168 57.848C97.6133 57.952 97.0587 58.0213 96.504 58.056C95.9493 58.1253 95.568 58.16 95.36 58.16C94.9787 58.16 94.6493 58.16 94.372 58.16C94.0947 58.1947 93.8173 58.0733 93.54 57.796C93.436 57.7267 93.3667 57.276 93.332 56.444C93.2973 55.612 93.28 54.6067 93.28 53.428C93.28 52.2147 93.28 50.8973 93.28 49.476C93.3147 48.0547 93.332 46.7027 93.332 45.42C93.3667 44.1373 93.384 42.9933 93.384 41.988C93.4187 40.9827 93.436 40.3067 93.436 39.96C93.436 39.6133 93.2627 39.44 92.916 39.44H79.24C78.8933 39.44 78.72 39.6133 78.72 39.96V52.804C78.72 53.1507 78.8933 53.324 79.24 53.324C79.552 53.324 80.0547 53.324 80.748 53.324C81.476 53.2893 82.2907 53.272 83.192 53.272C84.0933 53.2373 85.0293 53.22 86 53.22C86.9707 53.22 87.872 53.2373 88.704 53.272C89.5707 53.272 90.2987 53.3067 90.888 53.376C91.4773 53.4453 91.8413 53.532 91.98 53.636Z" fill="#FDFDFD"/>
<rect width="52" height="52" transform="translate(8 60)" fill="#FDFDFD"/>
<path d="M46.984 106.328C47.24 106.328 47.528 106.152 47.848 105.8C48.168 105.48 48.488 105.096 48.808 104.648C49.128 104.2 49.432 103.768 49.72 103.352C50.008 102.936 50.264 102.648 50.488 102.488C50.488 102.456 50.536 102.44 50.632 102.44C51.048 102.44 51.496 102.584 51.976 102.872C52.456 103.16 52.92 103.512 53.368 103.928C53.816 104.344 54.232 104.76 54.616 105.176C55.032 105.624 55.368 106.008 55.624 106.328H55.432C55.176 106.328 54.936 106.28 54.712 106.184C54.52 106.12 54.28 106.088 53.992 106.088V108.536H40.888C40.696 108.536 40.52 108.344 40.36 107.96C40.232 107.608 40.088 107.384 39.928 107.288L38.632 108.536H24.904C24.744 108.536 24.632 108.456 24.568 108.296C24.504 108.168 24.44 108.008 24.376 107.816C24.344 107.656 24.296 107.48 24.232 107.288C24.168 107.128 24.072 107.016 23.944 106.952L23.608 108.248C23.576 108.28 23.512 108.328 23.416 108.392C23.352 108.488 23.304 108.536 23.272 108.536H16.264C16.04 108.536 15.864 108.344 15.736 107.96C15.608 107.608 15.464 107.384 15.304 107.288C15.112 107.352 15 107.432 14.968 107.528C14.968 107.656 14.968 107.784 14.968 107.912C14.968 108.04 14.952 108.152 14.92 108.248C14.92 108.376 14.824 108.472 14.632 108.536L13.384 108.584C12.52 108.584 11.912 108.456 11.56 108.2C11.208 107.976 11.032 107.4 11.032 106.472H17.848L18.328 105.992V93.416C19.704 93.416 21.064 93.448 22.408 93.512C23.752 93.576 25.112 93.688 26.488 93.848C26.776 93.816 26.952 93.864 27.016 93.992C27.112 94.12 27.16 94.28 27.16 94.472C27.16 94.6 27.144 94.712 27.112 94.808C27.048 94.584 26.872 94.424 26.584 94.328C26.328 94.232 26.024 94.168 25.672 94.136C25.352 94.104 25.016 94.104 24.664 94.136C24.344 94.136 24.104 94.136 23.944 94.136H22.648C22.36 94.328 22.168 94.568 22.072 94.856C22.008 95.144 21.976 95.448 21.976 95.768C21.976 96.216 22.072 96.616 22.264 96.968C22.488 97.288 22.712 97.608 22.936 97.928C23.16 98.248 23.352 98.584 23.512 98.936C23.672 99.288 23.704 99.72 23.608 100.232C23.864 99.912 24.184 99.608 24.568 99.32C24.984 99.032 25.352 98.808 25.672 98.648V106.328H29.992V91.112H12.424C12.264 91.112 12.168 90.936 12.136 90.584C12.104 90.2 12.088 89.944 12.088 89.816C12.088 89.752 12.088 89.576 12.088 89.288C12.12 89 12.232 88.856 12.424 88.856H46.312C46.344 88.856 46.52 88.712 46.84 88.424C47.16 88.104 47.496 87.736 47.848 87.32C48.2 86.904 48.52 86.504 48.808 86.12C49.096 85.704 49.24 85.4 49.24 85.208C49.24 84.856 49 84.376 48.52 83.768C48.072 83.16 47.48 82.504 46.744 81.8C46.008 81.064 45.192 80.328 44.296 79.592C43.4 78.824 42.52 78.136 41.656 77.528C40.792 76.92 39.992 76.424 39.256 76.04C38.52 75.656 37.944 75.464 37.528 75.464V85.208C37.528 85.56 37.224 85.864 36.616 86.12C36.008 86.376 35.304 86.584 34.504 86.744C33.736 86.872 33 86.968 32.296 87.032C31.592 87.096 31.144 87.128 30.952 87.128C30.76 87.128 30.6 87.112 30.472 87.08C30.344 87.048 30.184 86.952 29.992 86.792C29.992 86.504 29.976 85.976 29.944 85.208C29.912 84.44 29.88 83.64 29.848 82.808C29.816 81.944 29.784 81.144 29.752 80.408C29.72 79.64 29.704 79.096 29.704 78.776V78.632C29.704 78.312 29.72 77.976 29.752 77.624C29.784 77.24 29.848 76.904 29.944 76.616C30.072 76.296 30.248 76.04 30.472 75.848C30.728 75.656 31.048 75.56 31.432 75.56C32.104 75.56 32.744 75.736 33.352 76.088C33.992 76.408 34.648 76.568 35.32 76.568C35.576 76.568 35.768 76.536 35.896 76.472C36.056 76.376 36.136 76.184 36.136 75.896C36.136 75.672 35.88 75.464 35.368 75.272C34.888 75.08 34.312 74.904 33.64 74.744C33 74.552 32.36 74.376 31.72 74.216C31.08 74.024 30.616 73.848 30.328 73.688C30.072 73.528 29.896 73.432 29.8 73.4C29.736 73.368 29.592 73.352 29.368 73.352H29.032C29.192 73.544 29.288 73.704 29.32 73.832C29.352 73.928 29.368 74.072 29.368 74.264C29.368 74.616 29.32 75 29.224 75.416C29.128 75.832 29.016 76.264 28.888 76.712C28.792 77.128 28.712 77.544 28.648 77.96C28.616 78.376 28.648 78.76 28.744 79.112C27.368 79.848 25.976 80.568 24.568 81.272C23.192 81.944 21.784 82.568 20.344 83.144C18.936 83.688 17.48 84.152 15.976 84.536C14.504 84.888 13 85.112 11.464 85.208C11.432 85.176 11.416 85.112 11.416 85.016C11.416 84.856 11.848 84.504 12.712 83.96C13.576 83.384 14.648 82.696 15.928 81.896C17.208 81.064 18.6 80.136 20.104 79.112C21.64 78.088 23.048 77.032 24.328 75.944C25.608 74.856 26.68 73.752 27.544 72.632C28.408 71.48 28.84 70.392 28.84 69.368H13C13 68.952 13.128 68.568 13.384 68.216H13.048L12.568 68.552V67.112H45.688C46.04 67.112 46.344 66.92 46.6 66.536C46.888 66.152 47.16 65.736 47.416 65.288C47.672 64.808 47.944 64.376 48.232 63.992C48.552 63.608 48.936 63.416 49.384 63.416C49.864 63.416 50.408 63.624 51.016 64.04C51.624 64.424 52.216 64.888 52.792 65.432C53.4 65.944 53.944 66.472 54.424 67.016C54.936 67.528 55.336 67.928 55.624 68.216C55.112 68.088 54.744 68.136 54.52 68.36C54.296 68.552 54.12 68.888 53.992 69.368H40.888L38.344 72.392C38.312 72.456 38.296 72.568 38.296 72.728C38.296 73.144 38.728 73.464 39.592 73.688C40.488 73.912 41.576 74.12 42.856 74.312C44.168 74.504 45.592 74.744 47.128 75.032C48.664 75.288 50.072 75.672 51.352 76.184C52.664 76.696 53.752 77.4 54.616 78.296C55.512 79.16 55.96 80.28 55.96 81.656L55.912 82.328C55.688 81.912 55.512 81.496 55.384 81.08C55.256 80.632 55.112 80.232 54.952 79.88C54.792 79.496 54.568 79.192 54.28 78.968C53.992 78.712 53.592 78.584 53.08 78.584C53.08 78.872 53.128 79.128 53.224 79.352C53.32 79.576 53.432 79.8 53.56 80.024C53.688 80.248 53.8 80.472 53.896 80.696C53.992 80.92 54.04 81.176 54.04 81.464C54.04 81.912 53.944 82.28 53.752 82.568C53.592 82.824 53.256 82.952 52.744 82.952C52.488 82.952 52.28 82.904 52.12 82.808C51.96 82.68 51.8 82.568 51.64 82.472C51.512 82.344 51.368 82.232 51.208 82.136C51.08 82.008 50.904 81.944 50.68 81.944C50.424 81.944 50.216 81.992 50.056 82.088C49.896 82.152 49.816 82.328 49.816 82.616C49.816 83.096 49.992 83.448 50.344 83.672C50.696 83.896 51.112 84.056 51.592 84.152C52.072 84.248 52.568 84.296 53.08 84.296C53.592 84.264 54.008 84.248 54.328 84.248C54.488 84.248 54.616 84.248 54.712 84.248C54.808 84.216 54.92 84.168 55.048 84.104C54.856 84.264 54.584 84.456 54.232 84.68C53.912 84.904 53.592 85.128 53.272 85.352C52.952 85.576 52.664 85.784 52.408 85.976C52.184 86.168 52.072 86.28 52.072 86.312V86.456C52.232 86.712 52.52 86.984 52.936 87.272C53.384 87.56 53.816 87.864 54.232 88.184C54.68 88.472 55.064 88.776 55.384 89.096C55.736 89.384 55.912 89.688 55.912 90.008V90.44C55.72 90.44 55.544 90.376 55.384 90.248C55.224 90.12 55.064 89.976 54.904 89.816C54.776 89.656 54.632 89.512 54.472 89.384C54.344 89.224 54.184 89.112 53.992 89.048C53.992 89.016 53.944 89 53.848 89C53.624 89 53.432 89.096 53.272 89.288C53.144 89.448 53.032 89.656 52.936 89.912C52.872 90.136 52.824 90.376 52.792 90.632C52.76 90.856 52.744 91.016 52.744 91.112H38.008V97.352H41.848C42.2 97.352 42.504 97.176 42.76 96.824C43.048 96.44 43.304 96.024 43.528 95.576C43.784 95.128 44.056 94.728 44.344 94.376C44.632 93.992 44.968 93.8 45.352 93.8C45.832 93.8 46.36 94.008 46.936 94.424C47.544 94.808 48.136 95.272 48.712 95.816C49.32 96.328 49.864 96.856 50.344 97.4C50.824 97.944 51.192 98.36 51.448 98.648C51.096 99.192 50.568 99.512 49.864 99.608H44.728C44.248 99.608 43.64 99.624 42.904 99.656C42.2 99.688 41.512 99.72 40.84 99.752C40.168 99.784 39.576 99.816 39.064 99.848C38.584 99.88 38.344 99.896 38.344 99.896L38.008 100.232V106.328H46.984ZM33.832 68.408C33.832 68.76 33.96 69.032 34.216 69.224C34.504 69.416 34.824 69.512 35.176 69.512C35.432 69.512 35.656 69.432 35.848 69.272C36.04 69.08 36.136 68.84 36.136 68.552C36.136 68.104 35.912 67.88 35.464 67.88L35.128 67.928C35.032 67.928 34.808 67.976 34.456 68.072C34.136 68.136 33.928 68.184 33.832 68.216V68.408ZM22.264 79.88C23.064 79.88 23.512 79.736 23.608 79.448C23.704 79.128 23.752 78.568 23.752 77.768C23.272 77.768 22.904 78.024 22.648 78.536C22.392 79.016 22.264 79.464 22.264 79.88ZM20.392 80.696H20.104L20.392 81.032V80.696ZM55.624 83.288C55.528 83.288 55.48 83.224 55.48 83.096C55.48 82.968 55.528 82.92 55.624 82.952C55.72 82.984 55.768 83.048 55.768 83.144C55.768 83.208 55.72 83.256 55.624 83.288ZM55.144 84.008L55.048 84.104L55.144 84.008ZM34.024 92.552C34.024 92.104 33.832 91.672 33.448 91.256C33.064 90.808 32.664 90.584 32.248 90.584C32.12 90.584 32.008 90.6 31.912 90.632L33.208 92.552H34.024ZM24.904 95.096L25.192 95.432H24.568L24.904 95.096ZM25.528 96.056C25.56 95.928 25.672 95.832 25.864 95.768L25.528 96.392V96.056ZM35.464 98.312C35.464 97.896 35.24 97.64 34.792 97.544C34.376 97.416 34.008 97.352 33.688 97.352C33.528 97.352 33.288 97.368 32.968 97.4C32.68 97.432 32.536 97.576 32.536 97.832C32.536 97.896 32.552 97.944 32.584 97.976C33 98.04 33.48 98.12 34.024 98.216C34.568 98.312 35.048 98.456 35.464 98.648V98.312ZM20.392 104.888C20.392 105.368 20.568 105.656 20.92 105.752C21.272 105.848 21.672 105.896 22.12 105.896C22.12 105.512 22.024 105.16 21.832 104.84C21.672 104.52 21.352 104.36 20.872 104.36C20.776 104.36 20.728 104.376 20.728 104.408C20.6 104.44 20.488 104.536 20.392 104.696V104.888ZM56.248 106.616C56.472 106.776 56.648 106.936 56.776 107.096C56.904 107.256 56.968 107.464 56.968 107.72C56.68 107.72 56.456 107.592 56.296 107.336C56.136 107.08 56.008 106.84 55.912 106.616H56.248ZM12.712 107.576C12.68 107.416 12.6 107.32 12.472 107.288C12.344 107.256 12.216 107.24 12.088 107.24C11.96 107.24 11.848 107.256 11.752 107.288V107.576H12.712Z" fill="#E63946"/>
<path d="M61.924 73.396C61.5427 73.3267 61.3867 73.1707 61.456 72.928C61.56 72.6853 61.7507 72.564 62.028 72.564H74.248C74.3867 72.564 74.5773 72.3907 74.82 72.044C75.0627 71.6627 75.3227 71.264 75.6 70.848C75.912 70.3973 76.2067 69.9987 76.484 69.652C76.796 69.2707 77.0733 69.08 77.316 69.08C77.3853 69.08 77.5933 69.2187 77.94 69.496C78.2867 69.7387 78.668 70.0333 79.084 70.38C79.5 70.7267 79.8813 71.056 80.228 71.368C80.6093 71.6453 80.8693 71.836 81.008 71.94C81.0773 71.94 81.1293 71.9573 81.164 71.992C81.2333 71.992 81.3027 71.992 81.372 71.992C81.5107 71.992 81.58 71.8707 81.58 71.628C81.6147 71.3507 81.632 71.0733 81.632 70.796C81.632 70.484 81.632 70.2067 81.632 69.964C81.6667 69.6867 81.7533 69.548 81.892 69.548C82.204 69.548 82.6027 69.6693 83.088 69.912C83.608 70.12 84.1627 70.3627 84.752 70.64C85.3413 70.8827 85.948 71.1253 86.572 71.368C87.196 71.576 87.768 71.68 88.288 71.68C88.3573 71.68 88.4613 71.6453 88.6 71.576C88.7733 71.5067 88.8947 71.4547 88.964 71.42L89.12 71.108C89.1547 70.5187 89.224 69.9467 89.328 69.392C89.432 68.8027 89.484 68.2133 89.484 67.624C89.484 67.4853 89.4667 67.3293 89.432 67.156C89.432 66.948 89.328 66.844 89.12 66.844H64.732L64.368 66.688C64.2293 66.5147 64.212 66.3587 64.316 66.22C64.4547 66.0467 64.6107 65.96 64.784 65.96H72.272C72.4107 65.96 72.6013 65.8213 72.844 65.544C73.0867 65.232 73.3293 64.8853 73.572 64.504C73.8493 64.088 74.1093 63.7067 74.352 63.36C74.5947 62.9787 74.8027 62.7013 74.976 62.528L75.236 62.424C75.4093 62.4587 75.7213 62.6667 76.172 63.048C76.6227 63.4293 77.108 63.8453 77.628 64.296C78.148 64.7467 78.6333 65.1627 79.084 65.544C79.5347 65.9253 79.8467 66.116 80.02 66.116H101.236C101.513 66.116 101.808 65.9427 102.12 65.596C102.467 65.2147 102.796 64.816 103.108 64.4C103.455 63.9493 103.767 63.516 104.044 63.1C104.356 62.684 104.651 62.424 104.928 62.32C105.171 62.424 105.5 62.632 105.916 62.944C106.367 63.256 106.817 63.6027 107.268 63.984C107.753 64.3653 108.221 64.7467 108.672 65.128C109.123 65.5093 109.487 65.804 109.764 66.012L109.92 66.272L109.816 66.584L109.712 66.688L109.348 66.844H101.444C101.097 66.844 100.924 67.0173 100.924 67.364C100.924 67.5027 100.907 67.7627 100.872 68.144C100.872 68.5253 100.872 68.924 100.872 69.34C100.872 69.756 100.872 70.1373 100.872 70.484C100.907 70.8307 100.959 71.0387 101.028 71.108C101.097 71.1773 101.167 71.264 101.236 71.368C101.34 71.472 101.427 71.5587 101.496 71.628L101.704 71.68C102.051 71.6453 102.415 71.4893 102.796 71.212C103.212 70.9347 103.593 70.64 103.94 70.328C104.287 70.016 104.599 69.7387 104.876 69.496C105.153 69.2187 105.344 69.08 105.448 69.08C105.587 69.08 105.881 69.2533 106.332 69.6C106.817 69.912 107.303 70.276 107.788 70.692C108.308 71.108 108.759 71.5067 109.14 71.888C109.521 72.2693 109.712 72.5293 109.712 72.668C109.712 72.9453 109.539 73.1707 109.192 73.344C108.88 73.4827 108.724 73.708 108.724 74.02V80.364C108.724 80.5373 108.533 80.7107 108.152 80.884C107.771 81.0227 107.337 81.1787 106.852 81.352C106.401 81.4907 105.985 81.6467 105.604 81.82C105.223 81.9587 105.032 82.0973 105.032 82.236C105.032 82.444 105.205 82.704 105.552 83.016C105.899 83.2933 106.263 83.5707 106.644 83.848C107.06 84.1253 107.441 84.3853 107.788 84.628C108.135 84.8707 108.308 85.0613 108.308 85.2C108.308 85.4427 108.135 85.6507 107.788 85.824C107.476 85.9627 107.32 86.188 107.32 86.5V96.276C107.32 96.4147 107.251 96.5533 107.112 96.692C107.008 96.8307 106.869 96.9693 106.696 97.108C106.557 97.212 106.419 97.316 106.28 97.42C106.176 97.524 106.124 97.628 106.124 97.732C106.124 97.94 106.28 98.2173 106.592 98.564C106.939 98.9107 107.32 99.2747 107.736 99.656C108.152 100.037 108.551 100.401 108.932 100.748C109.348 101.095 109.643 101.355 109.816 101.528C109.851 101.563 109.903 101.615 109.972 101.684C110.041 101.753 110.059 101.823 110.024 101.892C109.92 102.065 109.816 102.169 109.712 102.204C109.643 102.204 109.521 102.204 109.348 102.204H99.936C99.7627 102.204 99.676 102.152 99.676 102.048C100.092 101.909 100.56 101.753 101.08 101.58C101.635 101.407 102.155 101.199 102.64 100.956C103.16 100.679 103.576 100.349 103.888 99.968C104.235 99.5867 104.408 99.1013 104.408 98.512C104.408 98.2347 104.321 98.044 104.148 97.94C103.975 97.836 103.749 97.784 103.472 97.784C103.229 97.7493 102.969 97.7493 102.692 97.784C102.449 97.8187 102.241 97.836 102.068 97.836C101.825 97.836 101.669 97.732 101.6 97.524C101.531 97.316 101.444 97.108 101.34 96.9C101.271 96.6573 101.132 96.432 100.924 96.224C100.716 96.016 100.335 95.912 99.78 95.912C99.5027 95.912 99.208 95.9467 98.896 96.016C98.6187 96.0507 98.48 96.2587 98.48 96.64V109.12C98.48 109.501 98.22 109.796 97.7 110.004C97.2147 110.247 96.6427 110.42 95.984 110.524C95.36 110.663 94.7187 110.749 94.06 110.784C93.436 110.819 92.9853 110.836 92.708 110.836H92.656C92.4827 110.767 92.3787 110.697 92.344 110.628C92.3093 110.559 92.2747 110.437 92.24 110.264C92.1707 109.917 92.136 109.571 92.136 109.224C92.136 108.877 92.1187 108.531 92.084 108.184C92.0147 107.179 91.9627 106.191 91.928 105.22C91.8933 104.215 91.876 103.209 91.876 102.204V96.64C91.876 96.4667 91.72 96.3107 91.408 96.172C91.1307 96.0333 90.9053 95.964 90.732 95.964C90.3853 95.964 90.004 96.1373 89.588 96.484C89.172 96.796 88.704 97.1427 88.184 97.524C87.6987 97.9053 87.144 98.2693 86.52 98.616C85.9307 98.928 85.2547 99.084 84.492 99.084C84.3533 99.084 84.128 99.084 83.816 99.084C83.5387 99.0493 83.4 98.928 83.4 98.72C83.4 97.0213 83.4 95.34 83.4 93.676C83.4347 91.9773 83.452 90.2787 83.452 88.58C83.452 87.7827 83.452 86.968 83.452 86.136C83.4867 85.304 83.4693 84.4893 83.4 83.692C83.4 83.588 83.3827 83.484 83.348 83.38C83.348 83.2413 83.348 83.12 83.348 83.016C83.244 82.912 83.1053 82.8427 82.932 82.808C82.7933 82.7387 82.6373 82.6693 82.464 82.6C82.2907 82.5307 82.1347 82.4613 81.996 82.392C81.892 82.288 81.84 82.1493 81.84 81.976V73.916C81.84 73.5693 81.6667 73.396 81.32 73.396H61.924ZM94.008 67.416C94.008 67.4507 93.9907 67.4853 93.956 67.52C93.956 67.5547 93.956 67.5893 93.956 67.624V71.004C93.956 71.2467 94.06 71.4373 94.268 71.576C94.476 71.68 94.7013 71.7493 94.944 71.784C95.2213 71.784 95.464 71.7493 95.672 71.68C95.9147 71.6107 96.036 71.4893 96.036 71.316V67.572C96.036 67.2253 95.88 67.052 95.568 67.052C95.3253 67.052 95.048 67.0693 94.736 67.104C94.424 67.1387 94.1813 67.2427 94.008 67.416ZM89.12 73.084C89.12 72.8413 88.9987 72.6853 88.756 72.616C88.548 72.5467 88.3053 72.5293 88.028 72.564C87.7853 72.5987 87.56 72.668 87.352 72.772C87.144 72.876 87.04 72.98 87.04 73.084V78.284C87.04 78.5613 87.144 78.7693 87.352 78.908C87.56 79.012 87.7853 79.064 88.028 79.064C88.3053 79.064 88.548 79.0293 88.756 78.96C88.9987 78.856 89.12 78.7347 89.12 78.596V73.084ZM96.036 73.084C96.036 72.8413 95.9147 72.6853 95.672 72.616C95.464 72.5467 95.2213 72.5293 94.944 72.564C94.7013 72.5987 94.476 72.668 94.268 72.772C94.06 72.876 93.956 72.98 93.956 73.084V78.596C93.956 78.7347 94.06 78.856 94.268 78.96C94.476 79.0293 94.7013 79.064 94.944 79.064C95.2213 79.064 95.464 79.0293 95.672 78.96C95.9147 78.8907 96.036 78.7693 96.036 78.596V73.084ZM103.004 73.24C103.004 72.8587 102.796 72.6853 102.38 72.72C101.999 72.72 101.687 72.72 101.444 72.72C101.097 72.72 100.924 72.8933 100.924 73.24V78.596C100.924 78.7347 101.028 78.856 101.236 78.96C101.444 79.0293 101.669 79.064 101.912 79.064C102.189 79.064 102.432 79.0293 102.64 78.96C102.883 78.8907 103.004 78.7693 103.004 78.596V73.24ZM64.42 80C64.2467 80 64.16 79.9133 64.16 79.74C64.16 79.5667 64.2467 79.48 64.42 79.48H72.272C72.4107 79.48 72.6013 79.3067 72.844 78.96C73.1213 78.6133 73.3987 78.232 73.676 77.816C73.9533 77.4 74.248 77.0013 74.56 76.62C74.872 76.204 75.1667 75.944 75.444 75.84C75.6867 75.9093 75.9987 76.1 76.38 76.412C76.7613 76.6893 77.16 77.036 77.576 77.452C77.992 77.8333 78.3733 78.2147 78.72 78.596C79.1013 78.9427 79.396 79.22 79.604 79.428L79.656 79.636L79.552 79.844L79.188 80H64.42ZM87.56 80.156C87.2827 80.4333 86.9707 80.78 86.624 81.196C86.2773 81.5773 86.0867 81.9587 86.052 82.34C86.156 82.548 86.364 82.756 86.676 82.964C86.988 83.172 87.3347 83.3627 87.716 83.536C88.132 83.7093 88.5307 83.8653 88.912 84.004C89.2933 84.108 89.588 84.16 89.796 84.16H100.56C100.872 84.16 101.167 84.0387 101.444 83.796C101.756 83.5187 102.016 83.1893 102.224 82.808C102.467 82.4267 102.657 82.028 102.796 81.612C102.935 81.196 103.004 80.8493 103.004 80.572C103.004 80.468 102.987 80.3467 102.952 80.208C102.917 80.0693 102.813 80 102.64 80H87.924L87.56 80.156ZM75.756 82.86C75.8947 82.9987 76.172 83.2587 76.588 83.64C77.004 83.9867 77.4373 84.368 77.888 84.784C78.3387 85.1653 78.7373 85.5293 79.084 85.876C79.4653 86.2227 79.656 86.448 79.656 86.552C79.656 86.656 79.6213 86.7427 79.552 86.812C79.4827 86.8467 79.1013 86.8813 78.408 86.916C77.7147 86.9507 76.848 86.968 75.808 86.968C74.8027 86.968 73.6933 86.968 72.48 86.968C71.2667 86.968 70.1053 86.968 68.996 86.968C67.9213 86.9333 66.9507 86.916 66.084 86.916C65.252 86.916 64.6973 86.916 64.42 86.916C64.1427 86.916 63.9693 86.7773 63.9 86.5C63.9693 86.4307 64.0387 86.396 64.108 86.396H72.116C72.532 86.396 72.8613 86.2227 73.104 85.876C73.3467 85.5293 73.572 85.1307 73.78 84.68C73.988 84.2293 74.2133 83.8133 74.456 83.432C74.6987 83.0507 75.028 82.8253 75.444 82.756L75.756 82.86ZM89.12 94.716C89.12 95.0627 89.2933 95.236 89.64 95.236H100.716C101.063 95.236 101.236 95.0627 101.236 94.716V85.356C101.236 85.0093 101.063 84.836 100.716 84.836H90.004C89.8307 84.836 89.64 84.9573 89.432 85.2C89.224 85.408 89.12 85.5987 89.12 85.772V94.716ZM90.368 90.244L90.264 90.088C90.2987 90.0533 90.3507 90.036 90.42 90.036C90.628 90.036 90.992 90.036 91.512 90.036C92.0667 90.036 92.6907 90.036 93.384 90.036C94.0773 90.0013 94.8053 89.984 95.568 89.984C96.3307 89.984 97.0413 90.0013 97.7 90.036C98.3587 90.036 98.896 90.036 99.312 90.036C99.7627 90.036 100.023 90.0533 100.092 90.088C100.023 90.296 99.8667 90.4 99.624 90.4H90.732L90.368 90.244ZM73.364 94.404L73 94.04L72.636 93.884H69.516C69.1693 93.884 68.996 94.0573 68.996 94.404V104.96C68.996 105.237 69.152 105.411 69.464 105.48C69.8107 105.549 70.1747 105.584 70.556 105.584C70.972 105.549 71.3533 105.532 71.7 105.532C72.0813 105.497 72.3067 105.515 72.376 105.584C72.376 105.861 72.1853 106 71.804 106C71.4573 106 71.0587 106 70.608 106C70.1573 105.965 69.7413 105.965 69.36 106C69.0133 106.035 68.84 106.208 68.84 106.52V109.12C68.84 109.397 68.6147 109.623 68.164 109.796C67.748 109.969 67.2627 110.108 66.708 110.212C66.1533 110.316 65.5987 110.385 65.044 110.42C64.524 110.489 64.16 110.524 63.952 110.524C63.64 110.524 63.4667 110.385 63.432 110.108C63.432 109.865 63.432 109.64 63.432 109.432C63.432 106.381 63.38 103.348 63.276 100.332C63.172 97.2813 63.12 94.2307 63.12 91.18C63.12 90.868 63.2933 90.712 63.64 90.712C64.2293 90.712 64.8187 90.8507 65.408 91.128C65.9973 91.4053 66.604 91.7 67.228 92.012C67.852 92.324 68.476 92.6187 69.1 92.896C69.7587 93.1733 70.4347 93.312 71.128 93.312C71.3707 93.312 71.596 93.312 71.804 93.312C72.0467 93.2773 72.272 93.2253 72.48 93.156C72.6533 93.0867 72.8787 92.9133 73.156 92.636C73.4333 92.324 73.7107 91.9947 73.988 91.648C74.3 91.3013 74.5773 91.0067 74.82 90.764C75.0973 90.4867 75.288 90.348 75.392 90.348C75.6347 90.348 76.0333 90.5213 76.588 90.868C77.1773 91.18 77.7493 91.5613 78.304 92.012C78.8933 92.4627 79.396 92.9133 79.812 93.364C80.2627 93.8147 80.488 94.1613 80.488 94.404C80.488 94.508 80.4187 94.5947 80.28 94.664C80.1413 94.7333 79.9853 94.8027 79.812 94.872C79.6733 94.9413 79.5347 95.028 79.396 95.132C79.292 95.2013 79.24 95.3053 79.24 95.444V107.716C79.24 108.028 79.0147 108.288 78.564 108.496C78.1133 108.739 77.5933 108.929 77.004 109.068C76.4147 109.241 75.8253 109.363 75.236 109.432C74.6813 109.536 74.2827 109.588 74.04 109.588C73.6933 109.588 73.52 109.415 73.52 109.068V94.768L73.364 94.404ZM90.732 102.152C90.6973 102.152 90.4547 102.169 90.004 102.204C89.5533 102.239 88.9813 102.273 88.288 102.308C87.6293 102.308 86.9013 102.325 86.104 102.36C85.3413 102.395 84.6133 102.429 83.92 102.464C83.2613 102.499 82.6893 102.516 82.204 102.516C81.7533 102.516 81.5107 102.516 81.476 102.516C81.268 102.447 81.1467 102.325 81.112 102.152C81.0773 101.944 81.1987 101.84 81.476 101.84H90.264C90.5067 101.84 90.6627 101.944 90.732 102.152Z" fill="#FDFDFD"/>
</svg>
