<svg width="70" height="24" viewBox="0 0 70 24" fill="none" xmlns="http://www.w3.org/2000/svg">
<rect width="70" height="24" rx="4" fill="#E63946"/>
<path d="M8.95312 10.875C8.91667 11.3125 8.67969 11.5495 8.24219 11.5859C7.84115 11.6224 7.60417 11.4401 7.53125 11.0391C7.38542 10.3464 7.22135 9.89062 7.03906 9.67188C6.45573 9.23438 6.45573 9.03385 7.03906 9.07031C7.65885 9.17969 8.15104 9.41667 8.51562 9.78125C8.84375 10.0729 8.98958 10.4375 8.95312 10.875ZM18.0312 9.72656L19.2891 10.9297C19.5078 11.1849 19.4714 11.349 19.1797 11.4219H10.1016L9.17188 14.5391C9.09896 14.7578 9.0625 14.9219 9.0625 15.0312C9.09896 15.2135 9.17188 15.6328 9.28125 16.2891C9.39062 16.8724 9.40885 17.2917 9.33594 17.5469C9.15365 18.1302 8.82552 18.349 8.35156 18.2031C7.95052 18.0938 7.75 17.875 7.75 17.5469C7.75 17.5104 7.78646 17.1094 7.85938 16.3438C7.93229 15.7969 7.89583 15.3958 7.75 15.1406C7.60417 14.9583 7.33073 14.8125 6.92969 14.7031C6.71094 14.6667 6.67448 14.5755 6.82031 14.4297C6.89323 14.3568 7.25781 14.3385 7.91406 14.375L10.8125 7.92188C11.0312 7.66667 11.1224 7.70312 11.0859 8.03125L10.1562 11.0391H11.6328V6.9375L13.2188 7.21094C13.474 7.32031 13.4922 7.52083 13.2734 7.8125L13.0547 7.97656V11.0391H14.2031V5.73438L15.9531 5.95312C16.2448 6.0625 16.263 6.26302 16.0078 6.55469L15.7344 6.71875V8.41406H16.6094L17.4844 7.21094L18.6328 8.30469C18.8516 8.5599 18.8151 8.72396 18.5234 8.79688H15.7344V11.0391H17.1016L18.0312 9.72656ZM8.46094 7.8125C8.27865 7.01042 8.04167 6.5 7.75 6.28125L7.58594 6.17188C7.29427 5.98958 7.42188 5.9349 7.96875 6.00781C8.95312 6.15365 9.57292 6.53646 9.82812 7.15625C10.0469 7.8125 9.90104 8.25 9.39062 8.46875C8.88021 8.61458 8.57031 8.39583 8.46094 7.8125ZM9.88281 16.6172C10.9401 16.1068 11.6875 15.7057 12.125 15.4141C12.9635 14.9036 13.5469 14.5208 13.875 14.2656C14.349 14.0104 14.4036 14.138 14.0391 14.6484C13.8932 14.8307 13.7656 14.9766 13.6562 15.0859C13 15.8516 12.3255 16.5625 11.6328 17.2188L11.5234 17.8203C11.4505 18.112 11.2682 18.1302 10.9766 17.875L9.88281 16.6172ZM13.2734 13.2812C13.4557 14.0104 13.2552 14.4115 12.6719 14.4844C12.1979 14.5938 11.9245 14.3932 11.8516 13.8828C11.7057 13.0807 11.4505 12.5156 11.0859 12.1875C10.7214 11.8958 10.7396 11.7682 11.1406 11.8047C12.3802 12.0964 13.0911 12.5885 13.2734 13.2812ZM16.2812 15.9609C15.9531 15.6693 15.5703 15.3958 15.1328 15.1406C14.5495 14.8125 14.4583 14.6667 14.8594 14.7031C16.6094 14.849 17.8672 15.3776 18.6328 16.2891C18.9245 16.6172 19.0339 16.9818 18.9609 17.3828C18.7422 17.9661 18.3411 18.112 17.7578 17.8203C17.6484 17.7109 17.5026 17.5104 17.3203 17.2188C17.1016 16.8177 16.7552 16.3984 16.2812 15.9609ZM17.7031 13.3359C16.2812 14.0651 15.4609 14.4661 15.2422 14.5391C15.0234 14.612 15.0417 14.4661 15.2969 14.1016C15.9167 13.4453 16.5547 12.5885 17.2109 11.5312L18.3594 12.625C18.724 12.9896 18.6693 13.2083 18.1953 13.2812L17.7031 13.3359Z" fill="#FDFDFD"/>
<path d="M23.1172 13.4453C22.6797 13.7005 22.2604 13.9193 21.8594 14.1016C21.276 14.3568 20.8932 14.5026 20.7109 14.5391C20.5286 14.5391 20.5104 14.4661 20.6562 14.3203C21.9323 13.5911 23.0625 12.5885 24.0469 11.3125C24.849 10.2917 25.5781 8.97917 26.2344 7.375L27.9297 8.14062C28.2214 8.39583 28.2031 8.61458 27.875 8.79688L27.6562 8.85156C28.1302 9.54427 28.8047 10.1823 29.6797 10.7656C30.5547 11.3125 31.8854 11.8229 33.6719 12.2969C33.3438 12.5521 33.0703 12.8073 32.8516 13.0625C32.6693 13.2812 32.5052 13.5547 32.3594 13.8828C31.4115 13.4089 30.6458 12.9349 30.0625 12.4609C29.5885 12.0599 29.0599 11.5312 28.4766 10.875C28.1484 10.474 27.7474 9.8724 27.2734 9.07031C26.8724 9.76302 26.3802 10.4557 25.7969 11.1484C25.3594 11.6953 24.8307 12.224 24.2109 12.7344L24.6484 13.0078H28.9141L29.4609 12.1328L30.8281 13.4453C30.974 13.5911 30.9557 13.7552 30.7734 13.9375L30.5547 14.1016V17.5469C30.5547 17.7292 30.5 17.8385 30.3906 17.875C29.9896 17.9844 29.6068 18.0208 29.2422 17.9844C29.0964 17.9479 29.0234 17.875 29.0234 17.7656V17.2188H24.6484V17.8203C24.6484 17.9661 24.5938 18.0573 24.4844 18.0938C24.0469 18.2031 23.6823 18.2578 23.3906 18.2578C23.2083 18.2578 23.1172 18.1849 23.1172 18.0391V13.4453ZM24.6484 13.3906V16.8359H29.0234V13.3906H24.6484ZM24.7031 7.64844C23.8646 8.59635 23.0078 9.36198 22.1328 9.94531C21.2578 10.5286 20.7656 10.8021 20.6562 10.7656C20.5469 10.7292 20.6016 10.6016 20.8203 10.3828C21.2578 9.98177 21.6953 9.47135 22.1328 8.85156C22.6432 8.15885 23.2083 7.15625 23.8281 5.84375L25.3594 6.88281C25.7604 7.17448 25.7057 7.39323 25.1953 7.53906L24.7031 7.64844ZM28.0391 6.39062C27.7839 6.28125 27.8385 6.1901 28.2031 6.11719C28.7135 6.15365 29.4062 6.33594 30.2812 6.66406C31.9583 7.28385 32.7969 8.1224 32.7969 9.17969C32.7969 9.4349 32.7057 9.65365 32.5234 9.83594C32.3411 10.0182 32.1042 10.0729 31.8125 10C31.6667 9.96354 31.4844 9.79948 31.2656 9.50781C31.1562 9.36198 31.0469 9.19792 30.9375 9.01562C30.0625 7.77604 29.0964 6.90104 28.0391 6.39062Z" fill="#FDFDFD"/>
<rect width="16" height="16" transform="translate(34 4)" fill="#FDFDFD"/>
<path d="M45.4496 17.4006C45.5176 17.4006 45.5941 17.3539 45.6791 17.2604C45.7641 17.1753 45.8491 17.0733 45.9341 16.9543C46.0192 16.8353 46.0999 16.7205 46.1764 16.61C46.253 16.4995 46.321 16.423 46.3805 16.3804C46.3805 16.3719 46.3932 16.3677 46.4187 16.3677C46.5293 16.3677 46.6483 16.406 46.7758 16.4825C46.9033 16.559 47.0266 16.6525 47.1456 16.763C47.2646 16.8735 47.3752 16.9841 47.4772 17.0946C47.5877 17.2136 47.677 17.3156 47.745 17.4006H47.694C47.626 17.4006 47.5622 17.3879 47.5027 17.3624C47.4517 17.3454 47.3879 17.3369 47.3114 17.3369V17.9872H43.83C43.779 17.9872 43.7322 17.9362 43.6897 17.8342C43.6557 17.7407 43.6175 17.6812 43.5749 17.6557L43.2306 17.9872H39.5835C39.5409 17.9872 39.5112 17.966 39.4942 17.9235C39.4772 17.8895 39.4602 17.847 39.4432 17.796C39.4347 17.7535 39.4219 17.7067 39.4049 17.6557C39.3879 17.6132 39.3624 17.5834 39.3284 17.5664L39.2391 17.9107C39.2306 17.9192 39.2136 17.932 39.1881 17.949C39.1711 17.9745 39.1584 17.9872 39.1499 17.9872H37.288C37.2285 17.9872 37.1818 17.9362 37.1477 17.8342C37.1137 17.7407 37.0755 17.6812 37.033 17.6557C36.982 17.6727 36.9522 17.6939 36.9437 17.7194C36.9437 17.7535 36.9437 17.7875 36.9437 17.8215C36.9437 17.8555 36.9395 17.8852 36.931 17.9107C36.931 17.9447 36.9054 17.9702 36.8544 17.9872L36.5229 18C36.2933 18 36.1318 17.966 36.0383 17.898C35.9448 17.8385 35.898 17.6854 35.898 17.4389H37.7088L37.8364 17.3114V13.9702C38.2019 13.9702 38.5633 13.9787 38.9203 13.9957C39.2774 14.0128 39.6387 14.0425 40.0043 14.085C40.0808 14.0765 40.1276 14.0893 40.1446 14.1233C40.1701 14.1573 40.1828 14.1998 40.1828 14.2508C40.1828 14.2848 40.1786 14.3146 40.1701 14.3401C40.1531 14.2806 40.1063 14.238 40.0298 14.2125C39.9618 14.187 39.881 14.17 39.7875 14.1615C39.7025 14.153 39.6132 14.153 39.5197 14.1615C39.4347 14.1615 39.3709 14.1615 39.3284 14.1615H38.9841C38.9076 14.2125 38.8566 14.2763 38.8311 14.3528C38.8141 14.4293 38.8056 14.5101 38.8056 14.5951C38.8056 14.7141 38.8311 14.8204 38.8821 14.9139C38.9416 14.9989 39.0011 15.084 39.0606 15.169C39.1201 15.254 39.1711 15.3433 39.2136 15.4368C39.2561 15.5303 39.2646 15.6451 39.2391 15.7811C39.3071 15.6961 39.3922 15.6153 39.4942 15.5388C39.6047 15.4623 39.7025 15.4028 39.7875 15.3603V17.4006H40.9352V13.3581H36.2678C36.2253 13.3581 36.1998 13.3114 36.1913 13.2179C36.1828 13.1158 36.1786 13.0478 36.1786 13.0138C36.1786 12.9968 36.1786 12.9501 36.1786 12.8735C36.1871 12.797 36.2168 12.7588 36.2678 12.7588H45.271C45.2795 12.7588 45.3263 12.7205 45.4113 12.644C45.4963 12.559 45.5856 12.4612 45.6791 12.3507C45.7726 12.2402 45.8576 12.1339 45.9341 12.0319C46.0107 11.9214 46.0489 11.8406 46.0489 11.7896C46.0489 11.6961 45.9852 11.5685 45.8576 11.407C45.7386 11.2455 45.5813 11.0712 45.3858 10.8842C45.1903 10.6886 44.9735 10.4931 44.7354 10.2976C44.4974 10.0935 44.2636 9.91073 44.034 9.7492C43.8045 9.58767 43.592 9.4559 43.3964 9.35388C43.2009 9.25186 43.0479 9.20085 42.9373 9.20085V11.7896C42.9373 11.8831 42.8566 11.9639 42.695 12.0319C42.5335 12.0999 42.3465 12.1552 42.1339 12.1977C41.9299 12.2317 41.7344 12.2572 41.5473 12.2742C41.3603 12.2912 41.2413 12.2997 41.1903 12.2997C41.1392 12.2997 41.0967 12.2954 41.0627 12.2869C41.0287 12.2784 40.9862 12.2529 40.9352 12.2104C40.9352 12.1339 40.931 11.9936 40.9225 11.7896C40.914 11.5855 40.9054 11.373 40.8969 11.152C40.8884 10.9224 40.8799 10.7099 40.8714 10.5143C40.8629 10.3103 40.8587 10.1658 40.8587 10.0808V10.0425C40.8587 9.95749 40.8629 9.86823 40.8714 9.77471C40.8799 9.67269 40.8969 9.58342 40.9225 9.50691C40.9565 9.42189 41.0032 9.35388 41.0627 9.30287C41.1307 9.25186 41.2158 9.22636 41.3178 9.22636C41.4963 9.22636 41.6663 9.27311 41.8279 9.36663C41.9979 9.45165 42.1722 9.49415 42.3507 9.49415C42.4187 9.49415 42.4697 9.48565 42.5037 9.46865C42.5463 9.44315 42.5675 9.39214 42.5675 9.31562C42.5675 9.25611 42.4995 9.20085 42.3635 9.14984C42.2359 9.09883 42.0829 9.05207 41.9044 9.00956C41.7344 8.95855 41.5643 8.9118 41.3943 8.86929C41.2243 8.81828 41.101 8.77152 41.0245 8.72901C40.9565 8.6865 40.9097 8.661 40.8842 8.6525C40.8672 8.644 40.8289 8.63974 40.7694 8.63974H40.6802C40.7227 8.69075 40.7482 8.73326 40.7567 8.76727C40.7652 8.79277 40.7694 8.83103 40.7694 8.88204C40.7694 8.97556 40.7567 9.07758 40.7312 9.1881C40.7057 9.29862 40.6759 9.41339 40.6419 9.53241C40.6164 9.64293 40.5951 9.75345 40.5781 9.86397C40.5696 9.9745 40.5781 10.0765 40.6036 10.17C40.2381 10.3656 39.8683 10.5569 39.4942 10.7439C39.1286 10.9224 38.7545 11.0882 38.372 11.2412C37.9979 11.3858 37.6111 11.509 37.2115 11.6111C36.8204 11.7046 36.4209 11.7641 36.0128 11.7896C36.0043 11.7811 36 11.7641 36 11.7386C36 11.6961 36.1148 11.6026 36.3443 11.458C36.5739 11.305 36.8587 11.1222 37.1988 10.9097C37.5388 10.6886 37.9086 10.4421 38.3082 10.17C38.7163 9.89798 39.0904 9.61743 39.4304 9.32837C39.7705 9.03932 40.0553 8.74601 40.2848 8.44846C40.5144 8.1424 40.6291 7.85335 40.6291 7.5813H36.4209C36.4209 7.47078 36.4549 7.36876 36.5229 7.27524H36.4336L36.3061 7.36451V6.98193H45.1052C45.1988 6.98193 45.2795 6.93092 45.3475 6.82891C45.424 6.72689 45.4963 6.61637 45.5643 6.49734C45.6323 6.36982 45.7046 6.25505 45.7811 6.15303C45.8661 6.05101 45.9681 6 46.0872 6C46.2147 6 46.3592 6.05526 46.5208 6.16578C46.6823 6.2678 46.8396 6.39107 46.9926 6.5356C47.1541 6.67163 47.2986 6.8119 47.4262 6.95643C47.5622 7.09245 47.6685 7.19872 47.745 7.27524C47.609 7.24123 47.5112 7.25399 47.4517 7.3135C47.3922 7.36451 47.3454 7.45377 47.3114 7.5813H43.83L43.1541 8.3847C43.1456 8.4017 43.1414 8.43146 43.1414 8.47396C43.1414 8.58448 43.2561 8.6695 43.4857 8.72901C43.7237 8.78852 44.0128 8.84378 44.3528 8.89479C44.7014 8.9458 45.0797 9.00956 45.4878 9.08608C45.8959 9.15409 46.27 9.25611 46.61 9.39214C46.9586 9.52816 47.2476 9.7152 47.4772 9.95324C47.7152 10.1828 47.8342 10.4803 47.8342 10.8459L47.8215 11.0244C47.762 10.9139 47.7152 10.8034 47.6812 10.6929C47.6472 10.5739 47.609 10.4676 47.5664 10.3741C47.5239 10.2721 47.4644 10.1913 47.3879 10.1318C47.3114 10.0638 47.2051 10.0298 47.0691 10.0298C47.0691 10.1063 47.0819 10.1743 47.1074 10.2338C47.1329 10.2933 47.1626 10.3528 47.1966 10.4123C47.2306 10.4718 47.2604 10.5313 47.2859 10.5909C47.3114 10.6504 47.3242 10.7184 47.3242 10.7949C47.3242 10.9139 47.2986 11.0117 47.2476 11.0882C47.2051 11.1562 47.1159 11.1902 46.9798 11.1902C46.9118 11.1902 46.8566 11.1775 46.8141 11.152C46.7715 11.118 46.729 11.0882 46.6865 11.0627C46.6525 11.0287 46.6143 10.9989 46.5718 10.9734C46.5378 10.9394 46.491 10.9224 46.4315 10.9224C46.3635 10.9224 46.3082 10.9352 46.2657 10.9607C46.2232 10.9777 46.2019 11.0244 46.2019 11.101C46.2019 11.2285 46.2487 11.322 46.3422 11.3815C46.4357 11.441 46.5463 11.4835 46.6738 11.509C46.8013 11.5345 46.9331 11.5473 47.0691 11.5473C47.2051 11.5388 47.3157 11.5345 47.4007 11.5345C47.4432 11.5345 47.4772 11.5345 47.5027 11.5345C47.5282 11.526 47.5579 11.5133 47.592 11.4963C47.5409 11.5388 47.4687 11.5898 47.3752 11.6493C47.2901 11.7088 47.2051 11.7683 47.1201 11.8278C47.0351 11.8874 46.9586 11.9426 46.8906 11.9936C46.8311 12.0446 46.8013 12.0744 46.8013 12.0829V12.1211C46.8438 12.1892 46.9203 12.2614 47.0308 12.3379C47.1499 12.4145 47.2646 12.4952 47.3752 12.5802C47.4942 12.6567 47.5962 12.7375 47.6812 12.8225C47.7747 12.899 47.8215 12.9798 47.8215 13.0648V13.1796C47.7705 13.1796 47.7237 13.1626 47.6812 13.1286C47.6387 13.0946 47.5962 13.0563 47.5537 13.0138C47.5197 12.9713 47.4814 12.9331 47.4389 12.899C47.4049 12.8565 47.3624 12.8268 47.3114 12.8098C47.3114 12.8013 47.2986 12.797 47.2731 12.797C47.2136 12.797 47.1626 12.8225 47.1201 12.8735C47.0861 12.916 47.0564 12.9713 47.0308 13.0393C47.0138 13.0988 47.0011 13.1626 46.9926 13.2306C46.9841 13.2901 46.9798 13.3326 46.9798 13.3581H43.0649V15.0159H44.085C44.1786 15.0159 44.2593 14.9692 44.3273 14.8757C44.4039 14.7736 44.4719 14.6631 44.5314 14.5441C44.5994 14.4251 44.6717 14.3188 44.7482 14.2253C44.8247 14.1233 44.914 14.0723 45.016 14.0723C45.1435 14.0723 45.2838 14.1275 45.4368 14.238C45.5983 14.3401 45.7556 14.4633 45.9086 14.6079C46.0702 14.7439 46.2147 14.8842 46.3422 15.0287C46.4697 15.1732 46.5675 15.2837 46.6355 15.3603C46.542 15.5048 46.4017 15.5898 46.2147 15.6153H44.8502C44.7227 15.6153 44.5611 15.6196 44.3656 15.6281C44.1786 15.6366 43.9958 15.6451 43.8172 15.6536C43.6387 15.6621 43.4814 15.6706 43.3454 15.6791C43.2179 15.6876 43.1541 15.6918 43.1541 15.6918L43.0649 15.7811V17.4006H45.4496ZM41.9554 7.32625C41.9554 7.41977 41.9894 7.49203 42.0574 7.54304C42.1339 7.59405 42.2189 7.61955 42.3125 7.61955C42.3805 7.61955 42.44 7.5983 42.491 7.55579C42.542 7.50478 42.5675 7.44102 42.5675 7.36451C42.5675 7.24548 42.508 7.18597 42.389 7.18597L42.2997 7.19872C42.2742 7.19872 42.2147 7.21148 42.1212 7.23698C42.0362 7.25399 41.9809 7.26674 41.9554 7.27524V7.32625ZM38.8821 10.3741C39.0946 10.3741 39.2136 10.3358 39.2391 10.2593C39.2646 10.1743 39.2774 10.0255 39.2774 9.81297C39.1499 9.81297 39.0521 9.88098 38.9841 10.017C38.9161 10.1445 38.8821 10.2635 38.8821 10.3741ZM38.3847 10.5909H38.3082L38.3847 10.6801V10.5909ZM47.745 11.2795C47.7195 11.2795 47.7067 11.2625 47.7067 11.2285C47.7067 11.1945 47.7195 11.1817 47.745 11.1902C47.7705 11.1987 47.7832 11.2157 47.7832 11.2412C47.7832 11.2582 47.7705 11.271 47.745 11.2795ZM47.6175 11.4708L47.592 11.4963L47.6175 11.4708ZM42.0064 13.7407C42.0064 13.6217 41.9554 13.5069 41.8534 13.3964C41.7514 13.2774 41.6451 13.2179 41.5346 13.2179C41.5006 13.2179 41.4708 13.2221 41.4453 13.2306L41.7896 13.7407H42.0064ZM39.5835 14.4166L39.66 14.5058H39.4942L39.5835 14.4166ZM39.7492 14.6716C39.7577 14.6376 39.7875 14.6121 39.8385 14.5951L39.7492 14.7609V14.6716ZM42.389 15.271C42.389 15.1605 42.3295 15.0925 42.2104 15.0669C42.0999 15.0329 42.0022 15.0159 41.9171 15.0159C41.8746 15.0159 41.8109 15.0202 41.7259 15.0287C41.6493 15.0372 41.6111 15.0755 41.6111 15.1435C41.6111 15.1605 41.6153 15.1732 41.6238 15.1817C41.7344 15.1987 41.8619 15.22 42.0064 15.2455C42.1509 15.271 42.2785 15.3092 42.389 15.3603V15.271ZM38.3847 17.0181C38.3847 17.1456 38.4315 17.2221 38.525 17.2476C38.6185 17.2731 38.7248 17.2859 38.8438 17.2859C38.8438 17.1838 38.8183 17.0903 38.7673 17.0053C38.7248 16.9203 38.6398 16.8778 38.5123 16.8778C38.4867 16.8778 38.474 16.882 38.474 16.8905C38.44 16.899 38.4102 16.9245 38.3847 16.9671V17.0181ZM47.9108 17.4772C47.9703 17.5197 48.017 17.5622 48.051 17.6047C48.085 17.6472 48.102 17.7024 48.102 17.7705C48.0255 17.7705 47.966 17.7365 47.9235 17.6684C47.881 17.6004 47.847 17.5367 47.8215 17.4772H47.9108ZM36.3443 17.7322C36.3358 17.6897 36.3146 17.6642 36.2806 17.6557C36.2466 17.6472 36.2126 17.6429 36.1786 17.6429C36.1446 17.6429 36.1148 17.6472 36.0893 17.6557V17.7322H36.3443Z" fill="#E63946"/>
<path d="M54.2656 7.42969L55.4688 8.35938C55.6875 8.57812 55.651 8.72396 55.3594 8.79688H50.6016L50.4375 8.41406H53.6094L54.2656 7.42969ZM52.2422 17.2188V17.8203C52.2786 18.0755 52.0234 18.2396 51.4766 18.3125C51.112 18.3854 50.9297 18.2943 50.9297 18.0391V13.2266L52.3516 13.7188H53.5L53.9922 12.8984L55.0859 14.1016C55.2682 14.3203 55.25 14.4844 55.0312 14.5938L54.8672 14.6484V17.2734C54.8672 17.4557 54.776 17.5833 54.5938 17.6562L54.2109 17.7656C53.7734 17.9115 53.5547 17.8385 53.5547 17.5469V17.2188H52.2422ZM53.5547 14.1016H52.2422V16.8359H53.5547V14.1016ZM50.9297 11.9688H53.5L54.1562 11.0391L55.1953 11.9688C55.3776 12.151 55.3411 12.2786 55.0859 12.3516H50.9297V11.9688ZM50.9297 10.5469V10.1641H53.3359L53.9922 9.28906L54.9219 10.1641C55.1042 10.3464 55.0677 10.474 54.8125 10.5469H50.9297ZM50.9297 6.99219V6.60938H53.2266L53.9375 5.73438L55.0859 6.60938C55.2682 6.79167 55.2135 6.91927 54.9219 6.99219H50.9297ZM58.5859 15.7969H55.25L55.1406 15.4141H58.5859V14.4297H57.4375V14.5938C57.4375 14.7396 57.3828 14.8307 57.2734 14.8672C57.0911 14.9766 56.7812 15.0312 56.3438 15.0312C56.1979 14.9948 56.125 14.9036 56.125 14.7578V11.3125C55.8698 11.3125 55.7422 11.2031 55.7422 10.9844V7.92188L57.1094 8.41406H57.9297V6.99219H55.4688L55.25 6.60938H61.6484L62.3594 5.57031L63.5625 6.60938C63.7812 6.82812 63.7448 6.97396 63.4531 7.04688L60.8828 6.99219V8.41406H61.6484L62.1406 7.64844L63.2891 8.74219C63.4714 8.92448 63.4531 9.07031 63.2344 9.17969L63.0703 9.23438V10.6016C63.0703 10.8203 62.8516 10.9479 62.4141 10.9844C62.2682 11.0208 62.1042 11.0391 61.9219 11.0391C61.8125 11.0391 61.7578 10.9479 61.7578 10.7656V10.5469H57.0547V10.7656C57.0547 10.9844 56.9271 11.1302 56.6719 11.2031L57.6562 11.5859H60.9922L61.4844 10.8203L62.6875 11.9688C62.8698 12.151 62.8516 12.2969 62.6328 12.4062L62.5234 12.4609V14.4297L63.6172 15.3594C63.7995 15.5781 63.763 15.724 63.5078 15.7969H59.8984V17.8203C59.8984 17.9661 59.8255 18.0755 59.6797 18.1484C59.4609 18.2214 59.1693 18.2943 58.8047 18.3672C58.6589 18.3307 58.5859 18.2396 58.5859 18.0938V15.7969ZM57.0547 10.1641H57.9297V8.79688H57.0547V10.1641ZM57.4375 13.1719V14.0469H61.2109V13.1719H57.4375ZM57.4375 12.7891H61.2109V11.9688H57.4375V12.7891ZM59.0234 10.1641H59.7891V8.79688H59.0234V10.1641ZM59.0234 6.99219V8.41406H59.7891V6.99219H59.0234ZM59.8984 15.4141H61.6484L62.25 14.5938C61.9948 14.6667 61.7578 14.7214 61.5391 14.7578C61.3203 14.7943 61.2109 14.7214 61.2109 14.5391V14.4297H59.8984V15.4141ZM60.8828 10.1641H61.7578V8.79688H60.8828V10.1641Z" fill="#FDFDFD"/>
</svg>
