<svg width="125" height="104" viewBox="0 0 125 104" fill="none" xmlns="http://www.w3.org/2000/svg">
<g clip-path="url(#clip0_42_1741)">
<path d="M17.6785 10.9913L24.059 102.71H111.111C110.901 99.7694 110.765 97.8528 110.765 97.8528L103.988 2.63805C103.96 2.25374 103.781 1.89636 103.492 1.64375C103.202 1.39114 102.825 1.26377 102.442 1.28936L18.8638 7.16126C18.4816 7.19059 18.1263 7.37007 17.8748 7.66082C17.6233 7.95158 17.496 8.3302 17.5203 8.71467L17.6785 10.9913Z" fill="#F1F1F1"/>
<path d="M94.5691 29.0523C94.5625 28.9575 94.5374 28.8649 94.4952 28.7798C94.453 28.6947 94.3945 28.6188 94.3231 28.5564C94.2517 28.4941 94.1688 28.4464 94.0791 28.4163C93.9894 28.3861 93.8946 28.374 93.8002 28.3807L84.9214 29.0045L84.8615 29.1727C84.4178 30.3097 83.9956 31.4547 83.5949 32.6078C83.5194 32.771 83.4954 32.9534 83.526 33.1306C83.6179 33.3419 83.7874 33.5093 83.9991 33.5981L87.138 35.3982C87.2781 35.4788 87.4305 35.5744 87.4711 35.7313C87.4871 35.8165 87.4845 35.9041 87.4636 35.9881C87.315 36.8291 85.7939 41.2749 85.4742 42.2136L94.7172 41.564C94.8116 41.5574 94.9037 41.5322 94.9884 41.4899C95.0731 41.4475 95.1487 41.3887 95.2108 41.3169C95.2728 41.2452 95.3202 41.1618 95.3502 41.0716C95.3802 40.9814 95.3922 40.8862 95.3855 40.7913L94.5691 29.0523Z" fill="#F1F1F1"/>
<path d="M87.4711 35.7322C87.4305 35.5753 87.2781 35.4796 87.138 35.399L83.9991 33.599C83.7874 33.5102 83.6179 33.3427 83.526 33.1315C83.4954 32.9542 83.5194 32.7718 83.5949 32.6087C83.9952 31.4556 84.4174 30.3105 84.8615 29.1736L84.9214 29.0054L66.2847 30.3154C66.1903 30.3219 66.0982 30.3471 66.0135 30.3895C65.9288 30.4319 65.8532 30.4906 65.7911 30.5624C65.7291 30.6342 65.6817 30.7176 65.6517 30.8077C65.6217 30.8979 65.6097 30.9932 65.6164 31.088L66.4328 42.8249C66.4463 43.0164 66.5348 43.1947 66.6789 43.3206C66.8231 43.4465 67.0111 43.5098 67.2017 43.4965L85.4742 42.2123C85.795 41.2736 87.315 36.8278 87.4636 35.9868C87.4842 35.9035 87.4867 35.8166 87.4711 35.7322Z" fill="#E63946"/>
<path d="M44.5953 70.919L21.9606 72.5095C21.9606 72.5095 22.0028 73.1146 22.0787 74.2096C22.3765 78.4878 23.1951 90.2515 24.0617 102.71H47.5369C46.8953 93.5577 45.972 80.2583 45.3689 71.5902C45.3622 71.495 45.3368 71.4021 45.2942 71.3168C45.2516 71.2315 45.1927 71.1555 45.1208 71.0931C45.0489 71.0308 44.9655 70.9833 44.8753 70.9534C44.7851 70.9236 44.69 70.9119 44.5953 70.919Z" fill="#8D6E63"/>
<path d="M93.8003 27.0909L76.3548 28.3171L67.3118 28.9522C66.1581 29.0334 64.8658 29.0629 64.4301 30.4213C64.3244 30.8779 64.3085 31.3508 64.3836 31.8135L64.5365 34.0122L64.938 39.7826L65.0947 42.0292C65.0926 42.4673 65.1368 42.9045 65.2267 43.3332C65.6721 44.8044 66.9713 44.8034 68.1753 44.719L71.7542 44.4675L93.0122 42.9732C93.5795 42.9335 94.151 42.9098 94.7172 42.8534C94.988 42.8392 95.2533 42.7712 95.4979 42.6533C95.7424 42.5355 95.9613 42.3702 96.142 42.167C96.3227 41.9637 96.4615 41.7266 96.5505 41.4691C96.6395 41.2117 96.677 40.9391 96.6606 40.667C96.6425 40.1625 96.5906 39.6569 96.5537 39.1528C96.3233 35.8392 96.1431 32.5179 95.8619 29.2085C95.865 28.6537 95.6501 28.1199 95.2639 27.7234C94.8777 27.3269 94.3513 27.0996 93.7992 27.0909C92.1477 27.0163 92.1514 29.5954 93.7992 29.6701C93.2961 29.647 93.2854 28.7373 93.2983 29.244C93.3031 29.4455 93.3261 29.6481 93.34 29.849L93.4881 31.9779L93.873 37.5081L94.0302 39.7681C94.0441 39.9664 93.9767 40.6031 94.1002 40.7734C93.8014 40.3608 94.7953 40.3022 94.675 40.2775C94.5992 40.2738 94.5233 40.2791 94.4488 40.293L93.4603 40.3629L73.5966 41.76L69.4146 42.0539L68.0197 42.1517C67.7765 42.1424 67.5329 42.1605 67.2937 42.2054C67.2707 42.2129 67.2199 42.1973 67.2006 42.2118C67.716 41.8282 67.7182 43.2709 67.7016 42.6379C67.6882 42.1243 67.63 41.6074 67.5947 41.0947L67.2242 35.7672L66.9226 31.4342C66.8692 30.655 66.7874 31.698 66.3254 31.6045C66.5383 31.6147 66.7517 31.5998 66.9611 31.5599L74.8968 31.0021L93.4378 29.6991L93.7997 29.6739C94.1375 29.6658 94.4593 29.5274 94.6982 29.2872C94.9371 29.0471 95.0749 28.7238 95.0829 28.3843C95.0809 28.0426 94.9453 27.7154 94.7053 27.4734C94.4653 27.2314 94.1402 27.094 93.8003 27.0909Z" fill="#2D2D2D"/>
<path d="M25.3422 102.71L24.9819 97.5315L24.0527 84.1693L22.7759 65.818L21.3859 45.8698L20.1123 27.5297L19.1751 14.0584L18.9035 10.1494C18.82 9.6764 18.7865 9.19587 18.8035 8.7158C18.8623 8.35902 18.7575 8.62875 19.0254 8.42941C19.0329 8.42349 18.7928 8.46003 18.8896 8.44875C18.9532 8.44176 19.0179 8.43961 19.0815 8.43532C19.4023 8.41651 19.7231 8.39072 20.0402 8.36815L23.9313 8.09465L37.8989 7.11296L56.7259 5.78952L76.3543 4.41021L92.7187 3.26033L101.757 2.62521C101.966 2.61016 102.185 2.57416 102.399 2.58007C102.495 2.58616 102.59 2.60218 102.682 2.62789C102.789 2.65154 102.731 2.85787 102.707 2.65369C102.707 2.67518 102.707 2.69721 102.712 2.71817C102.777 3.37155 102.805 4.03085 102.852 4.68532L103.6 15.225L104.79 31.9197L106.189 51.5831L107.574 71.0343L108.72 87.1359L109.392 96.5874L109.482 97.8485C109.49 98.188 109.628 98.5114 109.867 98.7515C110.106 98.9916 110.427 99.1301 110.765 99.1381C111.105 99.1353 111.429 98.9985 111.669 98.7573C111.909 98.5161 112.045 98.1897 112.048 97.8485L111.677 92.6257L110.717 79.148L109.408 60.7526L107.977 40.6566L106.654 22.0555L105.674 8.29239C105.541 6.41175 105.456 4.52412 105.273 2.65046C105.233 1.91947 104.911 1.23298 104.375 0.737683C103.838 0.242387 103.13 -0.0224261 102.402 -0.000167089C102.193 0.00466885 101.982 0.0293858 101.773 0.0438937L98.41 0.280317L85.0899 1.21741L66.3661 2.53333L46.4543 3.93037L29.5862 5.11786L19.8402 5.80296C19.56 5.82284 19.2788 5.83842 18.9992 5.86206C18.3774 5.87291 17.7765 6.0893 17.2893 6.4778C16.8021 6.8663 16.4559 7.40526 16.3041 8.01136C16.2189 8.66825 16.2263 9.33391 16.326 9.98872L17.0018 19.666L18.1368 35.9872L19.5044 55.6459L20.8769 75.3765L22.0162 91.7595L22.6883 101.417L22.7781 102.71C22.7858 103.05 22.9235 103.373 23.1625 103.613C23.4015 103.854 23.7233 103.992 24.0612 104C24.4007 103.997 24.7254 103.86 24.9655 103.619C25.2055 103.378 25.3416 103.051 25.3444 102.71H25.3422Z" fill="#2D2D2D"/>
<path d="M25.5523 16.9447L54.2269 14.9292L82.0964 12.9706L96.9937 11.9239C97.3316 11.9161 97.6535 11.7777 97.8925 11.5376C98.1314 11.2974 98.2691 10.9739 98.2769 10.6343C98.2741 10.2932 98.138 9.96678 97.8979 9.72554C97.6579 9.4843 97.3332 9.34753 96.9937 9.34473L70.0433 11.2388L41.6927 13.2312L25.5523 14.3655C25.2144 14.3733 24.8925 14.5117 24.6536 14.7518C24.4146 14.992 24.2769 15.3155 24.2692 15.6551C24.272 15.9962 24.408 16.3226 24.6481 16.5639C24.8881 16.8051 25.2129 16.9419 25.5523 16.9447Z" fill="#2D2D2D"/>
<path d="M21.9632 73.7959L32.0178 73.0898L44.2387 72.2301C44.3533 72.2345 44.468 72.2264 44.5809 72.2059C44.6295 72.0985 43.804 71.9373 44.0874 71.5939C44.0794 71.603 44.0927 71.6476 44.0917 71.6589C44.0909 71.9971 44.1145 72.3349 44.1622 72.6696L44.5039 77.5738L45.5518 92.5969C45.7827 95.9149 45.9699 99.2393 46.2468 102.554C46.2511 102.607 46.2538 102.658 46.2575 102.71C46.2654 103.05 46.4031 103.373 46.642 103.614C46.881 103.854 47.2028 103.992 47.5406 104C47.8801 103.997 48.2048 103.86 48.4449 103.619C48.6849 103.378 48.821 103.052 48.8238 102.71L48.225 94.1428L47.1488 78.6872L46.7659 73.1957C46.666 71.7594 46.7355 69.7471 44.7648 69.6343C43.6653 69.6364 42.567 69.7071 41.4762 69.846L34.3451 70.3473C30.2941 70.6316 26.2383 70.8782 22.1899 71.2011C22.1151 71.207 22.0397 71.2119 21.9643 71.2167C21.6265 71.2248 21.3048 71.3632 21.0658 71.6033C20.8269 71.8434 20.6892 72.1668 20.6812 72.5063C20.6839 72.8474 20.82 73.1738 21.0601 73.4151C21.3001 73.6563 21.6249 73.7931 21.9643 73.7959H21.9632Z" fill="#2D2D2D"/>
<path d="M106.091 49.853C103.168 52.0791 100.238 54.2956 97.3278 56.5384C95.7784 57.733 94.2354 58.9359 92.6988 60.1471C92.0052 60.6958 91.3145 61.2479 90.6266 61.8031C89.8548 62.3273 89.3176 63.1339 89.1296 64.0507C89.0686 64.7975 89.1033 65.5491 89.2327 66.2871C89.3062 67.0458 89.3775 67.8047 89.4466 68.5637C89.6095 70.3075 89.7699 72.0517 89.9278 73.7962C90.0882 75.5468 90.2503 77.2971 90.4143 79.047C90.4899 79.8422 90.5663 80.6371 90.6437 81.4316C90.7185 82.1892 90.7121 82.4439 90.0978 82.9039C86.7188 85.4325 83.2709 87.8677 79.8497 90.3367C79.5629 90.5158 79.3553 90.7986 79.2697 91.1268C79.1841 91.4551 79.2269 91.8038 79.3894 92.1013C79.563 92.3945 79.8443 92.6074 80.1727 92.6939C80.5011 92.7805 80.8502 92.7338 81.1446 92.5639C84.2525 90.3211 87.3781 88.1041 90.4603 85.8243C91.1283 85.3919 91.761 84.9067 92.3524 84.3735C92.6881 84.0191 92.9413 83.5944 93.094 83.1298C93.2466 82.6652 93.2948 82.1724 93.2351 81.6868C93.087 80.0706 92.9239 78.4564 92.7742 76.8407C92.4588 73.4378 92.1551 70.0338 91.8295 66.6315C91.702 65.9506 91.6364 65.2594 91.6333 64.5666C91.6953 63.9433 92.639 63.4629 93.0838 63.1066C94.5248 61.951 95.9762 60.8083 97.4379 59.6785C100.736 57.1235 104.063 54.6078 107.382 52.0796C107.668 51.8998 107.875 51.6172 107.961 51.2894C108.046 50.9615 108.004 50.6132 107.843 50.3156C107.669 50.022 107.388 49.8087 107.06 49.7221C106.731 49.6355 106.382 49.6825 106.087 49.853H106.091Z" fill="#2D2D2D"/>
<path d="M91.3131 70.0629C94.7952 72.1977 98.3704 74.2674 101.707 76.6252L101.071 75.5119C101.144 78.0099 101.354 80.5047 101.46 83.0017C101.53 84.6556 104.096 84.6642 104.026 83.0017C103.948 81.1689 103.836 79.3377 103.734 77.5064C103.699 76.8724 103.684 76.2351 103.64 75.6022C103.583 74.779 103.065 74.4308 102.449 74.0219C100.235 72.5491 97.9651 71.1569 95.7073 69.7528C94.6762 69.1113 93.6425 68.4724 92.6064 67.8362C91.1922 66.9695 89.9016 69.1989 91.3109 70.0629H91.3131Z" fill="#2D2D2D"/>
<path d="M124.814 63.6967C124.565 63.3492 124.314 63.0023 124.061 62.6559C123.619 62.1919 123.281 61.638 123.07 61.0316C122.994 60.5815 123.094 60.1192 123.35 59.742C123.726 59.1214 123.954 58.4212 124.014 57.6969C124.055 56.9832 123.915 56.2707 123.608 55.6261C123.336 55.0404 122.81 54.5863 122.595 53.9786C122.512 53.7303 122.487 53.4659 122.523 53.2064C122.56 52.9469 122.656 52.6995 122.804 52.4838C123.235 51.7981 123.691 51.1286 124.134 50.4511C125.043 49.0594 122.822 47.7644 121.918 49.1491C121.023 50.5198 119.863 51.8755 119.943 53.6143C119.983 54.4396 120.26 55.2356 120.739 55.9071C121.128 56.4584 121.556 56.9731 121.447 57.6969C121.362 58.267 120.917 58.7619 120.717 59.2998C120.457 60.0456 120.409 60.8494 120.576 61.6215C120.833 62.9144 121.851 63.9589 122.598 64.9992C122.777 65.2872 123.058 65.4957 123.385 65.5817C123.711 65.6678 124.058 65.6248 124.354 65.4618C124.646 65.2873 124.858 65.0045 124.944 64.6743C125.03 64.3442 124.984 63.9927 124.814 63.6967Z" fill="#2D2D2D"/>
<path d="M1.52691 33.937C0.712649 35.7397 -0.490837 37.6983 0.211686 39.7331C0.358978 40.1735 0.57187 40.589 0.843102 40.9652C1.08369 41.293 1.40608 41.5622 1.62422 41.9028C1.80185 42.1999 1.90011 42.538 1.90947 42.8845C1.91884 43.2309 1.839 43.5739 1.67768 43.8802C1.20151 44.8131 1.01701 45.8689 1.14838 46.9091C1.32496 47.8963 1.81223 48.8004 2.53846 49.4883C2.79429 49.7063 2.99208 49.9849 3.11398 50.299C3.23588 50.6131 3.27806 50.9527 3.23671 51.2872C3.09235 52.2082 2.46415 52.9788 2.32407 53.9148C2.14712 55.022 2.38917 56.1557 3.00253 57.0925C3.7243 58.1554 4.81177 59.0161 5.72067 59.9119C6.9001 61.0757 8.71468 59.2536 7.53579 58.0882C6.80653 57.3682 6.00403 56.6815 5.33038 55.9083C5.11495 55.6711 4.96206 55.3835 4.88567 55.0717C4.80928 54.7599 4.81181 54.4338 4.89304 54.1233C5.11919 53.2807 5.62978 52.5623 5.76023 51.6843C5.90231 50.7399 5.74775 49.7745 5.31808 48.9225C4.95078 48.1777 4.19533 47.7334 3.83872 47.0069C3.70415 46.6988 3.64342 46.3633 3.66144 46.0273C3.67945 45.6913 3.7757 45.3643 3.94244 45.0725C4.36691 44.2399 4.53168 43.298 4.41522 42.3698C4.29876 41.4416 3.90649 40.5703 3.28964 39.8696C3.03285 39.6446 2.83398 39.3605 2.70999 39.0415C2.58599 38.7226 2.54053 38.3783 2.57749 38.0379C2.73147 37.0895 3.35112 36.1035 3.74248 35.2384C3.90396 34.941 3.94624 34.5928 3.86066 34.265C3.77509 33.9373 3.56814 33.6548 3.28215 33.4754C2.98775 33.3054 2.63862 33.2587 2.3102 33.3452C1.98177 33.4318 1.70042 33.6447 1.52691 33.9381V33.937Z" fill="#2D2D2D"/>
<path d="M21.0971 50.4385L29.0446 53.9634C29.2416 54.0774 29.465 54.1375 29.6923 54.1375C29.9197 54.1375 30.1431 54.0774 30.3401 53.9634C32.0467 52.6792 33.7008 51.3224 35.4486 50.0946L33.6934 49.632C34.8995 52.1123 36.0936 54.5988 37.2755 57.0917C37.3847 57.2895 37.5456 57.4535 37.7409 57.5661C37.9361 57.6787 38.1582 57.7356 38.3833 57.7306C42.3165 57.2326 46.2474 56.7175 50.1759 56.1852C50.5129 56.1746 50.8332 56.0353 51.0715 55.7957C51.3099 55.5561 51.4485 55.2343 51.4591 54.8956C51.4591 54.2713 50.8678 53.5131 50.1759 53.606C46.2474 54.1362 42.3165 54.6513 38.3833 55.1514L39.4911 55.7903C38.3148 53.2949 37.1208 50.8082 35.9089 48.33C35.7361 48.036 35.4547 47.8224 35.126 47.7357C34.7973 47.6491 34.4479 47.6964 34.1537 47.8674C32.4059 49.0957 30.7517 50.453 29.0446 51.7362H30.3401L22.3926 48.2118C22.0963 48.0497 21.7497 48.0073 21.4234 48.0933C21.0971 48.1793 20.8158 48.3871 20.6368 48.6745C20.4677 48.9703 20.4211 49.3212 20.5073 49.6513C20.5934 49.9814 20.8053 50.2641 21.0971 50.4385Z" fill="#2D2D2D"/>
<path d="M28.1608 52.7117C28.3493 54.5096 28.5208 56.3096 28.6751 58.1118C28.6751 58.4538 28.8103 58.7819 29.0509 59.0237C29.2916 59.2655 29.6179 59.4014 29.9582 59.4014C30.2986 59.4014 30.6249 59.2655 30.8656 59.0237C31.1062 58.7819 31.2414 58.4538 31.2414 58.1118C31.0885 56.31 30.917 54.5099 30.7271 52.7117C30.7172 52.3716 30.5841 52.0468 30.3528 51.7982C30.1734 51.6173 29.9444 51.4939 29.6951 51.4439C29.4458 51.3939 29.1873 51.4194 28.9524 51.5173C28.7176 51.6152 28.517 51.7809 28.376 51.9936C28.2351 52.2062 28.1601 52.4562 28.1608 52.7117Z" fill="#2D2D2D"/>
<path d="M83.6239 28.8295C83.3149 29.6258 83.0149 30.4257 82.7241 31.2292C82.4322 32.0406 81.9889 32.9347 82.4177 33.7815C82.7856 34.5075 83.5774 34.8406 84.2483 35.2259L85.4818 35.933L86.0421 36.2554L86.2661 36.3838C86.5284 36.5629 86.5609 36.5629 86.3634 36.3838L86.188 35.7331C86.1757 35.5719 86.2073 35.7224 86.188 35.8158C86.1747 35.8921 86.1501 35.9674 86.1303 36.0421C86.0661 36.2812 85.9945 36.5181 85.9223 36.7551C85.7218 37.4155 85.508 38.0721 85.2925 38.7276C84.9407 39.7969 84.5782 40.8629 84.2157 41.929C83.6811 43.5028 86.1586 44.1788 86.6906 42.6146C87.2482 40.9753 87.8107 39.3369 88.3229 37.6825C88.5677 36.8916 88.9965 35.8733 88.5774 35.0819C88.1801 34.3328 87.2498 33.9803 86.5505 33.5773L85.4278 32.9326C85.2412 32.8251 85.0535 32.7176 84.8675 32.6102L84.6435 32.4817C84.4496 32.3628 84.4451 32.3612 84.6301 32.4769L84.8054 33.1276C84.7648 32.6977 85.1995 31.8966 85.3615 31.4533C85.5992 30.8035 85.8437 30.1565 86.095 29.5125C86.183 29.1828 86.1384 28.8315 85.9707 28.5347C85.803 28.2378 85.5257 28.0193 85.1989 27.9263C84.871 27.8432 84.5239 27.8904 84.2298 28.0582C83.9356 28.226 83.7173 28.5013 83.6201 28.8268L83.6239 28.8295Z" fill="#2D2D2D"/>
</g>
<defs>
<clipPath id="clip0_42_1741">
<rect width="125" height="104" fill="white"/>
</clipPath>
</defs>
</svg>
