<svg width="237" height="100" viewBox="0 0 237 100" fill="none" xmlns="http://www.w3.org/2000/svg">
<path d="M111.079 98.9206C111.079 93.9183 110.851 58.2774 110.851 52.7681H62.3336C62.3336 53.5231 62.3952 89.8323 62.3952 99.0017" fill="#FDFDFD"/>
<path d="M108.071 52.769C108.071 51.4856 108.05 49.5601 108.05 48.7679H64.8877C64.8877 49.4628 64.892 52.2186 64.892 52.769" fill="#FDFDFD"/>
<path d="M132.818 98.9946C132.818 93.4943 132.702 42.3905 132.702 36.3327H92.3582C92.3582 38.2143 92.426 98.2505 92.426 98.872" fill="#FDFDFD"/>
<path d="M176.706 98.913C176.706 93.4008 176.456 64.5556 176.456 58.4844H118.519C118.519 59.3172 118.586 88.8984 118.586 99.0027" fill="#FDFDFD"/>
<path d="M181.057 22.243C181.057 20.9595 181.055 18.9963 181.055 18.2041C170.896 18.2041 152.005 18.2012 149.708 18.2012V22.252" fill="#FDFDFD"/>
<path d="M184.618 99.0132C184.618 95.8944 184.37 28.3966 184.37 22.377H146.147C146.147 22.8153 146.166 78.6372 146.184 99.0532" fill="#FDFDFD"/>
<path d="M45.039 98.9206C45.039 93.9183 44.8113 66.3895 44.8113 60.8801H7.12004C7.12004 61.6352 7.18163 95.2066 7.18163 99.0122" fill="#FDFDFD"/>
<path d="M54.9753 99.0008C54.9753 96.6689 54.9424 29.2423 54.94 27.1236H17.2487C17.2487 27.4575 17.2606 85.7891 17.274 98.9879" fill="#FDFDFD"/>
<path d="M230.544 98.5219C230.544 92.6935 230.316 51.4064 230.316 44.987H192.646C192.646 45.8675 192.707 87.9335 192.707 98.6163" fill="#FDFDFD"/>
<path d="M192.706 81.2685C192.706 80.4954 192.706 45.9018 192.706 44.987H230.379C230.379 45.9018 230.379 80.4954 230.379 81.2685" fill="#E63946"/>
<path d="M160.002 64.1835C159.47 64.1835 155.081 64.1945 154.192 64.1945V69.8703H159.979C159.979 68.9235 160.002 64.4521 160.002 64.1835Z" fill="#E63946"/>
<path d="M170.441 64.1835C169.909 64.1835 165.52 64.1945 164.631 64.1945V69.8703H170.416C170.416 68.9235 170.441 64.4521 170.441 64.1835Z" fill="#E63946"/>
<path d="M19.2089 67.7459C18.7258 67.7459 14.7433 67.7554 13.9365 67.7554V72.9066H19.1879C19.1865 72.0471 19.2089 67.9892 19.2089 67.7459Z" fill="#E63946"/>
<path d="M28.6816 67.7459C28.199 67.7459 24.216 67.7554 23.4092 67.7554V72.9066H28.6606C28.6597 72.0471 28.6816 67.9892 28.6816 67.7459Z" fill="#E63946"/>
<path d="M38.1548 67.6753C37.6717 67.6753 33.6892 67.6849 32.8823 67.6849V72.836H38.1338C38.1324 71.9765 38.1548 67.9186 38.1548 67.6753Z" fill="#E63946"/>
<path d="M19.2089 77.4801C18.7258 77.4801 14.7433 77.4901 13.9365 77.4901V82.6412H19.1879C19.1865 81.7817 19.2089 77.7238 19.2089 77.4801Z" fill="#E63946"/>
<path d="M28.6816 77.4801C28.199 77.4801 24.216 77.4901 23.4092 77.4901V82.6412H28.6606C28.6597 81.7817 28.6816 77.7238 28.6816 77.4801Z" fill="#E63946"/>
<path d="M38.1548 77.41C37.6717 77.41 33.6892 77.42 32.8823 77.42V82.5711H38.1338C38.1324 81.7112 38.1548 77.6532 38.1548 77.41Z" fill="#E63946"/>
<path d="M184.429 22.377C181.326 22.377 151.326 22.388 146.147 22.388V28.016H184.435C184.434 27.0769 184.429 22.6431 184.429 22.377Z" fill="#E63946"/>
<path d="M17.2984 60.665C17.2984 60.3006 17.2984 27.5558 17.2984 27.1246H22.7112C22.7112 27.5539 22.7112 60.3006 22.7112 60.665" fill="#E63946"/>
<path d="M28.1245 60.665V27.1246H33.5378V60.665" fill="#E63946"/>
<path d="M110.854 58.0842C108.016 58.0842 67.1578 58.0942 62.4166 58.0942V63.2454H110.859" fill="#E63946"/>
<path d="M110.854 67.8189C108.016 67.8189 67.1578 67.8284 62.4166 67.8284V72.9795H110.859" fill="#E63946"/>
<path d="M110.854 77.5531C108.016 77.5531 67.1578 77.5626 62.4166 77.5626V82.7137H110.859" fill="#E63946"/>
<path d="M109.026 52.769C109.026 51.4336 109.005 50.1014 109.004 48.7679C109.001 48.516 108.899 48.2755 108.721 48.0974C108.542 47.9193 108.302 47.8177 108.05 47.814H64.8877C64.6356 47.8177 64.3949 47.9193 64.2166 48.0974C64.0384 48.2755 63.9366 48.516 63.9329 48.7679C63.9329 50.1033 63.9372 51.4355 63.9372 52.769C63.9372 53.9963 65.8468 53.9986 65.8468 52.769C65.8468 51.4336 65.843 50.1014 65.8425 48.7679L64.8877 49.7218H108.05L107.095 48.7679C107.095 50.1033 107.115 51.435 107.116 52.769C107.116 53.9963 109.026 53.9986 109.026 52.769Z" fill="#2D2D2D"/>
<path d="M112.034 98.9206C112.034 93.5158 111.986 88.1109 111.957 82.7066C111.916 75.1707 111.875 67.6361 111.834 60.1027C111.823 57.6578 111.807 55.213 111.806 52.7681C111.803 52.5162 111.701 52.2755 111.523 52.0974C111.344 51.9192 111.104 51.8176 110.851 51.8142H62.3336C62.0815 51.8178 61.8407 51.9194 61.6624 52.0975C61.4841 52.2757 61.3823 52.5162 61.3788 52.7681C61.3788 57.2626 61.3858 61.7571 61.3998 66.2516C61.4122 74.0813 61.4233 81.911 61.4332 89.7407C61.4364 92.8279 61.4388 95.9149 61.4403 99.0017C61.4403 100.229 63.35 100.231 63.35 99.0017C63.35 92.5021 63.3431 86.0026 63.3294 79.5033C63.3189 72.2403 63.3078 64.9772 63.296 57.7141C63.2938 56.0651 63.2912 54.4164 63.2884 52.7681L62.3336 53.722H110.854L109.899 52.7681C109.899 58.2931 109.947 63.8187 109.976 69.3437C110.017 76.8443 110.058 84.3452 110.099 91.8465C110.111 94.2045 110.126 96.5626 110.127 98.9206C110.127 100.148 112.036 100.15 112.036 98.9206H112.034Z" fill="#2D2D2D"/>
<path d="M182.012 22.243C182.012 20.8964 182.011 19.5501 182.009 18.2041C182.006 17.9522 181.904 17.7117 181.726 17.5335C181.548 17.3554 181.307 17.2538 181.055 17.2502C171.812 17.2502 162.569 17.2494 153.326 17.2478H149.708C149.456 17.2514 149.215 17.353 149.037 17.5312C148.859 17.7093 148.757 17.9498 148.753 18.2017V22.2525C148.753 23.4802 150.663 23.4821 150.663 22.2525V18.2012L149.708 19.1552C157.609 19.1552 165.509 19.1552 173.41 19.1552H181.055L180.1 18.2012C180.1 19.5472 180.101 20.8935 180.103 22.2401C180.103 23.4673 182.012 23.4697 182.012 22.2401V22.243Z" fill="#2D2D2D"/>
<path d="M61.4728 61.5498V77.6628C61.4728 78.8904 63.3824 78.8928 63.3824 77.6628V61.5498C63.3824 60.3221 61.4728 60.3202 61.4728 61.5498Z" fill="#2D2D2D"/>
<path d="M21.7569 27.1246V57.7365C21.7569 58.9642 23.6665 58.9661 23.6665 57.7365V27.1246C23.6665 25.8969 21.7569 25.8945 21.7569 27.1246Z" fill="#2D2D2D"/>
<path d="M27.1697 27.1246V57.7365C27.1697 58.9642 29.0793 58.9661 29.0793 57.7365V27.1246C29.0793 25.8969 27.1697 25.8945 27.1697 27.1246Z" fill="#2D2D2D"/>
<path d="M32.583 27.1246V57.7365C32.583 58.9642 34.4926 58.9661 34.4926 57.7365V27.1246C34.4926 25.8969 32.583 25.8945 32.583 27.1246Z" fill="#2D2D2D"/>
<path d="M41.4146 27.5758V39.5827C41.4146 40.8103 43.3242 40.8123 43.3242 39.5827V27.5758C43.3242 26.3481 41.4146 26.3462 41.4146 27.5758Z" fill="#2D2D2D"/>
<path d="M47.0174 27.5758V45.1702C47.0174 46.3979 48.927 46.3998 48.927 45.1702V27.5758C48.927 26.3481 47.0174 26.3462 47.0174 27.5758Z" fill="#2D2D2D"/>
<path d="M55.9301 81.984C55.9301 79.9347 55.929 77.8852 55.9268 75.8355C55.9242 71.5544 55.9215 67.2734 55.9187 62.9926C55.9158 57.9152 55.9126 52.838 55.9091 47.761C55.9062 43.3228 55.9032 38.8846 55.9 34.4463C55.9 32.086 55.8984 29.7254 55.8953 27.3645V27.126C55.8918 26.8741 55.7901 26.6335 55.6118 26.4553C55.4335 26.2772 55.1926 26.1756 54.9405 26.1721H17.2487C16.9966 26.1756 16.7557 26.2772 16.5774 26.4553C16.3991 26.6335 16.2974 26.8741 16.2939 27.126C16.2939 34.3309 16.2995 41.5361 16.3106 48.7416C16.3135 51.7404 16.3163 54.7392 16.3192 57.738C16.3192 58.9656 18.2288 58.9676 18.2288 57.738C18.2193 48.3353 18.2113 38.9326 18.205 29.5299C18.205 28.7286 18.205 27.9273 18.205 27.126L17.2501 28.0799H54.9414L53.9866 27.126C53.9888 29.1416 53.9903 31.1574 53.9909 33.1733L54.0181 74.554C54.0181 76.9461 54.0194 79.3382 54.0219 81.7302V81.9854C54.0219 83.2131 55.9315 83.215 55.9315 81.9854L55.9301 81.984Z" fill="#2D2D2D"/>
<path d="M175.352 99.8746C176.58 99.8746 176.582 97.9667 175.352 97.9667C174.121 97.9667 174.121 99.8746 175.352 99.8746Z" fill="#2D2D2D"/>
<path d="M177.661 98.913C177.661 94.1063 177.611 89.2995 177.576 84.4928C177.53 78.1016 177.486 71.7118 177.442 65.3235C177.428 63.0441 177.411 60.7642 177.411 58.4844C177.407 58.2325 177.305 57.992 177.127 57.8138C176.949 57.6357 176.708 57.5341 176.456 57.5305H118.519C118.267 57.5342 118.026 57.6359 117.848 57.814C117.669 57.9921 117.568 58.2326 117.564 58.4844C117.564 62.2523 117.579 66.0174 117.587 69.7839C117.6 76.5319 117.612 83.2797 117.623 90.0273C117.627 93.0194 117.63 96.0112 117.632 99.0027C117.632 100.23 119.541 100.232 119.541 99.0027C119.541 93.0277 119.534 87.0526 119.518 81.0773C119.507 74.9481 119.495 68.8187 119.482 62.6892C119.479 61.2879 119.473 59.8862 119.473 58.4844L118.519 59.4383H176.456L175.501 58.4844C175.501 63.4247 175.551 68.3645 175.586 73.3043C175.631 79.6568 175.676 86.0095 175.721 92.3625C175.734 94.546 175.752 96.7295 175.752 98.913C175.752 100.141 177.661 100.143 177.661 98.913Z" fill="#2D2D2D"/>
<path d="M133.773 54.2419C133.773 48.2718 133.659 42.3027 133.657 36.3327C133.654 36.0808 133.552 35.8403 133.374 35.6621C133.195 35.484 132.954 35.3824 132.702 35.3788H92.3582C92.106 35.3822 91.8652 35.4838 91.6868 35.662C91.5085 35.8401 91.4068 36.0808 91.4033 36.3327C91.4033 39.1944 91.4673 42.0562 91.4711 44.9179C91.4711 46.1456 93.3808 46.1475 93.3808 44.9179C93.3769 42.0562 93.3139 39.1944 93.313 36.3327L92.3582 37.2866H132.702L131.748 36.3327C131.748 42.3027 131.862 48.2718 131.863 54.2419C131.863 55.4691 133.773 55.4715 133.773 54.2419Z" fill="#2D2D2D"/>
<path d="M45.039 99.8746C46.2679 99.8746 46.2698 97.9667 45.039 97.9667C43.8083 97.9667 43.8083 99.8746 45.039 99.8746Z" fill="#2D2D2D"/>
<path d="M45.9938 98.9206C45.9938 94.4163 45.9461 89.9119 45.917 85.408C45.8753 79.3386 45.8344 73.2695 45.7943 67.2008C45.7819 65.094 45.7666 62.9869 45.7661 60.8801C45.7627 60.6282 45.661 60.3876 45.4826 60.2094C45.3043 60.0313 45.0635 59.9297 44.8113 59.9262H7.12004C6.86793 59.9298 6.62714 60.0315 6.44885 60.2096C6.27055 60.3877 6.16881 60.6283 6.16523 60.8801C6.16523 66.5664 6.20438 72.2527 6.21918 77.9389C6.22268 79.2928 6.22523 80.6468 6.22682 82.0007C6.22682 83.2284 8.13644 83.2303 8.13644 82.0007C8.13644 75.7907 8.10303 69.5808 8.0825 63.3708C8.07963 62.5409 8.07534 61.71 8.07486 60.8801L7.12004 61.8341H44.8113L43.8565 60.8801C43.8565 65.5066 43.9042 70.1297 43.9338 74.7543C43.9749 80.7897 44.0158 86.8249 44.0565 92.86C44.0685 94.8799 44.0842 96.9003 44.0842 98.9206C44.0842 100.148 45.9938 100.15 45.9938 98.9206Z" fill="#2D2D2D"/>
<path d="M19.2089 66.792C17.4511 66.792 15.6938 66.8015 13.9365 66.8015C13.6843 66.8051 13.4436 66.9068 13.2653 67.0849C13.087 67.263 12.9852 67.5036 12.9816 67.7554V72.9066C12.9852 73.1584 13.087 73.399 13.2653 73.5771C13.4436 73.7553 13.6843 73.8569 13.9365 73.8605H19.1879C19.4401 73.8569 19.6808 73.7553 19.8591 73.5771C20.0374 73.399 20.1392 73.1584 20.1427 72.9066C20.1427 71.1862 20.1638 69.4653 20.1652 67.745C20.1652 67.492 20.0646 67.2493 19.8855 67.0704C19.7065 66.8915 19.4636 66.791 19.2104 66.791C18.9571 66.791 18.7143 66.8915 18.5352 67.0704C18.3562 67.2493 18.2556 67.492 18.2556 67.745C18.2556 69.4653 18.2336 71.1862 18.2331 72.9066L19.1879 71.9527H13.9365L14.8913 72.9066V67.7554L13.9365 68.7094C15.6938 68.7094 17.4511 68.6998 19.2089 68.6998C19.4622 68.6998 19.705 68.5993 19.8841 68.4204C20.0632 68.2415 20.1638 67.9989 20.1638 67.7459C20.1638 67.4929 20.0632 67.2503 19.8841 67.0714C19.705 66.8925 19.4622 66.792 19.2089 66.792Z" fill="#2D2D2D"/>
<path d="M28.6816 66.792C26.9243 66.792 25.167 66.8015 23.4092 66.8015C23.157 66.8051 22.9163 66.9068 22.738 67.0849C22.5597 67.263 22.4579 67.5036 22.4543 67.7554V72.9066C22.458 73.1584 22.5598 73.3989 22.7381 73.577C22.9164 73.7551 23.1571 73.8568 23.4092 73.8605H28.6606C28.9127 73.8568 29.1534 73.7551 29.3317 73.577C29.51 73.3989 29.6118 73.1584 29.6155 72.9066C29.6155 71.1862 29.6365 69.4653 29.6374 67.745C29.6374 67.492 29.5368 67.2493 29.3578 67.0704C29.1787 66.8915 28.9358 66.791 28.6826 66.791C28.4294 66.791 28.1865 66.8915 28.0074 67.0704C27.8284 67.2493 27.7278 67.492 27.7278 67.745C27.7278 69.4653 27.7058 71.1862 27.7058 72.9066L28.6606 71.9527H23.4092L24.364 72.9066V67.7554L23.4092 68.7094C25.167 68.7094 26.9243 68.6998 28.6816 68.6998C28.9349 68.6998 29.1777 68.5993 29.3568 68.4204C29.5359 68.2415 29.6365 67.9989 29.6365 67.7459C29.6365 67.4929 29.5359 67.2503 29.3568 67.0714C29.1777 66.8925 28.9349 66.792 28.6816 66.792Z" fill="#2D2D2D"/>
<path d="M38.1548 66.7214C36.3975 66.7214 34.6397 66.7309 32.8823 66.7309C32.6302 66.7345 32.3894 66.8362 32.2111 67.0143C32.0329 67.1924 31.9311 67.433 31.9275 67.6849V72.836C31.9311 73.0879 32.0329 73.3284 32.2111 73.5065C32.3894 73.6847 32.6302 73.7863 32.8823 73.7899H38.1338C38.386 73.7864 38.6268 73.6848 38.8052 73.5067C38.9835 73.3285 39.0852 73.0879 39.0886 72.836C39.0886 71.1156 39.1096 69.3947 39.1111 67.6744C39.1111 67.4214 39.0105 67.1787 38.8314 66.9998C38.6524 66.821 38.4095 66.7205 38.1563 66.7205C37.903 66.7205 37.6602 66.821 37.4811 66.9998C37.302 67.1787 37.2014 67.4214 37.2014 67.6744C37.2014 69.3947 37.1795 71.1156 37.179 72.836L38.1338 71.8821H32.8823L33.8372 72.836V67.6849L32.8823 68.6388C34.6397 68.6388 36.3975 68.6292 38.1548 68.6292C38.4081 68.6292 38.6509 68.5287 38.83 68.3498C39.009 68.1709 39.1096 67.9283 39.1096 67.6753C39.1096 67.4223 39.009 67.1797 38.83 67.0008C38.6509 66.8219 38.4081 66.7214 38.1548 66.7214Z" fill="#2D2D2D"/>
<path d="M19.2089 76.5262C17.4511 76.5262 15.6938 76.5357 13.9365 76.5362C13.6843 76.5398 13.4436 76.6414 13.2653 76.8195C13.087 76.9977 12.9852 77.2382 12.9816 77.4901V82.6412C12.9852 82.8931 13.087 83.1337 13.2653 83.3118C13.4436 83.4899 13.6843 83.5916 13.9365 83.5951H19.1879C19.44 83.5914 19.6807 83.4897 19.859 83.3116C20.0373 83.1336 20.139 82.8931 20.1427 82.6412C20.1427 80.9204 20.1638 79.2 20.1652 77.4791C20.1652 77.2261 20.0646 76.9835 19.8855 76.8046C19.7065 76.6257 19.4636 76.5252 19.2104 76.5252C18.9571 76.5252 18.7143 76.6257 18.5352 76.8046C18.3562 76.9835 18.2556 77.2261 18.2556 77.4791C18.2556 79.2 18.2336 80.9204 18.2331 82.6412L19.1879 81.6873H13.9365L14.8913 82.6412V77.4901L13.9365 78.444C15.6938 78.444 17.4511 78.4345 19.2089 78.434C19.4622 78.434 19.705 78.3335 19.8841 78.1546C20.0632 77.9757 20.1638 77.7331 20.1638 77.4801C20.1638 77.2271 20.0632 76.9845 19.8841 76.8056C19.705 76.6267 19.4622 76.5262 19.2089 76.5262Z" fill="#2D2D2D"/>
<path d="M28.6816 76.5262C26.9243 76.5262 25.167 76.5357 23.4092 76.5362C23.157 76.5398 22.9163 76.6414 22.738 76.8195C22.5597 76.9977 22.4579 77.2382 22.4543 77.4901V82.6412C22.458 82.8931 22.5598 83.1336 22.7381 83.3116C22.9164 83.4897 23.1571 83.5914 23.4092 83.5951H28.6606C28.9127 83.5914 29.1534 83.4897 29.3317 83.3116C29.51 83.1336 29.6118 82.8931 29.6155 82.6412C29.6155 80.9204 29.6365 79.2 29.6374 77.4791C29.6374 77.2261 29.5368 76.9835 29.3578 76.8046C29.1787 76.6257 28.9358 76.5252 28.6826 76.5252C28.4294 76.5252 28.1865 76.6257 28.0074 76.8046C27.8284 76.9835 27.7278 77.2261 27.7278 77.4791C27.7278 79.2 27.7058 80.9204 27.7058 82.6412L28.6606 81.6873H23.4092L24.364 82.6412V77.4901L23.4092 78.444C25.167 78.444 26.9243 78.4345 28.6816 78.434C28.9349 78.434 29.1777 78.3335 29.3568 78.1546C29.5359 77.9757 29.6365 77.7331 29.6365 77.4801C29.6365 77.2271 29.5359 76.9845 29.3568 76.8056C29.1777 76.6267 28.9349 76.5262 28.6816 76.5262Z" fill="#2D2D2D"/>
<path d="M38.1548 76.4561C36.3975 76.4561 34.6397 76.4656 32.8823 76.4661C32.6302 76.4697 32.3894 76.5713 32.2111 76.7494C32.0329 76.9276 31.9311 77.1681 31.9275 77.42V82.5711C31.931 82.823 32.0327 83.0637 32.211 83.2418C32.3893 83.42 32.6302 83.5216 32.8823 83.525H38.1338C38.386 83.5216 38.6268 83.42 38.8052 83.2418C38.9835 83.0637 39.0852 82.823 39.0886 82.5711C39.0886 80.8507 39.1096 79.1303 39.1111 77.4095C39.1111 77.1565 39.0105 76.9139 38.8314 76.735C38.6524 76.5561 38.4095 76.4556 38.1563 76.4556C37.903 76.4556 37.6602 76.5561 37.4811 76.735C37.302 76.9139 37.2014 77.1565 37.2014 77.4095C37.2014 79.1303 37.1795 80.8507 37.179 82.5711L38.1338 81.6172H32.8823L33.8372 82.5711V77.42L32.8823 78.3739C34.6397 78.3739 36.3975 78.3644 38.1548 78.3639C38.4081 78.3639 38.6509 78.2634 38.83 78.0845C39.009 77.9056 39.1096 77.663 39.1096 77.41C39.1096 77.157 39.009 76.9144 38.83 76.7355C38.6509 76.5566 38.4081 76.4561 38.1548 76.4561Z" fill="#2D2D2D"/>
<path d="M111.35 99.8746C112.579 99.8746 112.581 97.9667 111.35 97.9667C110.119 97.9667 110.119 99.8746 111.35 99.8746Z" fill="#2D2D2D"/>
<path d="M62.4181 64.1983H110.859C112.088 64.1983 112.09 62.2905 110.859 62.2905H62.4181C61.1897 62.2905 61.1873 64.1983 62.4181 64.1983Z" fill="#2D2D2D"/>
<path d="M62.4181 59.0381H110.859C112.088 59.0381 112.09 57.1303 110.859 57.1303H62.4181C61.1897 57.1303 61.1873 59.0381 62.4181 59.0381Z" fill="#2D2D2D"/>
<path d="M62.4181 73.9344H110.859C112.088 73.9344 112.09 72.0266 110.859 72.0266H62.4181C61.1897 72.0266 61.1873 73.9344 62.4181 73.9344Z" fill="#2D2D2D"/>
<path d="M62.4181 68.7728H110.859C112.088 68.7728 112.09 66.865 110.859 66.865H62.4181C61.1897 66.865 61.1873 68.7728 62.4181 68.7728Z" fill="#2D2D2D"/>
<path d="M62.4181 83.6686H110.859C112.088 83.6686 112.09 81.7608 110.859 81.7608H62.4181C61.1897 81.7608 61.1873 83.6686 62.4181 83.6686Z" fill="#2D2D2D"/>
<path d="M62.4181 78.507H110.859C112.088 78.507 112.09 76.5992 110.859 76.5992H62.4181C61.1897 76.5992 61.1873 78.507 62.4181 78.507Z" fill="#2D2D2D"/>
<path d="M132.81 85.9146V98.9579C132.81 100.186 134.72 100.187 134.72 98.9579V85.9146C134.72 84.6874 132.81 84.685 132.81 85.9146Z" fill="#2D2D2D"/>
<path d="M123.583 85.9146V98.9579C123.583 100.186 125.493 100.187 125.493 98.9579V85.9146C125.493 84.6874 123.583 84.685 123.583 85.9146Z" fill="#2D2D2D"/>
<path d="M142.038 85.9146V98.9579C142.038 100.186 143.947 100.187 143.947 98.9579V85.9146C143.947 84.6874 142.038 84.685 142.038 85.9146Z" fill="#2D2D2D"/>
<path d="M151.265 85.9146V98.9579C151.265 100.186 153.175 100.187 153.175 98.9579V85.9146C153.175 84.6874 151.265 84.685 151.265 85.9146Z" fill="#2D2D2D"/>
<path d="M160.492 85.9146V98.9579C160.492 100.186 162.402 100.187 162.402 98.9579V85.9146C162.402 84.6874 160.492 84.685 160.492 85.9146Z" fill="#2D2D2D"/>
<path d="M169.718 85.9146V98.9579C169.718 100.186 171.628 100.187 171.628 98.9579V85.9146C171.628 84.6874 169.718 84.685 169.718 85.9146Z" fill="#2D2D2D"/>
<path d="M185.573 81.984C185.573 79.7971 185.558 77.6108 185.549 75.4239C185.53 70.993 185.51 66.5623 185.489 62.1317C185.465 56.8241 185.441 51.5166 185.418 46.209C185.396 41.3914 185.376 36.5742 185.356 31.7573C185.344 28.8036 185.334 25.85 185.325 22.8964V22.377C185.321 22.1251 185.22 21.8847 185.041 21.7066C184.863 21.5285 184.622 21.4268 184.37 21.4231H146.147C145.895 21.4268 145.654 21.5285 145.476 21.7066C145.298 21.8847 145.196 22.1251 145.192 22.377C145.192 24.1319 145.195 25.8866 145.199 27.6411C145.206 32.495 145.212 37.3489 145.217 42.2031C145.222 46.2349 145.226 50.2668 145.229 54.2986C145.229 55.5263 147.139 55.5282 147.139 54.2986C147.133 47.7955 147.126 41.2921 147.119 34.7883C147.114 31.2569 147.11 27.7254 147.104 24.1937C147.104 23.5896 147.104 22.984 147.104 22.377L146.149 23.3309H184.373L183.418 22.377C183.418 25.0198 183.432 27.6621 183.442 30.3049C183.461 34.9702 183.48 39.6354 183.502 44.3007C183.525 49.6223 183.549 54.9433 183.573 60.2639C183.594 64.8745 183.615 69.4839 183.635 74.0923C183.647 76.6192 183.657 79.1458 183.666 81.672V81.984C183.666 83.2117 185.576 83.2136 185.576 81.984H185.573Z" fill="#2D2D2D"/>
<path d="M177.756 35.7241H152.248H177.756Z" fill="#FDFDFD"/>
<path d="M177.756 34.7702H152.248C151.02 34.7702 151.018 36.678 152.248 36.678H177.756C178.985 36.678 178.987 34.7702 177.756 34.7702Z" fill="#2D2D2D"/>
<path d="M184.299 28.0165H146.147H184.299Z" fill="#FDFDFD"/>
<path d="M184.299 27.0626H146.147C144.918 27.0626 144.916 28.9704 146.147 28.9704H184.299C185.527 28.9704 185.53 27.0626 184.299 27.0626Z" fill="#2D2D2D"/>
<path d="M177.756 41.6321H152.248H177.756Z" fill="#FDFDFD"/>
<path d="M177.756 40.6782H152.248C151.02 40.6782 151.018 42.5861 152.248 42.5861H177.756C178.985 42.5861 178.987 40.6782 177.756 40.6782Z" fill="#2D2D2D"/>
<path d="M177.756 47.5407H152.248H177.756Z" fill="#FDFDFD"/>
<path d="M177.756 46.5868H152.248C151.02 46.5868 151.018 48.4946 152.248 48.4946H177.756C178.985 48.4946 178.987 46.5868 177.756 46.5868Z" fill="#2D2D2D"/>
<path d="M176.641 90.427H118.573H176.641Z" fill="#FDFDFD"/>
<path d="M176.641 89.4731H118.573C117.344 89.4731 117.342 91.3809 118.573 91.3809H176.641C177.869 91.3809 177.871 89.4731 176.641 89.4731Z" fill="#2D2D2D"/>
<path d="M176.641 85.9146H118.573H176.641Z" fill="#FDFDFD"/>
<path d="M176.641 84.9606H118.573C117.344 84.9606 117.342 86.8685 118.573 86.8685H176.641C177.869 86.8685 177.871 84.9606 176.641 84.9606Z" fill="#2D2D2D"/>
<path d="M205.111 87.7508V98.5691C205.111 99.7968 207.021 99.7987 207.021 98.5691V87.7508C207.021 86.5236 205.111 86.5212 205.111 87.7508Z" fill="#2D2D2D"/>
<path d="M211.043 88.1453V98.3097C211.043 99.5374 212.953 99.5397 212.953 98.3097V88.1453C212.953 86.9181 211.043 86.9157 211.043 88.1453Z" fill="#2D2D2D"/>
<path d="M216.976 87.7508V98.5691C216.976 99.7968 218.885 99.7987 218.885 98.5691V87.7508C218.885 86.5236 216.976 86.5212 216.976 87.7508Z" fill="#2D2D2D"/>
<path d="M231.499 81.984C231.499 77.9508 231.451 73.9172 231.422 69.8846C231.379 63.8431 231.338 57.8017 231.299 51.7603C231.286 49.5029 231.272 47.2454 231.271 44.9875C231.268 44.7356 231.166 44.4951 230.988 44.317C230.809 44.1388 230.568 44.0372 230.316 44.0336H192.646C192.393 44.0373 192.153 44.139 191.975 44.3171C191.796 44.4952 191.694 44.7357 191.691 44.9875C191.691 46.55 191.693 48.1125 191.697 49.675C191.702 53.2974 191.707 56.92 191.712 60.5429C191.717 65.1456 191.723 69.748 191.729 74.3503C191.735 78.8315 191.74 83.3126 191.745 87.7938C191.748 91.121 191.751 94.4481 191.752 97.775V98.6168C191.752 99.8445 193.662 99.8464 193.662 98.6168C193.662 95.5138 193.66 92.4109 193.656 89.3081C193.651 84.8924 193.646 80.4768 193.641 76.0611C193.635 71.4137 193.629 66.7663 193.623 62.1188C193.619 58.335 193.613 54.5511 193.608 50.7673C193.606 49.5145 193.604 48.2615 193.603 47.0084C193.603 46.3883 193.651 45.744 193.603 45.1258C193.599 45.0805 193.603 45.0333 193.603 44.9875L192.648 45.9414H230.319L229.364 44.9875C229.364 49.7742 229.408 54.5614 229.441 59.3477C229.48 65.1789 229.521 71.0099 229.563 76.8405C229.575 78.5551 229.591 80.2698 229.592 81.9845C229.592 83.2121 231.501 83.214 231.501 81.9845L231.499 81.984Z" fill="#2D2D2D"/>
<path d="M230.544 87.5691H193.453H230.544Z" fill="#FDFDFD"/>
<path d="M230.544 86.6152H193.453C192.224 86.6152 192.222 88.523 193.453 88.523H230.544C231.772 88.523 231.775 86.6152 230.544 86.6152Z" fill="#2D2D2D"/>
<path d="M230.544 81.2685H193.453H230.544Z" fill="#FDFDFD"/>
<path d="M230.544 80.3146H193.453C192.224 80.3146 192.222 82.2225 193.453 82.2225H230.544C231.772 82.2225 231.775 80.3146 230.544 80.3146Z" fill="#2D2D2D"/>
<path d="M217.93 87.7508H206.066H217.93Z" fill="#FDFDFD"/>
<path d="M217.93 86.7969H206.066C204.837 86.7969 204.835 88.7048 206.066 88.7048H217.93C219.159 88.7048 219.161 86.7969 217.93 86.7969Z" fill="#2D2D2D"/>
<path d="M160.002 63.2296C158.066 63.2296 156.129 63.2401 154.192 63.2406C153.94 63.2442 153.699 63.3458 153.521 63.5239C153.342 63.7021 153.241 63.9426 153.237 64.1945V69.8703C153.241 70.1221 153.343 70.3626 153.521 70.5407C153.699 70.7188 153.94 70.8205 154.192 70.8242H159.979C160.231 70.8206 160.472 70.719 160.65 70.5408C160.828 70.3627 160.93 70.1222 160.934 69.8703C160.934 67.9744 160.957 66.0785 160.958 64.1821C160.958 63.9291 160.858 63.6865 160.679 63.5076C160.499 63.3287 160.257 63.2282 160.003 63.2282C159.75 63.2282 159.507 63.3287 159.328 63.5076C159.149 63.6865 159.049 63.9291 159.049 64.1821C159.049 66.0785 159.025 67.9744 159.024 69.8703L159.979 68.9164H154.192L155.147 69.8703V64.1945L154.192 65.1484C156.129 65.1484 158.066 65.1379 160.002 65.1374C160.255 65.1374 160.498 65.0369 160.677 64.858C160.856 64.6792 160.957 64.4365 160.957 64.1835C160.957 63.9305 160.856 63.6879 160.677 63.509C160.498 63.3301 160.255 63.2296 160.002 63.2296Z" fill="#2D2D2D"/>
<path d="M170.441 63.2296C168.504 63.2296 166.567 63.2401 164.631 63.2406C164.379 63.2442 164.138 63.3458 163.96 63.5239C163.781 63.7021 163.68 63.9426 163.676 64.1945V69.8703C163.68 70.1222 163.781 70.3627 163.96 70.5408C164.138 70.719 164.379 70.8206 164.631 70.8242H170.416C170.668 70.8207 170.909 70.7191 171.087 70.541C171.266 70.3628 171.367 70.1222 171.371 69.8703C171.371 67.9744 171.394 66.0785 171.396 64.1821C171.396 63.9291 171.295 63.6865 171.116 63.5076C170.937 63.3287 170.694 63.2282 170.441 63.2282C170.188 63.2282 169.945 63.3287 169.766 63.5076C169.587 63.6865 169.486 63.9291 169.486 64.1821C169.486 66.0785 169.462 67.9744 169.461 69.8703L170.416 68.9164H164.631L165.586 69.8703V64.1945L164.631 65.1484C166.567 65.1484 168.504 65.1379 170.441 65.1374C170.694 65.1374 170.937 65.0369 171.116 64.858C171.295 64.6792 171.396 64.4365 171.396 64.1835C171.396 63.9305 171.295 63.6879 171.116 63.509C170.937 63.3301 170.694 63.2296 170.441 63.2296Z" fill="#2D2D2D"/>
<path d="M112.034 98.9206C112.034 93.5158 111.986 88.1109 111.957 82.7066C111.916 75.1707 111.875 67.6361 111.834 60.1027C111.823 57.6578 111.807 55.213 111.806 52.7681C111.803 52.5162 111.701 52.2755 111.523 52.0974C111.344 51.9192 111.104 51.8176 110.851 51.8142H62.3336C62.0815 51.8178 61.8407 51.9194 61.6624 52.0975C61.4841 52.2757 61.3823 52.5162 61.3788 52.7681C61.3788 57.2626 61.3858 61.7571 61.3998 66.2516C61.4122 74.0813 61.4233 81.911 61.4332 89.7407C61.4364 92.8279 61.4388 95.9149 61.4403 99.0017C61.4403 100.229 63.35 100.231 63.35 99.0017C63.35 92.5021 63.3431 86.0026 63.3294 79.5033C63.3189 72.2403 63.3078 64.9772 63.296 57.7141C63.2938 56.0651 63.2912 54.4164 63.2884 52.7681L62.3336 53.722H110.854L109.899 52.7681C109.899 58.2931 109.947 63.8187 109.976 69.3437C110.017 76.8443 110.058 84.3452 110.099 91.8465C110.111 94.2045 110.126 96.5626 110.127 98.9206C110.127 100.148 112.036 100.15 112.036 98.9206H112.034Z" fill="#2D2D2D"/>
<path d="M227.736 45.1316C224.92 48.3004 222.173 51.5304 219.367 54.7074C218.832 55.3117 218.303 55.9222 217.748 56.5079C216.904 57.3993 218.251 58.7496 219.098 57.8567C222.037 54.7565 224.764 51.4336 227.571 48.2132C228.075 47.6346 228.577 47.0542 229.087 46.4804C229.899 45.5651 228.555 44.211 227.736 45.1316Z" fill="#2D2D2D"/>
<path d="M229.119 50.9185C227.926 52.2587 226.766 53.6252 225.579 54.9688C225.353 55.2244 225.129 55.4829 224.894 55.7319C224.715 55.9108 224.614 56.1535 224.614 56.4065C224.614 56.6596 224.715 56.9023 224.894 57.0812C225.073 57.2601 225.316 57.3606 225.569 57.3606C225.822 57.3606 226.065 57.2601 226.245 57.0812C227.486 55.7686 228.641 54.3625 229.828 53.0018C230.042 52.7571 230.254 52.5115 230.47 52.2687C230.561 52.1807 230.633 52.0755 230.684 51.9591C230.734 51.8427 230.76 51.7175 230.761 51.5909C230.762 51.4642 230.738 51.3386 230.69 51.2214C230.642 51.1041 230.571 50.9976 230.481 50.9081C230.392 50.8185 230.285 50.7477 230.168 50.6997C230.05 50.6517 229.925 50.6276 229.798 50.6287C229.671 50.6298 229.546 50.6561 229.429 50.7061C229.313 50.7561 229.208 50.8288 229.119 50.9199V50.9185Z" fill="#2D2D2D"/>
<path d="M206.339 68.1666C203.361 71.5177 200.456 74.9327 197.488 78.2923C196.908 78.9496 196.333 79.613 195.73 80.2479C194.886 81.1393 196.234 82.4895 197.081 81.5967C200.189 78.3162 203.073 74.8034 206.042 71.3975C206.59 70.7689 207.135 70.1374 207.69 69.514C208.501 68.5987 207.157 67.2446 206.339 68.1647V68.1666Z" fill="#2D2D2D"/>
<path d="M185.802 82.418C185.512 82.1936 185.155 82.0719 184.788 82.0719C184.421 82.0719 184.064 82.1936 183.773 82.418C182.369 83.5162 181.282 84.9682 180.625 86.6247C180.42 87.1241 180.265 87.6428 180.162 88.1729C180.079 88.6799 180.026 89.1913 180.004 89.7044C179.882 90.6044 179.956 91.5199 180.221 92.3887C180.512 93.1258 181.061 93.7317 181.767 94.0934C182.733 94.455 183.757 94.6404 184.788 94.6409C185.819 94.6236 186.839 94.4387 187.81 94.0934C188.516 93.7317 189.065 93.1258 189.357 92.3887C189.621 91.5199 189.695 90.6043 189.573 89.7044C189.551 89.1913 189.498 88.6799 189.415 88.1729C189.312 87.6427 189.157 87.1241 188.951 86.6247C188.294 84.968 187.207 83.5161 185.802 82.418Z" fill="#06D6A0"/>
<path d="M183.019 98.8019V94.806H186.558V98.8019" fill="#8D6E63"/>
<path d="M186.284 81.5962C183.696 79.8262 181.097 83.4339 180.11 85.4519C179.472 86.7841 179.111 88.2315 179.049 89.7068C178.956 91.183 179.02 92.6501 179.989 93.8501C181.443 95.653 184.159 95.758 186.281 95.457C187.467 95.2901 188.579 94.9753 189.414 94.0571C190.442 92.9263 190.627 91.4935 190.547 90.0207C190.506 88.3754 190.109 86.7586 189.382 85.2816C188.679 83.9081 187.689 82.702 186.477 81.7455C186.295 81.5738 186.053 81.4781 185.802 81.4781C185.551 81.4781 185.31 81.5738 185.127 81.7455C184.949 81.9252 184.85 82.1675 184.85 82.4199C184.85 82.6724 184.949 82.9146 185.127 83.0943C186.797 84.3706 187.973 86.1857 188.454 88.2307C188.736 89.3806 188.772 90.5767 188.561 91.7415C188.467 92.1314 188.27 92.4891 187.992 92.778C187.713 93.0668 187.363 93.2764 186.976 93.3851C185.544 93.7786 183.718 93.8821 182.32 93.3021C181.912 93.1132 181.566 92.8137 181.32 92.4377C181.074 92.0618 180.938 91.6244 180.929 91.1754C180.838 90.0209 180.946 88.8595 181.247 87.7413C181.575 86.6326 182.112 85.5965 182.828 84.6888C183.363 84.0091 184.37 82.5964 185.32 83.246C186.337 83.9385 187.293 82.2864 186.284 81.5962Z" fill="#2D2D2D"/>
<path d="M185.517 94.806V98.8019C185.517 99.0549 185.618 99.2975 185.797 99.4764C185.976 99.6553 186.219 99.7558 186.472 99.7558C186.725 99.7558 186.968 99.6553 187.147 99.4764C187.326 99.2975 187.427 99.0549 187.427 98.8019V94.806C187.427 94.553 187.326 94.3103 187.147 94.1314C186.968 93.9525 186.725 93.852 186.472 93.852C186.219 93.852 185.976 93.9525 185.797 94.1314C185.618 94.3103 185.517 94.553 185.517 94.806Z" fill="#2D2D2D"/>
<path d="M181.978 94.806V98.8019C181.978 99.0549 182.079 99.2975 182.258 99.4764C182.437 99.6553 182.68 99.7558 182.933 99.7558C183.186 99.7558 183.429 99.6553 183.608 99.4764C183.787 99.2975 183.888 99.0549 183.888 98.8019V94.806C183.888 94.553 183.787 94.3103 183.608 94.1314C183.429 93.9525 183.186 93.852 182.933 93.852C182.68 93.852 182.437 93.9525 182.258 94.1314C182.079 94.3103 181.978 94.553 181.978 94.806Z" fill="#2D2D2D"/>
<path d="M55.8876 82.418C55.5971 82.1936 55.2403 82.0719 54.8731 82.0719C54.5059 82.0719 54.1491 82.1936 53.8586 82.418C52.4541 83.5162 51.3676 84.9682 50.7106 86.6247C50.5051 87.1241 50.3499 87.6428 50.2475 88.1729C50.1644 88.6799 50.1114 89.1913 50.089 89.7044C49.9674 90.6044 50.0413 91.5199 50.3058 92.3887C50.5968 93.1258 51.1465 93.7317 51.8521 94.0934C52.8184 94.455 53.8418 94.6404 54.8736 94.6409C55.9039 94.6236 56.9244 94.4387 57.8951 94.0934C58.6008 93.7317 59.1507 93.1258 59.4419 92.3887C59.706 91.5199 59.7797 90.6043 59.6582 89.7044C59.6359 89.1913 59.5832 88.6799 59.5002 88.1729C59.3976 87.6427 59.2423 87.1241 59.0366 86.6247C58.3794 84.968 57.2925 83.5161 55.8876 82.418Z" fill="#06D6A0"/>
<path d="M53.1043 98.8019V94.806H56.6429V98.8019" fill="#8D6E63"/>
<path d="M56.3693 81.5962C53.7813 79.8262 51.1823 83.4339 50.195 85.4519C49.5575 86.7841 49.1967 88.2315 49.1342 89.7068C49.0416 91.183 49.1056 92.6501 50.0738 93.8501C51.5279 95.653 54.2444 95.758 56.3665 95.457C57.5519 95.2901 58.6637 94.9753 59.4987 94.0571C60.5275 92.9263 60.7123 91.4935 60.6321 90.0207C60.5914 88.3754 60.194 86.7586 59.4672 85.2816C58.7646 83.9081 57.7739 82.702 56.5627 81.7455C56.3798 81.5738 56.1383 81.4781 55.8874 81.4781C55.6364 81.4781 55.3949 81.5738 55.2121 81.7455C55.0346 81.9252 54.9351 82.1675 54.9351 82.4199C54.9351 82.6724 55.0346 82.9146 55.2121 83.0943C56.8823 84.3706 58.0581 86.1857 58.5396 88.2307C58.8209 89.3806 58.8571 90.5767 58.6461 91.7415C58.5518 92.1314 58.3554 92.4891 58.0769 92.778C57.7984 93.0668 57.448 93.2764 57.0616 93.3851C55.6293 93.7786 53.8033 93.8821 52.4054 93.3021C51.9976 93.1132 51.6509 92.8137 51.4049 92.4377C51.1589 92.0618 51.0234 91.6244 51.0138 91.1754C50.9234 90.0209 51.0313 88.8595 51.3327 87.7413C51.6603 86.6326 52.1968 85.5965 52.9134 84.6888C53.4486 84.0091 54.4554 82.5964 55.4054 83.246C56.4223 83.9385 57.3786 82.2864 56.3693 81.5962Z" fill="#2D2D2D"/>
<path d="M55.6021 94.806V98.8019C55.6021 99.0549 55.7027 99.2975 55.8818 99.4764C56.0609 99.6553 56.3037 99.7558 56.5569 99.7558C56.8102 99.7558 57.053 99.6553 57.2321 99.4764C57.4112 99.2975 57.5118 99.0549 57.5118 98.8019V94.806C57.5118 94.553 57.4112 94.3103 57.2321 94.1314C57.053 93.9525 56.8102 93.852 56.5569 93.852C56.3037 93.852 56.0609 93.9525 55.8818 94.1314C55.7027 94.3103 55.6021 94.553 55.6021 94.806Z" fill="#2D2D2D"/>
<path d="M52.0636 94.806V98.8019C52.0636 99.0549 52.1642 99.2975 52.3433 99.4764C52.5223 99.6553 52.7652 99.7558 53.0184 99.7558C53.2716 99.7558 53.5145 99.6553 53.6936 99.4764C53.8726 99.2975 53.9732 99.0549 53.9732 98.8019V94.806C53.9732 94.553 53.8726 94.3103 53.6936 94.1314C53.5145 93.9525 53.2716 93.852 53.0184 93.852C52.7652 93.852 52.5223 93.9525 52.3433 94.1314C52.1642 94.3103 52.0636 94.553 52.0636 94.806Z" fill="#2D2D2D"/>
<path d="M231.542 82.418C231.252 82.1936 230.895 82.0719 230.528 82.0719C230.161 82.0719 229.804 82.1936 229.513 82.418C228.109 83.5162 227.022 84.9682 226.365 86.6247C226.16 87.1241 226.005 87.6428 225.902 88.1729C225.819 88.6799 225.766 89.1913 225.744 89.7044C225.622 90.6044 225.696 91.5199 225.96 92.3887C226.251 93.1258 226.801 93.7317 227.507 94.0934C228.473 94.455 229.496 94.6404 230.528 94.6409C231.559 94.6236 232.579 94.4387 233.55 94.0934C234.256 93.7317 234.805 93.1258 235.097 92.3887C235.361 91.5199 235.434 90.6043 235.313 89.7044C235.291 89.1913 235.238 88.6799 235.155 88.1729C235.052 87.6427 234.897 87.1241 234.691 86.6247C234.034 84.968 232.947 83.5161 231.542 82.418Z" fill="#06D6A0"/>
<path d="M228.76 98.8019V94.806H232.299V98.8019" fill="#8D6E63"/>
<path d="M232.025 81.5962C229.437 79.8262 226.838 83.4339 225.851 85.4519C225.213 86.7841 224.852 88.2315 224.79 89.7068C224.697 91.183 224.761 92.6501 225.729 93.8501C227.184 95.653 229.9 95.758 232.022 95.457C233.207 95.2901 234.319 94.9753 235.154 94.0571C236.183 92.9263 236.368 91.4935 236.288 90.0207C236.247 88.3754 235.85 86.7586 235.123 85.2816C234.42 83.9081 233.43 82.702 232.218 81.7455C232.035 81.5738 231.794 81.4781 231.543 81.4781C231.292 81.4781 231.051 81.5738 230.868 81.7455C230.69 81.9252 230.591 82.1675 230.591 82.4199C230.591 82.6724 230.69 82.9146 230.868 83.0943C232.538 84.3706 233.714 86.1857 234.195 88.2307C234.476 89.3806 234.513 90.5767 234.302 91.7415C234.207 92.1314 234.011 92.4891 233.733 92.778C233.454 93.0668 233.104 93.2764 232.717 93.3851C231.285 93.7786 229.459 93.8821 228.061 93.3021C227.653 93.1132 227.307 92.8137 227.061 92.4377C226.815 92.0618 226.679 91.6244 226.669 91.1754C226.579 90.0209 226.687 88.8595 226.988 87.7413C227.316 86.6326 227.852 85.5965 228.569 84.6888C229.104 84.0091 230.111 82.5964 231.061 83.246C232.078 83.9385 233.034 82.2864 232.025 81.5962Z" fill="#2D2D2D"/>
<path d="M231.256 94.806V98.8019C231.256 99.0549 231.356 99.2975 231.535 99.4764C231.715 99.6553 231.957 99.7558 232.211 99.7558C232.464 99.7558 232.707 99.6553 232.886 99.4764C233.065 99.2975 233.165 99.0549 233.165 98.8019V94.806C233.165 94.553 233.065 94.3103 232.886 94.1314C232.707 93.9525 232.464 93.852 232.211 93.852C231.957 93.852 231.715 93.9525 231.535 94.1314C231.356 94.3103 231.256 94.553 231.256 94.806Z" fill="#2D2D2D"/>
<path d="M227.719 94.806V98.8019C227.719 99.0549 227.82 99.2975 227.999 99.4764C228.178 99.6553 228.421 99.7558 228.674 99.7558C228.927 99.7558 229.17 99.6553 229.349 99.4764C229.528 99.2975 229.629 99.0549 229.629 98.8019V94.806C229.629 94.553 229.528 94.3103 229.349 94.1314C229.17 93.9525 228.927 93.852 228.674 93.852C228.421 93.852 228.178 93.9525 227.999 94.1314C227.82 94.3103 227.719 94.553 227.719 94.806Z" fill="#2D2D2D"/>
<path d="M8.14695 82.418C7.85646 82.1936 7.49965 82.0719 7.13246 82.0719C6.76526 82.0719 6.40845 82.1936 6.11797 82.418C4.71344 83.5162 3.62689 84.9682 2.96995 86.6247C2.76437 87.1241 2.60924 87.6428 2.50686 88.1729C2.42369 88.6799 2.37076 89.1913 2.34836 89.7044C2.22673 90.6044 2.30066 91.5199 2.56511 92.3887C2.85615 93.1258 3.40582 93.7317 4.11143 94.0934C5.07771 94.455 6.10109 94.6404 7.13294 94.6409C8.16319 94.6236 9.18373 94.4387 10.1544 94.0934C10.8602 93.7317 11.41 93.1258 11.7012 92.3887C11.9653 91.5199 12.0391 90.6043 11.9175 89.7044C11.8953 89.1913 11.8425 88.6799 11.7595 88.1729C11.657 87.6427 11.5017 87.1241 11.2959 86.6247C10.6387 84.968 9.55184 83.5161 8.14695 82.418Z" fill="#06D6A0"/>
<path d="M5.36367 98.8019V94.806H8.9022V98.8019" fill="#8D6E63"/>
<path d="M8.62865 81.5962C6.04063 79.8262 3.44163 83.4339 2.45435 85.4519C1.81686 86.7841 1.45601 88.2315 1.39355 89.7068C1.30093 91.183 1.36491 92.6501 2.33309 93.8501C3.78727 95.653 6.50371 95.758 8.62579 95.457C9.81119 95.2901 10.9231 94.9753 11.7581 94.0571C12.7869 92.9263 12.9716 91.4935 12.8914 90.0207C12.8508 88.3754 12.4533 86.7586 11.7265 85.2816C11.0239 83.9081 10.0332 82.702 8.822 81.7455C8.63917 81.5738 8.39766 81.4781 8.14671 81.4781C7.89576 81.4781 7.65425 81.5738 7.47142 81.7455C7.29392 81.9252 7.1944 82.1675 7.1944 82.4199C7.1944 82.6724 7.29392 82.9146 7.47142 83.0943C9.14158 84.3706 10.3175 86.1857 10.7989 88.2307C11.0802 89.3806 11.1165 90.5767 10.9054 91.7415C10.8112 92.1314 10.6147 92.4891 10.3362 92.778C10.0577 93.0668 9.70729 93.2764 9.32089 93.3851C7.88867 93.7786 6.06259 93.8821 4.66474 93.3021C4.25688 93.1132 3.91026 92.8137 3.66425 92.4377C3.41825 92.0618 3.28273 91.6244 3.2731 91.1754C3.18272 90.0209 3.29058 88.8595 3.59201 87.7413C3.91964 86.6326 4.45614 85.5965 5.1727 84.6888C5.70788 84.0091 6.71473 82.5964 7.66477 83.246C8.68164 83.9385 9.63789 82.2864 8.62865 81.5962Z" fill="#2D2D2D"/>
<path d="M7.86146 94.806V98.8019C7.86146 99.0549 7.96205 99.2975 8.14112 99.4764C8.32018 99.6553 8.56304 99.7558 8.81627 99.7558C9.0695 99.7558 9.31236 99.6553 9.49143 99.4764C9.67049 99.2975 9.77108 99.0549 9.77108 98.8019V94.806C9.77108 94.553 9.67049 94.3103 9.49143 94.1314C9.31236 93.9525 9.0695 93.852 8.81627 93.852C8.56304 93.852 8.32018 93.9525 8.14112 94.1314C7.96205 94.3103 7.86146 94.553 7.86146 94.806Z" fill="#2D2D2D"/>
<path d="M4.32292 94.806V98.8019C4.32292 99.0549 4.42351 99.2975 4.60258 99.4764C4.78164 99.6553 5.0245 99.7558 5.27773 99.7558C5.53096 99.7558 5.77382 99.6553 5.95289 99.4764C6.13195 99.2975 6.23255 99.0549 6.23255 98.8019V94.806C6.23255 94.553 6.13195 94.3103 5.95289 94.1314C5.77382 93.9525 5.53096 93.852 5.27773 93.852C5.0245 93.852 4.78164 93.9525 4.60258 94.1314C4.42351 94.3103 4.32292 94.553 4.32292 94.806Z" fill="#2D2D2D"/>
<path d="M207.088 21.5485C206.116 21.7627 205.101 21.666 204.187 21.2723C203.273 20.8786 202.506 20.2077 201.995 19.3545C201.027 17.6771 202.823 15.1192 204.321 15.8174C203.868 14.906 204.437 13.4059 205.244 12.7854C206.931 11.4891 209.583 12.2312 210.013 12.4892C209.898 11.8177 210.937 9.63847 214.77 9.63847C217.539 9.63847 219.194 11.5687 219.518 12.3938L219.599 12.6004C220.224 12.2818 220.913 12.1115 221.614 12.1029C222.315 12.0942 223.008 12.2473 223.64 12.5503C224.237 12.8775 224.738 13.3537 225.096 13.9325C225.453 14.5112 225.654 15.1727 225.679 15.8522C225.724 17.3723 225.081 18.8437 223.804 19.3302C222.956 19.6559 222.026 19.695 221.154 19.4413C221.113 19.9679 220.948 20.4773 220.672 20.9279C220.396 21.3784 220.017 21.7575 219.567 22.0341C218.562 22.5987 217.45 22.949 216.303 23.0628C214.964 23.191 213.614 23.1726 212.279 23.008C210.709 22.8496 209.214 22.2547 207.965 21.291C207.684 21.4105 207.389 21.497 207.088 21.5485Z" fill="#FDFDFD"/>
<path d="M206.834 20.6289C206.14 20.7613 205.423 20.7033 204.758 20.4612C204.094 20.2191 203.508 19.8019 203.063 19.2539C202.849 19.0011 202.719 18.6878 202.692 18.3579C202.665 18.028 202.742 17.6979 202.912 17.4138C203.039 17.1612 203.226 16.9437 203.457 16.7804C203.54 16.7072 203.644 16.6633 203.755 16.6556C203.865 16.6479 203.974 16.6769 204.067 16.7379C204.938 17.0957 205.43 15.992 205.145 15.3367C204.957 14.9031 205.276 14.2239 205.52 13.8757C205.879 13.4249 206.4 13.1322 206.972 13.0601C207.49 12.9699 208.019 12.9677 208.538 13.0535C208.769 13.0896 208.997 13.1404 209.222 13.2056C209.321 13.2342 209.419 13.266 209.517 13.301C209.617 13.3373 209.34 13.2056 209.531 13.3129C210.33 13.7546 211.04 13.0268 210.934 12.2355C210.985 12.6171 210.972 12.3819 210.961 12.3232C210.981 12.4282 210.895 12.5403 210.961 12.3733C210.992 12.2946 211.093 12.0395 210.995 12.2417C211.062 12.1017 211.142 11.968 211.233 11.842C211.145 11.9651 211.388 11.6746 211.441 11.6221C212.136 11.0403 212.998 10.694 213.903 10.6329C215.103 10.463 216.325 10.7241 217.35 11.3698C217.709 11.6084 218.03 11.8976 218.305 12.2283C218.39 12.3282 218.466 12.4355 218.531 12.5488C218.573 12.6147 218.607 12.6853 218.644 12.7544C218.548 12.5694 218.639 12.7454 218.682 12.8551C218.724 12.994 218.797 13.1218 218.894 13.2292C218.992 13.3366 219.113 13.4208 219.247 13.4756C219.381 13.5305 219.526 13.5546 219.671 13.5463C219.816 13.538 219.958 13.4973 220.085 13.4274C221.924 12.5183 224.318 13.3477 224.691 15.4931C224.777 15.9382 224.765 16.3967 224.655 16.8364C224.545 17.2762 224.34 17.6867 224.055 18.0391C223.375 18.765 222.303 18.6987 221.412 18.5251C221.27 18.4896 221.122 18.4864 220.98 18.5158C220.837 18.5451 220.702 18.6062 220.586 18.6945C220.47 18.7828 220.375 18.8961 220.309 19.026C220.243 19.1558 220.207 19.2989 220.203 19.4447C220.012 21.7817 216.747 22.1666 214.952 22.1972C212.851 22.2329 210.323 22.0541 208.643 20.6204C208.524 20.5011 208.375 20.4156 208.212 20.3725C208.049 20.3295 207.877 20.3304 207.714 20.3752C207.431 20.4883 207.137 20.5742 206.837 20.6318C205.634 20.8765 206.144 22.7156 207.345 22.4714C207.645 22.4135 207.939 22.3276 208.222 22.2148L207.293 21.9697C209.542 23.8861 212.771 24.2529 215.619 24.0788C218.488 23.9032 221.843 22.7576 222.112 19.4447L220.903 20.3647C222.439 20.6638 224.075 20.6318 225.29 19.5005C226.439 18.4311 226.805 16.6597 226.561 15.1602C226.432 14.3987 226.121 13.6793 225.656 13.0624C225.191 12.4456 224.585 11.9492 223.888 11.615C223.13 11.2884 222.31 11.1337 221.486 11.1623C220.661 11.1908 219.854 11.4018 219.121 11.78L220.524 12.3523C219.429 9.56836 216.323 8.40554 213.509 8.77518C211.572 9.03131 208.776 10.3706 209.096 12.7458L210.498 11.6689C209.046 10.9683 207.376 10.8707 205.853 11.3975C203.915 12.1129 202.636 14.3131 203.5 16.302L204.578 14.9007C203.39 14.4128 202.181 15.1573 201.492 16.105C201.116 16.6064 200.88 17.1981 200.807 17.8202C200.734 18.4423 200.828 19.0725 201.078 19.6469C202.202 22.0021 204.913 22.8869 207.345 22.4714C207.589 22.4027 207.795 22.2411 207.92 22.0216C208.045 21.802 208.079 21.5422 208.014 21.2981C207.942 21.0556 207.779 20.8504 207.559 20.7256C207.339 20.6007 207.079 20.5661 206.834 20.6289Z" fill="#A6A6A6"/>
<path d="M209.309 18.9887C209.51 19.3518 209.783 19.6707 210.11 19.9263C210.438 20.1819 210.814 20.3691 211.215 20.4766C211.616 20.5842 212.035 20.61 212.447 20.5524C212.859 20.4948 213.254 20.3551 213.611 20.1415C213.719 20.0783 213.814 19.9944 213.89 19.8945C213.966 19.7947 214.021 19.681 214.053 19.5598C214.085 19.4386 214.092 19.3123 214.075 19.1882C214.058 19.064 214.017 18.9445 213.953 18.8363C213.89 18.7281 213.806 18.6335 213.706 18.5577C213.606 18.482 213.492 18.4267 213.371 18.3949C213.25 18.3631 213.123 18.3555 212.999 18.3725C212.875 18.3896 212.755 18.4309 212.647 18.4941C212.553 18.5563 212.454 18.6104 212.351 18.6558L212.579 18.5604C212.418 18.627 212.25 18.6731 212.077 18.6978L212.331 18.6634C212.133 18.6883 211.932 18.6872 211.733 18.6601L211.987 18.6939C211.788 18.6644 211.594 18.6101 211.408 18.5323L211.636 18.6276C211.464 18.5522 211.302 18.4561 211.153 18.3415L211.346 18.4908C211.22 18.3904 211.105 18.2758 211.005 18.1493L211.154 18.3424C211.079 18.2427 211.013 18.136 210.957 18.0238C210.829 17.8065 210.619 17.6487 210.375 17.5847C210.13 17.5206 209.87 17.5555 209.651 17.6818C209.437 17.8137 209.282 18.0228 209.219 18.2658C209.155 18.5087 209.187 18.7669 209.309 18.9868V18.9887Z" fill="#A6A6A6"/>
<path d="M68.8072 17.6551C68.2524 18.2651 67.938 19.0556 67.9224 19.8797C67.9069 20.7038 68.1913 21.5055 68.7227 22.136C69.2542 22.7664 69.9967 23.1827 70.8122 23.3076C71.6277 23.4324 72.4608 23.2573 73.1569 22.8148L71.8497 21.5108C71.5325 22.0595 71.4047 22.6972 71.4861 23.3256C71.5674 23.9541 71.8534 24.5383 72.2999 24.9883C73.2223 26.0023 74.6674 26.2575 75.9592 26.4249C78.7502 26.7869 81.7039 26.3805 83.4941 23.9991C83.6203 23.7803 83.6551 23.5207 83.591 23.2765C83.527 23.0322 83.3692 22.823 83.1518 22.6942C82.9318 22.5724 82.6733 22.54 82.4299 22.6037C82.1866 22.6673 81.9772 22.8222 81.8452 23.0361C80.707 24.5505 78.5854 24.7489 76.8477 24.613C75.9542 24.5959 75.0717 24.4133 74.2449 24.0745C73.6663 23.7883 73.0776 23.1206 73.4987 22.4738C74.0238 21.663 72.9902 20.6862 72.1925 21.1684C71.8967 21.3562 71.5471 21.441 71.1981 21.4096C70.8491 21.3782 70.5202 21.2323 70.2628 20.9948C70.0164 20.7271 69.871 20.382 69.8518 20.0188C69.8325 19.6556 69.9406 19.2971 70.1573 19.0049C70.3296 18.8225 70.4256 18.5813 70.4256 18.3305C70.4256 18.0797 70.3296 17.8384 70.1573 17.6561C69.9773 17.4788 69.7347 17.3795 69.482 17.3795C69.2293 17.3795 68.9867 17.4788 68.8067 17.6561L68.8072 17.6551Z" fill="#A6A6A6"/>
<path d="M78.8313 18.3272C76.6534 18.723 73.2586 18.3362 71.4076 15.1287C69.9969 12.6834 72.616 8.95404 74.7972 9.97234C74.137 8.64354 74.9658 6.45622 76.1426 5.55239C78.6026 3.66222 82.4672 4.74157 83.095 5.1198C82.9275 4.14108 84.4423 0.964087 90.0298 0.964087C94.0692 0.964087 96.4787 3.77812 96.9522 4.981L97.0706 5.28196C97.9806 4.8175 98.9857 4.56926 100.007 4.5566C101.029 4.54394 102.04 4.76721 102.961 5.20899C103.832 5.68551 104.564 6.37956 105.085 7.22327C105.607 8.06699 105.9 9.03148 105.937 10.0224C106.003 12.2388 105.065 14.3842 103.203 15.0929C101.826 15.6176 100.899 15.5699 99.3426 15.2556C99.2816 16.0232 99.0401 16.7656 98.6377 17.4223C98.2352 18.0791 97.6833 18.6316 97.0267 19.035C95.5613 19.8578 93.9412 20.3684 92.2684 20.5345C90.3158 20.721 88.3488 20.6942 86.402 20.4544C84.3573 20.2507 81.6499 19.314 80.1098 17.9547C79.6993 18.1274 79.2704 18.2524 78.8313 18.3272Z" fill="#FDFDFD"/>
<path d="M78.5773 17.409C76.3894 17.7906 73.8601 17.0694 72.5262 15.1163C72.203 14.6848 72.015 14.1673 71.9858 13.6292C71.9565 13.0911 72.0874 12.5563 72.362 12.0924C72.7367 11.4075 73.6032 10.4927 74.317 10.797C74.4995 10.8957 74.7092 10.9329 74.9146 10.903C75.1201 10.8732 75.3104 10.7778 75.4572 10.6312C75.604 10.4845 75.6996 10.2944 75.7296 10.0892C75.7595 9.88393 75.7224 9.6745 75.6236 9.49204C75.2813 8.7375 75.6881 7.70346 76.0843 7.0548C76.3478 6.66261 76.6887 6.32823 77.086 6.07212C77.4833 5.81601 77.9287 5.64355 78.395 5.56527C79.2633 5.38494 80.1578 5.36876 81.0322 5.51758C81.3982 5.57498 81.76 5.65624 82.1154 5.76082C82.2548 5.80232 82.3913 5.84954 82.5284 5.89819C82.6453 5.94016 82.4104 5.82951 82.6152 5.94588C83.4058 6.39374 84.1329 5.65971 84.0179 4.86892C84.0771 5.27528 84.0575 4.73871 84.0374 4.89944C84.0174 5.06018 84.0938 4.71677 84.1129 4.63998C84.1377 4.5403 84.1754 4.47829 84.1129 4.62138C84.1472 4.54443 84.1842 4.46875 84.2236 4.39435C84.3057 4.24173 84.3977 4.09467 84.4991 3.95412C84.5979 3.8158 84.4513 4.00181 84.5678 3.8697C84.6399 3.78671 84.7134 3.70515 84.7903 3.62645C84.8992 3.51532 85.1321 3.30355 85.1794 3.26683C85.5704 2.964 86.0006 2.71548 86.4584 2.52802C89.0072 1.47586 92.2254 1.6924 94.4311 3.40371C94.853 3.73883 95.2386 4.11721 95.5816 4.53266C95.7139 4.7033 95.8338 4.88308 95.9406 5.07067C95.9908 5.15843 96.0361 5.24857 96.08 5.33967C95.9545 5.08259 96.1364 5.48991 96.154 5.53427C96.1957 5.67332 96.2681 5.80127 96.3657 5.90874C96.4634 6.01622 96.5839 6.10049 96.7184 6.15538C96.8529 6.21026 96.998 6.23437 97.1431 6.22593C97.2881 6.2175 97.4294 6.17673 97.5566 6.10662C98.2917 5.73388 99.0997 5.52686 99.9236 5.50015C100.748 5.47345 101.567 5.62773 102.325 5.95208C102.998 6.28512 103.584 6.77143 104.035 7.37187C104.485 7.9723 104.789 8.67009 104.92 9.40905C105.055 10.1121 105.038 10.836 104.869 11.5318C104.7 12.2275 104.384 12.879 103.941 13.4422C102.839 14.6851 101.089 14.6303 99.5971 14.337C99.4555 14.3013 99.3078 14.298 99.1647 14.3272C99.0217 14.3565 98.8871 14.4175 98.771 14.5059C98.6549 14.5942 98.5601 14.7076 98.4939 14.8376C98.4276 14.9675 98.3915 15.1107 98.3883 15.2565C98.1243 18.9124 93.2982 19.635 90.4428 19.7022C87.2203 19.7781 83.3504 19.4847 80.7858 17.2807C80.6667 17.1611 80.5179 17.0754 80.3546 17.0323C80.1913 16.9892 80.0195 16.9903 79.8568 17.0356C79.4449 17.2026 79.0172 17.3276 78.5802 17.4085C77.3757 17.647 77.8856 19.4847 79.0877 19.2482C79.5247 19.1672 79.9524 19.0422 80.3643 18.8752L79.4352 18.63C82.5661 21.3201 87.1497 21.8003 91.116 21.5838C95.0331 21.3697 99.9637 19.8806 100.298 15.2565L99.0891 16.1766C100.824 16.5176 102.598 16.591 104.188 15.6782C104.844 15.2645 105.407 14.7193 105.841 14.077C106.276 13.4347 106.572 12.7094 106.711 11.9469C107.423 8.59871 105.752 5.03919 102.391 3.9379C100.464 3.35261 98.3845 3.53958 96.5928 4.45921L97.9954 5.03156C96.9766 2.44408 94.3867 0.620202 91.6788 0.160417C88.7977 -0.327031 85.0414 0.238638 83.1027 2.65728C82.7675 3.02113 82.512 3.45086 82.3525 3.91899C82.193 4.38711 82.1331 4.88333 82.1765 5.37592L83.5791 4.29896C82.8356 3.9319 82.0305 3.70551 81.2045 3.63122C79.8888 3.41253 78.5401 3.50615 77.2673 3.90451C75.9605 4.31758 74.8714 5.23236 74.2396 6.44764C73.8949 7.05251 73.692 7.72759 73.6461 8.42211C73.6002 9.11663 73.7125 9.81251 73.9747 10.4574L75.2808 9.15245C72.6303 8.01301 70.3392 10.684 70.0833 13.1479C69.7849 15.9972 72.5014 18.362 75.0207 19.0836C76.3462 19.4446 77.7364 19.5006 79.0867 19.2472C79.33 19.1783 79.5365 19.0167 79.6615 18.7971C79.7866 18.5775 79.8202 18.3176 79.7551 18.0734C79.6826 17.8322 79.5196 17.6283 79.3 17.5045C79.0805 17.3806 78.8215 17.3464 78.5773 17.409Z" fill="#A6A6A6"/>
<path d="M82.4482 14.3742C82.7127 14.8543 83.0716 15.2762 83.5032 15.6146C83.9348 15.9529 84.4304 16.2008 84.9601 16.3433C85.4899 16.4858 86.043 16.52 86.5863 16.4439C87.1296 16.3678 87.652 16.183 88.1221 15.9004C88.2304 15.8372 88.3251 15.7533 88.401 15.6535C88.4768 15.5536 88.5322 15.4399 88.564 15.3187C88.5958 15.1975 88.6034 15.0712 88.5863 14.9471C88.5693 14.823 88.528 14.7034 88.4647 14.5952C88.4014 14.4871 88.3174 14.3924 88.2175 14.3167C88.1176 14.2409 88.0037 14.1856 87.8824 14.1538C87.7611 14.122 87.6347 14.1144 87.5104 14.1315C87.3862 14.1485 87.2665 14.1898 87.1582 14.253C87.0747 14.3091 86.9882 14.3605 86.899 14.4071C86.8564 14.4228 86.8154 14.4427 86.7768 14.4667C86.9071 14.357 86.9253 14.408 86.8031 14.4519C86.7092 14.4855 86.6136 14.5138 86.5166 14.5368C86.4727 14.5478 86.4288 14.5573 86.3839 14.5659C86.286 14.5845 86.1815 14.5564 86.423 14.5659C86.2321 14.5592 86.0411 14.5921 85.8502 14.5797C85.8024 14.5764 85.759 14.5716 85.7136 14.5678C85.5136 14.5511 85.9461 14.6155 85.7499 14.5711C85.6511 14.5497 85.5527 14.5316 85.4549 14.5053C85.357 14.4791 85.2615 14.4481 85.1684 14.4133C85.1345 14.4004 84.9774 14.3422 85.1297 14.3999C85.282 14.4576 85.1297 14.3966 85.0944 14.3799C84.9149 14.2926 84.7602 14.1514 84.5822 14.0675C84.6452 14.097 84.7407 14.2001 84.6275 14.097C84.5936 14.067 84.5592 14.0374 84.5263 14.0064C84.4471 13.9315 84.3759 13.8509 84.3029 13.7679C84.1931 13.6463 84.396 13.9082 84.3353 13.8114C84.3115 13.7732 84.2828 13.7374 84.2585 13.6993C84.1994 13.607 84.1457 13.5115 84.0976 13.4131C83.9688 13.1958 83.7594 13.038 83.5149 12.9738C83.2704 12.9097 83.0104 12.9445 82.7914 13.0706C82.5775 13.2027 82.4226 13.4119 82.3588 13.6549C82.295 13.8979 82.3271 14.1561 82.4486 14.3761L82.4482 14.3742Z" fill="#A6A6A6"/>
<path d="M0.92235 99.0461C8.26725 99.0461 229.132 98.965 236.075 98.965L0.92235 99.0461Z" fill="#FDFDFD"/>
<path d="M0.92235 100C3.55636 100 6.19006 100 8.82343 100L236.078 99.9189C237.306 99.9189 237.308 98.0111 236.078 98.0111C233.48 98.0111 230.881 98.0111 228.283 98.0111L12.2698 98.0865C8.78126 98.0865 5.29301 98.0876 1.80508 98.0898H0.92235C-0.306495 98.0898 -0.308405 99.9976 0.92235 99.9976V100Z" fill="#2D2D2D"/>
</svg>
